<?xml version="1.0" encoding="UTF-8"?><svg xmlns="http://www.w3.org/2000/svg" xmlns:xlink="http://www.w3.org/1999/xlink" viewBox="0 0 250 250"><defs><clipPath id="c"><rect x="0" y="0" width="250" height="250" fill="none"/></clipPath></defs><g id="a"><rect x="0" y="0" width="250" height="250" fill="#e0b3be"/></g><g id="b"><g clip-path="url(#c)"><g><g id="d"><path d="m29.8-.96c-1.46,1.39-3,4.97-2.62,8.61s2.28,6.39,4.21,6.13,3.34-4.07,5.24-4.8,5.18-.36,6.86-2.31S40.39-.1,37.55-1.52c-2.93-1.37-5.42-1.64-7.75.56h0Z" fill="#e8d7c8"/><path d="m22.93,1.36c-1.75-.7-3.6-.19-4,1.02-.4,1.21.6,2.84,2.35,3.54,1.75.7,3.53.29,4.02-.98.45-1.24-.62-2.88-2.37-3.58Z" fill="#e8d7c8"/></g><g id="e"><path d="m29.8,249.04c-1.46,1.39-3,4.97-2.62,8.61s2.28,6.39,4.21,6.13,3.34-4.07,5.24-4.8,5.18-.36,6.86-2.31-3.11-6.77-5.95-8.19c-2.93-1.37-5.42-1.64-7.75.56h0Z" fill="#e8d7c8"/><path d="m39.6,240.39c-1.3-.23-2.54,1.1-2.79,3.02-.24,1.91.65,3.66,1.99,3.87,1.32.28,2.62-1.08,2.86-3,.2-1.89-.69-3.64-2.06-3.89Z" fill="#e8d7c8"/><path d="m27.23,248.94c1.23-1.26.73-3.72-1.13-5.46-1.86-1.74-4.31-2.16-5.49-.93s-.68,3.7,1.18,5.44c1.86,1.74,4.22,2.22,5.44.95h0Z" fill="#e8d7c8"/><path d="m34.27,240.59c-.79-2.42-2.8-4.01-4.48-3.53s-2.42,2.8-1.63,5.22c.83,2.39,2.73,3.99,4.44,3.55,1.63-.45,2.42-2.8,1.68-5.25h0Z" fill="#e8d7c8"/></g><g id="f"><path d="m29.8,165.71c-1.46,1.39-3,4.97-2.62,8.61s2.28,6.39,4.21,6.13c1.93-.26,3.34-4.07,5.24-4.8s5.18-.36,6.86-2.31-3.11-6.77-5.95-8.19c-2.93-1.37-5.42-1.64-7.75.56h0Z" fill="#e8d7c8"/><path d="m39.6,157.05c-1.3-.23-2.54,1.1-2.79,3.02-.24,1.91.65,3.66,1.99,3.87,1.32.28,2.62-1.08,2.86-3,.2-1.89-.69-3.64-2.06-3.89Z" fill="#e8d7c8"/><path d="m27.23,165.6c1.23-1.26.73-3.72-1.13-5.46-1.86-1.74-4.31-2.16-5.49-.93s-.68,3.7,1.18,5.44c1.86,1.74,4.22,2.22,5.44.95h0Z" fill="#e8d7c8"/><path d="m22.93,168.02c-1.75-.7-3.6-.19-4,1.02-.4,1.21.6,2.84,2.35,3.54,1.75.7,3.53.29,4.02-.98.45-1.24-.62-2.88-2.37-3.58Z" fill="#e8d7c8"/><path d="m34.27,157.25c-.79-2.42-2.8-4.01-4.48-3.53s-2.42,2.8-1.63,5.22c.83,2.39,2.73,3.99,4.44,3.55,1.63-.45,2.42-2.8,1.68-5.25h0Z" fill="#e8d7c8"/></g><g id="g"><path d="m92.2,40.71c-1.46,1.39-3,4.97-2.62,8.61.38,3.63,2.28,6.39,4.21,6.13s3.34-4.07,5.24-4.8,5.18-.36,6.86-2.31-3.11-6.77-5.95-8.19c-2.93-1.37-5.42-1.64-7.75.56h0Z" fill="#e8d7c8"/><path d="m102,32.05c-1.3-.23-2.54,1.1-2.79,3.02-.24,1.91.65,3.66,1.99,3.87,1.32.28,2.62-1.08,2.86-3,.2-1.89-.69-3.64-2.06-3.89Z" fill="#e8d7c8"/><path d="m89.63,40.6c1.23-1.26.73-3.72-1.13-5.46-1.86-1.74-4.31-2.16-5.49-.93s-.68,3.7,1.18,5.44c1.86,1.74,4.22,2.22,5.44.95h0Z" fill="#e8d7c8"/><path d="m85.34,43.02c-1.75-.7-3.6-.19-4,1.02-.4,1.21.6,2.84,2.35,3.54,1.75.7,3.53.29,4.02-.98.45-1.24-.62-2.88-2.37-3.58Z" fill="#e8d7c8"/><path d="m96.67,32.25c-.79-2.42-2.8-4.01-4.48-3.53s-2.42,2.8-1.63,5.22c.83,2.39,2.73,3.99,4.44,3.55,1.63-.45,2.42-2.8,1.68-5.25h0Z" fill="#e8d7c8"/></g><g id="h"><path d="m92.2,124.04c-1.46,1.39-3,4.97-2.62,8.61s2.28,6.39,4.21,6.13c1.93-.26,3.34-4.07,5.24-4.8s5.18-.36,6.86-2.31-3.11-6.77-5.95-8.19c-2.93-1.37-5.42-1.64-7.75.56h0Z" fill="#e8d7c8"/><path d="m102,115.39c-1.3-.23-2.54,1.1-2.79,3.02-.24,1.91.65,3.66,1.99,3.87,1.32.28,2.62-1.08,2.86-3,.2-1.89-.69-3.64-2.06-3.89Z" fill="#e8d7c8"/><path d="m89.63,123.94c1.23-1.26.73-3.72-1.13-5.46-1.86-1.74-4.31-2.16-5.49-.93s-.68,3.7,1.18,5.44c1.86,1.74,4.22,2.22,5.44.95h0Z" fill="#e8d7c8"/><path d="m85.34,126.36c-1.75-.7-3.6-.19-4,1.02-.4,1.21.6,2.84,2.35,3.54,1.75.7,3.53.29,4.02-.98.45-1.24-.62-2.88-2.37-3.58Z" fill="#e8d7c8"/><path d="m96.67,115.59c-.79-2.42-2.8-4.01-4.48-3.53s-2.42,2.8-1.63,5.22c.83,2.39,2.73,3.99,4.44,3.55,1.63-.45,2.42-2.8,1.68-5.25h0Z" fill="#e8d7c8"/></g><g id="i"><path d="m92.2,207.38c-1.46,1.39-3,4.97-2.62,8.61s2.28,6.39,4.21,6.13,3.34-4.07,5.24-4.8,5.18-.36,6.86-2.31-3.11-6.77-5.95-8.19c-2.93-1.37-5.42-1.64-7.75.56h0Z" fill="#e8d7c8"/><path d="m102,198.72c-1.3-.23-2.54,1.1-2.79,3.02-.24,1.91.65,3.66,1.99,3.87,1.32.28,2.62-1.08,2.86-3,.2-1.89-.69-3.64-2.06-3.89Z" fill="#e8d7c8"/><path d="m89.63,207.27c1.23-1.26.73-3.72-1.13-5.46-1.86-1.74-4.31-2.16-5.49-.93s-.68,3.7,1.18,5.44c1.86,1.74,4.22,2.22,5.44.95h0Z" fill="#e8d7c8"/><path d="m85.34,209.69c-1.75-.7-3.6-.19-4,1.02-.4,1.21.6,2.84,2.35,3.54,1.75.7,3.53.29,4.02-.98.45-1.24-.62-2.88-2.37-3.58Z" fill="#e8d7c8"/><path d="m96.67,198.92c-.79-2.42-2.8-4.01-4.48-3.53s-2.42,2.8-1.63,5.22c.83,2.39,2.73,3.99,4.44,3.55,1.63-.45,2.42-2.8,1.68-5.25h0Z" fill="#e8d7c8"/></g><g id="j"><path d="m29.8,82.38c-1.46,1.39-3,4.97-2.62,8.61s2.28,6.39,4.21,6.13,3.34-4.07,5.24-4.8,5.18-.36,6.86-2.31-3.11-6.77-5.95-8.19c-2.93-1.37-5.42-1.64-7.75.56h0Z" fill="#e8d7c8"/><path d="m39.6,73.72c-3.24-.39-3.87,6.36-.8,6.88,1.32.28,2.62-1.08,2.86-3,.2-1.89-.69-3.64-2.06-3.89Z" fill="#e8d7c8"/><path d="m27.23,82.27c2.83-3.11-3.69-9.22-6.63-6.39-2.75,3,3.72,9.25,6.63,6.39h0Z" fill="#e8d7c8"/><path d="m22.93,84.69c-1.75-.7-3.6-.19-4,1.02-.91,2.96,5.04,5.54,6.37,2.56.45-1.24-.62-2.88-2.37-3.58Z" fill="#e8d7c8"/><path d="m34.27,73.92c-1.93-5.64-7.85-4.27-6.12,1.7.83,2.39,2.73,3.99,4.44,3.55,1.63-.45,2.42-2.8,1.68-5.25h0Z" fill="#e8d7c8"/></g><g id="k"><path d="m154.7-.96c-1.46,1.39-3,4.97-2.62,8.61s2.28,6.39,4.21,6.13,3.34-4.07,5.24-4.8,5.18-.36,6.86-2.31-3.11-6.77-5.95-8.19c-2.93-1.37-5.42-1.64-7.75.56h0Z" fill="#e8d7c8"/><path d="m147.84,1.36c-1.75-.7-3.6-.19-4,1.02-.4,1.21.6,2.84,2.35,3.54,1.75.7,3.53.29,4.02-.98.45-1.24-.62-2.88-2.37-3.58Z" fill="#e8d7c8"/></g><g id="l"><path d="m154.7,249.04c-1.46,1.39-3,4.97-2.62,8.61.38,3.63,2.28,6.39,4.21,6.13s3.34-4.07,5.24-4.8,5.18-.36,6.86-2.31-3.11-6.77-5.95-8.19c-2.93-1.37-5.42-1.64-7.75.56h0Z" fill="#e8d7c8"/><path d="m164.51,240.39c-1.3-.23-2.54,1.1-2.79,3.02-.24,1.91.65,3.66,1.99,3.87,1.32.28,2.62-1.08,2.86-3,.2-1.89-.69-3.64-2.06-3.89Z" fill="#e8d7c8"/><path d="m152.13,248.94c1.23-1.26.73-3.72-1.13-5.46-1.86-1.74-4.31-2.16-5.49-.93s-.68,3.7,1.18,5.44c1.86,1.74,4.22,2.22,5.44.95h0Z" fill="#e8d7c8"/><path d="m159.18,240.59c-.79-2.42-2.8-4.01-4.48-3.53s-2.42,2.8-1.63,5.22c.83,2.39,2.73,3.99,4.44,3.55,1.63-.45,2.42-2.8,1.68-5.25h0Z" fill="#e8d7c8"/></g><g id="m"><path d="m154.7,165.71c-1.46,1.39-3,4.97-2.62,8.61s2.28,6.39,4.21,6.13c1.93-.26,3.34-4.07,5.24-4.8s5.18-.36,6.86-2.31-3.11-6.77-5.95-8.19c-2.93-1.37-5.42-1.64-7.75.56h0Z" fill="#e8d7c8"/><path d="m164.51,157.05c-1.3-.23-2.54,1.1-2.79,3.02-.24,1.91.65,3.66,1.99,3.87,1.32.28,2.62-1.08,2.86-3,.2-1.89-.69-3.64-2.06-3.89Z" fill="#e8d7c8"/><path d="m152.13,165.6c1.23-1.26.73-3.72-1.13-5.46-1.86-1.74-4.31-2.16-5.49-.93s-.68,3.7,1.18,5.44c1.86,1.74,4.22,2.22,5.44.95h0Z" fill="#e8d7c8"/><path d="m147.84,168.02c-1.75-.7-3.6-.19-4,1.02-.4,1.21.6,2.84,2.35,3.54,1.75.7,3.53.29,4.02-.98.45-1.24-.62-2.88-2.37-3.58Z" fill="#e8d7c8"/><path d="m159.18,157.25c-.79-2.42-2.8-4.01-4.48-3.53s-2.42,2.8-1.63,5.22c.83,2.39,2.73,3.99,4.44,3.55,1.63-.45,2.42-2.8,1.68-5.25h0Z" fill="#e8d7c8"/></g><g id="n"><path d="m217.1,40.71c-1.46,1.39-3,4.97-2.62,8.61.38,3.63,2.28,6.39,4.21,6.13s3.34-4.07,5.24-4.8,5.18-.36,6.86-2.31-3.11-6.77-5.95-8.19c-2.93-1.37-5.42-1.64-7.75.56h0Z" fill="#e8d7c8"/><path d="m226.91,32.05c-1.3-.23-2.54,1.1-2.79,3.02-.24,1.91.65,3.66,1.99,3.87,1.32.28,2.62-1.08,2.86-3,.2-1.89-.69-3.64-2.06-3.89Z" fill="#e8d7c8"/><path d="m214.53,40.6c1.23-1.26.73-3.72-1.13-5.46-1.86-1.74-4.31-2.16-5.49-.93s-.68,3.7,1.18,5.44c1.86,1.74,4.22,2.22,5.44.95h0Z" fill="#e8d7c8"/><path d="m210.24,43.02c-1.75-.7-3.6-.19-4,1.02-.4,1.21.6,2.84,2.35,3.54,1.75.7,3.53.29,4.02-.98.45-1.24-.62-2.88-2.37-3.58Z" fill="#e8d7c8"/><path d="m221.58,32.25c-.79-2.42-2.8-4.01-4.48-3.53s-2.42,2.8-1.63,5.22c.83,2.39,2.73,3.99,4.44,3.55,1.63-.45,2.42-2.8,1.68-5.25h0Z" fill="#e8d7c8"/></g><g id="o"><path d="m217.1,124.04c-1.46,1.39-3,4.97-2.62,8.61s2.28,6.39,4.21,6.13c1.93-.26,3.34-4.07,5.24-4.8s5.18-.36,6.86-2.31-3.11-6.77-5.95-8.19c-2.93-1.37-5.42-1.64-7.75.56h0Z" fill="#e8d7c8"/><path d="m226.91,115.39c-1.3-.23-2.54,1.1-2.79,3.02-.24,1.91.65,3.66,1.99,3.87,1.32.28,2.62-1.08,2.86-3,.2-1.89-.69-3.64-2.06-3.89Z" fill="#e8d7c8"/><path d="m214.53,123.94c1.23-1.26.73-3.72-1.13-5.46-1.86-1.74-4.31-2.16-5.49-.93s-.68,3.7,1.18,5.44c1.86,1.74,4.22,2.22,5.44.95h0Z" fill="#e8d7c8"/><path d="m210.24,126.36c-1.75-.7-3.6-.19-4,1.02-.4,1.21.6,2.84,2.35,3.54,1.75.7,3.53.29,4.02-.98.45-1.24-.62-2.88-2.37-3.58Z" fill="#e8d7c8"/><path d="m221.58,115.59c-.79-2.42-2.8-4.01-4.48-3.53s-2.42,2.8-1.63,5.22c.83,2.39,2.73,3.99,4.44,3.55,1.63-.45,2.42-2.8,1.68-5.25h0Z" fill="#e8d7c8"/></g><g id="p"><path d="m217.1,207.38c-1.46,1.39-3,4.97-2.62,8.61s2.28,6.39,4.21,6.13,3.34-4.07,5.24-4.8,5.18-.36,6.86-2.31c1.69-1.95-3.11-6.77-5.95-8.19-2.93-1.37-5.42-1.64-7.75.56h0Z" fill="#e8d7c8"/><path d="m226.91,198.72c-1.3-.23-2.54,1.1-2.79,3.02-.24,1.91.65,3.66,1.99,3.87,1.32.28,2.62-1.08,2.86-3,.2-1.89-.69-3.64-2.06-3.89Z" fill="#e8d7c8"/><path d="m214.53,207.27c1.23-1.26.73-3.72-1.13-5.46-1.86-1.74-4.31-2.16-5.49-.93s-.68,3.7,1.18,5.44c1.86,1.74,4.22,2.22,5.44.95h0Z" fill="#e8d7c8"/><path d="m210.24,209.69c-1.75-.7-3.6-.19-4,1.02-.4,1.21.6,2.84,2.35,3.54,1.75.7,3.53.29,4.02-.98.45-1.24-.62-2.88-2.37-3.58Z" fill="#e8d7c8"/><path d="m221.58,198.92c-.79-2.42-2.8-4.01-4.48-3.53s-2.42,2.8-1.63,5.22c.83,2.39,2.73,3.99,4.44,3.55,1.63-.45,2.42-2.8,1.68-5.25h0Z" fill="#e8d7c8"/></g><g id="q"><path d="m154.7,82.38c-1.46,1.39-3,4.97-2.62,8.61s2.28,6.39,4.21,6.13,3.34-4.07,5.24-4.8,5.18-.36,6.86-2.31-3.11-6.77-5.95-8.19c-2.93-1.37-5.42-1.64-7.75.56h0Z" fill="#e8d7c8"/><path d="m164.51,73.72c-3.24-.39-3.87,6.36-.8,6.88,1.32.28,2.62-1.08,2.86-3,.2-1.89-.69-3.64-2.06-3.89Z" fill="#e8d7c8"/><path d="m152.13,82.27c2.83-3.11-3.69-9.22-6.63-6.39-2.75,3,3.72,9.25,6.63,6.39h0Z" fill="#e8d7c8"/><path d="m147.84,84.69c-1.75-.7-3.6-.19-4,1.02-.91,2.96,5.04,5.54,6.37,2.56.45-1.24-.62-2.88-2.37-3.58Z" fill="#e8d7c8"/><path d="m159.18,73.92c-1.93-5.64-7.85-4.27-6.12,1.7.83,2.39,2.73,3.99,4.44,3.55,1.63-.45,2.42-2.8,1.68-5.25h0Z" fill="#e8d7c8"/></g></g></g></g></svg>