<?xml version="1.0" encoding="UTF-8"?><svg id="Layer_2" xmlns="http://www.w3.org/2000/svg" viewBox="0 0 280 280"><defs><style>.cls-1{fill:none;}.cls-2{fill:#fff;}</style></defs><g id="Layer_1-2"><g><path class="cls-2" d="M77.83,245.48c-17.83,0-26.75-8.92-26.75-26.75V64.84c0-10.02,2.29-17.58,6.88-22.68s12.06-7.64,22.42-7.64h119.49c19.36,0,29.04,9.77,29.04,29.3V218.73c0,17.83-8.92,26.75-26.75,26.75H77.83Zm-2.8-118.22H204.97v-55.03c0-4.59-1.32-8.19-3.95-10.83-2.63-2.63-6.24-3.95-10.83-3.95H89.81c-9.85,0-14.78,5.1-14.78,15.29v54.52Zm15.29,95.29h99.87c4.59,0,8.19-1.31,10.83-3.95,2.63-2.63,3.95-6.24,3.95-10.83v-58.09H75.03v58.09c0,9.85,5.1,14.78,15.29,14.78Z"/><rect class="cls-1" width="280" height="280"/></g></g></svg>