<?xml version="1.0" encoding="UTF-8"?><svg id="Layer_2" xmlns="http://www.w3.org/2000/svg" viewBox="0 0 526.79 518.34"><defs><style>.cls-1{fill:#f7cca9;}.cls-2{fill:#eb423f;}.cls-3{fill:#bda2bc;}.cls-4{fill:#d1b4d1;}</style></defs><g id="Layer_1-2"><g><path class="cls-3" d="m54.5,0h417.8v290.64H54.5V0Z"/><path class="cls-4" d="m263.4,0H54.5v32.47c0,13.54,7.53,25.95,19.53,32.21l189.37,98.8,189.37-98.8c12-6.26,19.53-18.68,19.53-32.21V0h-208.9Z"/><g><path class="cls-1" d="m526.79,407.74v-234.53c0-6.07-3.04-11.75-8.09-15.11l-46.41-30.94v163.49h-45.41l-48.58-55.52c-8.68-9.92-23.22-12.21-34.53-5.42l-1.9,1.14c-.21.12-.41.25-.61.38-12.7,8.08-16.44,24.92-8.36,37.62l48.56,76.31c0,90.83,63.58,118.07,63.58,118.07v55.13c35.54-29.43,63.82-67.33,81.74-110.6Z"/><path class="cls-1" d="m185.52,231.22c-.2-.13-.41-.25-.61-.38l-1.9-1.14c-11.3-6.78-25.84-4.5-34.53,5.42l-48.58,55.52h-45.41V127.16l-46.41,30.94C3.04,161.46,0,167.14,0,173.21v234.53c17.93,43.27,46.2,81.17,81.74,110.6v-55.13s63.58-27.25,63.58-118.07l48.56-76.31c8.08-12.7,4.34-29.54-8.36-37.62Z"/></g><path class="cls-2" d="m309.92,116.78c-10.75-10.39-27.79-10.39-38.54,0l-7.98,7.79-7.98-7.79c-10.75-10.39-27.79-10.39-38.54,0-10.39,10.05-10.67,26.62-.62,37.01.2.21.41.42.62.62l46.52,45.41,46.52-45.41c10.39-10.05,10.67-26.62.62-37.01-.2-.21-.41-.42-.62-.62Z"/><path class="cls-3" d="m227.07,354.22c-5.02,0-9.08,4.07-9.08,9.08v54.5c0,5.02,4.07,9.08,9.08,9.08s9.08-4.07,9.08-9.08v-54.5c0-5.02-4.07-9.08-9.08-9.08Zm36.33-18.17c-5.02,0-9.08,4.07-9.08,9.08v54.5c0,5.02,4.07,9.08,9.08,9.08s9.08-4.07,9.08-9.08v-54.5c0-5.02-4.07-9.08-9.08-9.08Zm36.33,18.17c-5.02,0-9.08,4.07-9.08,9.08v54.5c0,5.02,4.07,9.08,9.08,9.08s9.08-4.07,9.08-9.08v-54.5c0-5.02-4.07-9.08-9.08-9.08Z"/></g></g></svg>