<?xml version="1.0" encoding="UTF-8"?><svg id="Layer_2" xmlns="http://www.w3.org/2000/svg" xmlns:xlink="http://www.w3.org/1999/xlink" viewBox="0 0 459.69 160.03"><defs><style>.cls-1{filter:url(#luminosity-noclip-4);}.cls-2{mask:url(#mask);}.cls-3{filter:url(#luminosity-noclip-2);}.cls-4{fill:#f4c3c8;}.cls-5{fill:#f2f2f3;}.cls-6{fill:#f9dede;}.cls-7{fill:#efa379;}.cls-8{fill:#efc2ce;}.cls-9{fill:#f6c230;}.cls-10{fill:#f4f2e5;}.cls-11{fill:#f69ca4;}.cls-12{fill:#e9c9c6;}.cls-13{fill:#fee9e5;}.cls-14{fill:#f48a8a;}.cls-15,.cls-16{fill:#fff;}.cls-17{fill:#ffd449;}.cls-18{fill:#fcccad;}.cls-19{fill:#e85e5d;}.cls-20{fill:#e697a9;}.cls-21{fill:#bda2bc;}.cls-22{fill:#c0682b;}.cls-23{fill:url(#linear-gradient-2);}.cls-23,.cls-24{mix-blend-mode:multiply;}.cls-25{filter:url(#drop-shadow-4);}.cls-26{filter:url(#drop-shadow-2);}.cls-27{filter:url(#drop-shadow-3);}.cls-28{filter:url(#drop-shadow-1);}.cls-16,.cls-29{stroke:#a3909a;stroke-linejoin:round;stroke-width:.5px;}.cls-24{fill:url(#linear-gradient);}.cls-29{fill:none;}.cls-30{mask:url(#mask-3);}.cls-31{mask:url(#mask-2);}.cls-32{mask:url(#mask-1);}</style><filter id="drop-shadow-1" filterUnits="userSpaceOnUse"><feOffset dx="0" dy="5"/><feGaussianBlur result="blur" stdDeviation="0"/><feFlood flood-color="#feeeee" flood-opacity="1"/><feComposite in2="blur" operator="in"/><feComposite in="SourceGraphic"/></filter><filter id="drop-shadow-2" filterUnits="userSpaceOnUse"><feOffset dx="0" dy="5"/><feGaussianBlur result="blur-2" stdDeviation="0"/><feFlood flood-color="#feeeee" flood-opacity="1"/><feComposite in2="blur-2" operator="in"/><feComposite in="SourceGraphic"/></filter><filter id="drop-shadow-3" filterUnits="userSpaceOnUse"><feOffset dx="0" dy="5"/><feGaussianBlur result="blur-3" stdDeviation="0"/><feFlood flood-color="#feeeee" flood-opacity="1"/><feComposite in2="blur-3" operator="in"/><feComposite in="SourceGraphic"/></filter><filter id="drop-shadow-4" filterUnits="userSpaceOnUse"><feOffset dx="0" dy="5"/><feGaussianBlur result="blur-4" stdDeviation="0"/><feFlood flood-color="#feeeee" flood-opacity="1"/><feComposite in2="blur-4" operator="in"/><feComposite in="SourceGraphic"/></filter><filter id="luminosity-noclip-2" x="189.72" y="117.86" width="40.2" height="10.16" color-interpolation-filters="sRGB" filterUnits="userSpaceOnUse"><feFlood flood-color="#fff" result="bg"/><feBlend in="SourceGraphic" in2="bg"/></filter><filter id="luminosity-noclip-3" x="7297.93" y="-9601.2" width="-32766" height="32766" color-interpolation-filters="sRGB" filterUnits="userSpaceOnUse"><feFlood flood-color="#fff" result="bg"/><feBlend in="SourceGraphic" in2="bg"/></filter><mask id="mask-1" x="7297.93" y="-9601.2" width="-32766" height="32766" maskUnits="userSpaceOnUse"/><linearGradient id="linear-gradient" x1="189.72" y1="122.94" x2="229.91" y2="122.94" gradientUnits="userSpaceOnUse"><stop offset=".42" stop-color="#fff"/><stop offset="1" stop-color="#4d4d4d"/></linearGradient><mask id="mask" x="189.72" y="117.86" width="40.2" height="10.16" maskUnits="userSpaceOnUse"><g class="cls-3"><g class="cls-32"><path class="cls-24" d="M228.19,127.42c-17.08-.06-31.33-2.22-35.71-6.05-.55-.49-1.32-1.23-1.65-2.27-.4-1.24-.55-1.75-1.01-.58-.16,.41-.07,1.24-.03,1.53,.8,5.61,16.95,8.42,37.95,7.91,2.24-.19,3.33-.54,.46-.54Z"/></g></g></mask><filter id="luminosity-noclip-4" x="199.42" y="85.99" width="32.16" height="7.98" color-interpolation-filters="sRGB" filterUnits="userSpaceOnUse"><feFlood flood-color="#fff" result="bg"/><feBlend in="SourceGraphic" in2="bg"/></filter><filter id="luminosity-noclip-5" x="7297.93" y="-9601.2" width="-32766" height="32766" color-interpolation-filters="sRGB" filterUnits="userSpaceOnUse"><feFlood flood-color="#fff" result="bg"/><feBlend in="SourceGraphic" in2="bg"/></filter><mask id="mask-3" x="7297.93" y="-9601.2" width="-32766" height="32766" maskUnits="userSpaceOnUse"/><linearGradient id="linear-gradient-2" x1="199.42" y1="89.98" x2="231.58" y2="89.98" xlink:href="#linear-gradient"/><mask id="mask-2" x="199.42" y="85.99" width="32.16" height="7.98" maskUnits="userSpaceOnUse"><g class="cls-1"><g class="cls-30"><path class="cls-23" d="M230.22,93.49c-13.54-.04-25.18-2.13-28.3-5.01-.43-.4-.89-.95-.98-1.59-.14-1.02-.87-1.27-1.35-.21-.1,.23-.17,.76-.16,1,.16,4.52,13.78,6.65,30.42,6.25,1.78-.15,2.64-.43,.37-.43Z"/></g></g></mask></defs><g id="Layer_12"><g><g class="cls-28"><g><g><path class="cls-20" d="M428.11,22.61l23.91,7.02s.18-22.96-4.43-24.23-16.04,9.47-19.48,17.21Z"/><path class="cls-8" d="M435.39,24.75l14.86,4.36s.1-22.32-2.78-22.55c-2.32-.19-10.17,9.39-12.08,18.19Z"/><path class="cls-5" d="M443.95,27.26l-.78-1.45,3.05-.79-3.94-2.08,2.93,.13-2.51-2.34,1.27-.63-.95-.41,1.3-.3-2.65-.85,2.78-1.94s-3.21-.11-2.93-.13c.28-.03,2.64-4.41,2.64-4.41l-4.56,2.78c-1.85,3.02-3.47,6.53-4.21,9.93l8.56,2.51Z"/></g><g><path class="cls-20" d="M411.48,21.61l-23.91,7.02s-.18-22.96,4.43-24.23,16.04,9.47,19.48,17.21Z"/><path class="cls-8" d="M404.2,23.75l-14.86,4.36s-.1-22.32,2.78-22.55c2.32-.19,10.17,9.39,12.08,18.19Z"/><path class="cls-5" d="M395.63,26.26l.78-1.45-3.05-.79,3.94-2.08-2.93,.13,2.51-2.34-1.27-.63,.95-.41-1.3-.3,2.65-.85-2.78-1.94s3.21-.11,2.93-.13c-.28-.03-2.64-4.41-2.64-4.41l4.56,2.78c1.85,3.02,3.47,6.53,4.21,9.93l-8.56,2.51Z"/></g></g><path class="cls-21" d="M452.33,107.2c-13.04,3.07-24.78,4.39-35.22,3.96-10.44-.43-19.13-2.49-26.08-6.2-6.95-3.71-11.78-8.89-14.51-15.53-1.02-2.47-1-4.92,.06-7.35,1.06-2.43,2.79-4.11,5.18-5.05,2.47-1.02,4.9-1.02,7.29,0,2.38,1.02,4.09,2.77,5.11,5.24,1.19,2.81,3.96,5.18,8.31,7.1,4.35,1.92,10.31,2.94,17.9,3.07,7.58,.13,16.79-1.09,27.62-3.64,2.56-.68,4.94-.32,7.16,1.09,2.21,1.41,3.62,3.39,4.22,5.95,.68,2.56,.32,4.94-1.09,7.16-1.41,2.22-3.39,3.62-5.94,4.22Z"/><path class="cls-21" d="M441.84,44.01c-4.77-1.19-9.76-2.09-14.96-2.69-5.2-.6-10.29-.94-15.28-1.02-4.99-.08-9.57,.09-13.74,.51-2.64,.34-4.99-.3-7.03-1.92-2.05-1.62-3.24-3.75-3.58-6.39-.34-2.56,.3-4.9,1.92-7.03,1.62-2.13,3.75-3.32,6.39-3.58,5.2-.43,10.8-.58,16.81-.45,6.01,.13,11.97,.53,17.9,1.21,5.92,.68,11.27,1.66,16.05,2.94,2.56,.6,4.54,2,5.94,4.22,1.41,2.22,1.77,4.6,1.09,7.16-.6,2.56-2.03,4.52-4.28,5.88-2.26,1.36-4.67,1.75-7.22,1.15Z"/></g><g class="cls-26"><path class="cls-20" d="M287.12,115.96c-2.56,0-4.73-.89-6.52-2.68-1.79-1.79-2.68-3.96-2.68-6.52v-21.22c-1.19,1.71-2.35,3.39-3.45,5.05-1.11,1.66-2.22,3.3-3.32,4.92-1.36,2.13-3.39,3.43-6.07,3.9-2.69,.47-5.09-.06-7.22-1.6-2.05-1.53-3.22-3.58-3.52-6.14-.3-2.56,.32-4.9,1.85-7.03,2.64-3.58,5.82-7.97,9.52-13.17,3.71-5.2,7.78-10.53,12.21-15.98v-10.87c-1.62,.6-3.41,1.32-5.37,2.17-1.96,.85-3.96,1.75-6.01,2.69-2.39,1.11-4.79,1.19-7.22,.26-2.43-.94-4.2-2.6-5.31-4.99-1.11-2.47-1.19-4.92-.26-7.35,.94-2.43,2.6-4.2,4.99-5.31,1.62-.77,3.58-1.53,5.88-2.3,2.3-.77,4.62-1.51,6.97-2.24,2.34-.72,4.45-1.34,6.33-1.85V9.21c0-2.56,.89-4.73,2.68-6.52s3.96-2.69,6.52-2.69,4.73,.9,6.52,2.69,2.68,3.96,2.68,6.52V25.95c1.36,.85,2.47,1.88,3.32,3.07,.34,.43,.66,.88,.96,1.34,.3,.47,.53,.96,.7,1.47,4.35-3.32,8.8-6.01,13.36-8.05,4.56-2.05,9.14-3.07,13.74-3.07,11.25,0,20.03,3.6,26.34,10.8,6.31,7.2,9.46,17.41,9.46,30.62,0,7.33-1.02,14.06-3.07,20.2,1.53,1.62,3.02,3.32,4.47,5.11,1.45,1.79,2.81,3.67,4.09,5.62,1.45,2.13,2.02,4.47,1.73,7.03-.3,2.56-1.51,4.65-3.64,6.27-2.13,1.62-4.52,2.24-7.16,1.85-2.64-.38-4.69-1.64-6.14-3.77-.6-.94-1.17-1.79-1.73-2.56-.56-.77-1.13-1.54-1.73-2.3-2.81,2.81-6.03,5.01-9.65,6.58-3.62,1.58-7.61,2.37-11.95,2.37s-8.27-.83-11.76-2.49c-3.5-1.66-6.25-4.05-8.25-7.16-2-3.11-3-6.84-3-11.19,0-4.09,1-7.69,3-10.8,2-3.11,4.73-5.52,8.18-7.22,3.45-1.7,7.39-2.56,11.83-2.56,5.03,0,10.18,1.19,15.47,3.58,.26-1.36,.43-2.77,.51-4.22,.08-1.45,.13-2.9,.13-4.35,0-5.03-.51-9.1-1.53-12.21-1.02-3.11-2.39-5.5-4.09-7.16-1.71-1.66-3.54-2.79-5.5-3.39-1.96-.6-3.92-.9-5.88-.9-3.24,0-6.65,1-10.23,3-3.58,2-7.22,4.73-10.93,8.18-3.71,3.45-7.4,7.31-11.06,11.57v45.51c0,2.56-.89,4.73-2.68,6.52-1.79,1.79-3.96,2.68-6.52,2.68Z"/><g><path class="cls-4" d="M339.44,91.81l-3.19-2.08c-.33-.21-.52-.54-.52-.89v-.51c0-2.7-2.54-4.89-5.68-4.89s-5.68,2.19-5.68,4.89v.51c0,.35-.19,.68-.52,.89l-3.19,2.08c-1.79,1.17-2.7,3.4-2.02,5.47,.66,2,2.51,3.14,4.54,3.34,2.4,.23,4.34-1.3,6.68-1.26,1.78,.03,3.48,.68,5.22,1,1.92,.36,4.11,.03,5.47-1.51,1.95-2.21,1.44-5.36-1.12-7.03h0Z"/><ellipse class="cls-4" cx="341.75" cy="86.96" rx="3.83" ry="3.09" transform="translate(62.19 301.9) rotate(-51.83)"/><ellipse class="cls-4" cx="318.36" cy="86.96" rx="3.09" ry="3.83" transform="translate(14.33 215.34) rotate(-38.17)"/><ellipse class="cls-4" cx="325.05" cy="78.81" rx="3.09" ry="3.86" transform="translate(-7.97 47.69) rotate(-8.29)"/><ellipse class="cls-4" cx="335.06" cy="78.81" rx="3.86" ry="3.09" transform="translate(208.76 399.01) rotate(-81.71)"/><ellipse class="cls-6" cx="322.32" cy="93.69" rx="2.33" ry="1.43" transform="translate(5.98 205.91) rotate(-35.74)"/><ellipse class="cls-6" cx="327.92" cy="86.1" rx="2.17" ry="1.43" transform="translate(11.46 207.76) rotate(-35.74)"/><ellipse class="cls-6" cx="316.55" cy="85.67" rx="1.33" ry=".88" transform="translate(186.13 386.56) rotate(-81.71)"/><ellipse class="cls-6" cx="323.86" cy="77.18" rx="1.33" ry=".98" transform="translate(161.21 367.68) rotate(-74.16)"/><ellipse class="cls-6" cx="334.36" cy="76.71" rx="1.33" ry=".98" transform="translate(59.52 282.01) rotate(-49.68)"/><ellipse class="cls-6" cx="341.75" cy="84.98" rx="1.33" ry=".98" transform="translate(-.18 169.26) rotate(-27.81)"/></g></g><g class="cls-27"><path class="cls-21" d="M133.16,107.52c-2.56,.51-4.9,.04-7.03-1.41-2.13-1.45-3.45-3.45-3.96-6.01-.85-3.92-1.56-8.65-2.11-14.19-.56-5.54-.94-11.51-1.15-17.9-.21-6.39-.24-12.87-.06-19.43,.17-6.56,.53-12.91,1.09-19.05,.55-6.14,1.38-11.68,2.49-16.62,.51-2.56,1.83-4.56,3.96-6.01,2.13-1.45,4.52-1.87,7.16-1.28,2.56,.51,4.52,1.88,5.88,4.09,1.36,2.22,1.75,4.6,1.15,7.16-1.28,6.14-2.22,12.77-2.81,19.88-.6,7.12-.88,14.3-.83,21.54,.04,7.25,.36,14.13,.96,20.65,.6,6.52,1.41,12.29,2.43,17.32,.6,2.56,.19,4.94-1.21,7.16-1.41,2.22-3.39,3.58-5.94,4.09Z"/><path class="cls-21" d="M177.14,109.95c-1.96,1.7-4.26,2.51-6.9,2.43-2.64-.09-4.9-1.07-6.78-2.94-1.88-1.96-2.73-4.26-2.56-6.9,.17-2.64,1.23-4.81,3.2-6.52,4.18-3.75,7.44-7.69,9.78-11.83,2.34-4.13,4.03-9.08,5.05-14.83,1.02-5.75,1.53-12.85,1.53-21.29-3.75,.34-7.39,.7-10.93,1.09-3.54,.38-6.71,.79-9.52,1.21-2.64,.34-5.03-.17-7.16-1.53-2.13-1.36-3.45-3.32-3.96-5.88-.51-2.64-.04-5.05,1.41-7.22,1.45-2.17,3.49-3.43,6.14-3.77,3.07-.43,6.71-.81,10.93-1.15,4.22-.34,8.63-.68,13.23-1.02V13.81c0-2.73,.87-5.01,2.62-6.84,1.75-1.83,3.94-2.75,6.58-2.75s4.86,.92,6.65,2.75c1.79,1.83,2.68,4.11,2.68,6.84v14.96c5.29-.26,9.76-.38,13.43-.38,2.73,0,4.96,.98,6.71,2.94,1.75,1.96,2.54,4.26,2.37,6.9-.09,2.64-1.11,4.79-3.07,6.46s-4.26,2.45-6.9,2.37c-1.88-.17-3.86-.26-5.95-.26s-4.28,.04-6.58,.13c0,8.69-.57,16.83-1.72,24.42-1.15,7.59-3.28,14.6-6.39,21.03-3.11,6.44-7.74,12.3-13.87,17.58Z"/></g><g class="cls-25"><path class="cls-20" d="M54.21,110.21c-1.88-1.71-2.92-3.9-3.13-6.58-.21-2.68,.62-4.96,2.49-6.84,3.24-3.32,6.26-7.24,9.08-11.76,2.81-4.52,5.28-9.25,7.42-14.19-2.81-.68-5.58-1.3-8.31-1.85-2.73-.55-5.41-1-8.05-1.34-5.88,12.7-13.13,21.31-21.73,25.83-3.41,1.79-6.97,2.83-10.68,3.13-3.71,.3-7.18-.19-10.42-1.47-3.24-1.28-5.86-3.37-7.86-6.26-2-2.9-3-6.65-3-11.25,0-5.2,1.47-9.86,4.41-14,2.94-4.13,7.44-7.44,13.49-9.91,6.05-2.47,13.76-3.79,23.14-3.96,.77-2.39,1.53-4.94,2.3-7.67,.77-2.73,1.49-5.67,2.17-8.82,.94-3.66,.7-6.18-.7-7.54-1.41-1.36-3.99-1.75-7.73-1.15-1.62,.26-3.64,.56-6.07,.9-2.43,.34-4.5,.6-6.2,.77-2.64,.17-4.94-.6-6.9-2.3-1.96-1.7-3.03-3.88-3.2-6.52-.17-2.64,.58-4.96,2.24-6.97,1.66-2,3.81-3.09,6.46-3.26,1.36-.08,2.96-.21,4.79-.38,1.83-.17,3.64-.34,5.43-.51,1.79-.17,3.2-.26,4.22-.26,10.4-.68,17.81,1.17,22.25,5.56,4.43,4.39,5.79,11.57,4.09,21.54-.6,3.15-1.24,6.24-1.92,9.27-.68,3.03-1.41,5.9-2.17,8.63,2.56,.34,5.13,.75,7.73,1.21,2.6,.47,5.22,1.04,7.86,1.73,.6-2.47,1.06-4.92,1.41-7.35,.34-2.43,.55-4.75,.64-6.97,.17-2.64,1.09-4.88,2.75-6.71,1.66-1.83,3.81-2.79,6.46-2.88,2.73,0,5.03,.92,6.9,2.75,1.87,1.83,2.73,4.07,2.56,6.71-.26,6.14-1.24,12.62-2.94,19.43,2.3,.77,4.56,1.56,6.78,2.37,2.22,.81,4.39,1.64,6.52,2.49,2.47,1.02,4.2,2.75,5.18,5.18,.98,2.43,1,4.88,.06,7.35-1.02,2.39-2.75,4.11-5.18,5.18-2.43,1.07-4.88,1.04-7.35-.06-1.88-.94-3.79-1.81-5.75-2.62-1.96-.81-3.92-1.6-5.88-2.37-2.64,6.82-5.73,13.15-9.27,18.99-3.54,5.84-7.18,10.55-10.93,14.13-1.88,1.88-4.09,2.9-6.65,3.07-2.56,.17-4.82-.64-6.78-2.43Z"/><g><path class="cls-4" d="M33.78,74.48l-3.68-.99c-.38-.1-.66-.36-.77-.69l-.16-.48c-.84-2.56-3.94-3.85-6.92-2.88-2.98,.98-4.72,3.85-3.88,6.41l.16,.48c.11,.33,.03,.71-.21,1.01l-2.38,2.97c-1.34,1.67-1.51,4.08-.21,5.82,1.25,1.69,3.36,2.21,5.35,1.76,2.35-.53,3.72-2.58,5.96-3.28,1.71-.53,3.52-.44,5.27-.67,1.93-.26,3.92-1.25,4.73-3.13,1.16-2.71-.29-5.54-3.26-6.34h0Z"/><ellipse class="cls-4" cx="34.46" cy="69.15" rx="3.83" ry="3.09" transform="translate(-42.31 77.82) rotate(-69.95)"/><ellipse class="cls-4" cx="12.23" cy="76.43" rx="3.09" ry="3.83" transform="translate(-58.13 44.18) rotate(-56.29)"/><ellipse class="cls-4" cx="16.06" cy="66.6" rx="3.09" ry="3.86" transform="translate(-27.95 14.09) rotate(-26.41)"/><ellipse class="cls-4" cx="25.57" cy="63.49" rx="3.09" ry="3.86" transform="translate(-10.46 5.3) rotate(-9.83)"/><ellipse class="cls-6" cx="18.09" cy="81.59" rx="2.33" ry="1.43" transform="translate(-58.47 48.08) rotate(-53.86)"/><ellipse class="cls-6" cx="21.05" cy="72.64" rx="2.17" ry="1.43" transform="translate(-50.02 46.8) rotate(-53.86)"/><ellipse class="cls-6" cx="10.11" cy="75.77" rx=".88" ry="1.33" transform="translate(-12.79 2.84) rotate(-9.83)"/><ellipse class="cls-6" cx="14.42" cy="65.42" rx=".98" ry="1.33" transform="translate(-2.59 .63) rotate(-2.28)"/><ellipse class="cls-6" cx="24.25" cy="61.71" rx="1.33" ry=".98" transform="translate(-42.05 60.85) rotate(-67.8)"/><ellipse class="cls-6" cx="33.85" cy="67.28" rx="1.33" ry=".98" transform="translate(-38.03 44.8) rotate(-45.93)"/></g></g><g><path class="cls-16" d="M205.21,55.96c-1.12-2.24-2.48-2.48-2.48-2.48l-3.98,4.06c-.05,1.02-.11,2.03-.17,3.03l7.45-.79s.31-1.59-.81-3.83Z"/><path class="cls-16" d="M204.14,61.37l-5.55-1.01c-.09,1.46-.19,2.9-.3,4.34l2.48,2.94s1.49-.63,2.72-2.82c1.23-2.19,.66-3.44,.66-3.44Z"/><g><g><polygon class="cls-15" points="198.86 56.89 179.37 66.64 178.6 71.27 198.58 61.36 198.86 56.89"/><polygon class="cls-15" points="193.78 63.74 198.28 64.64 197.58 70.46 186.89 67.1 193.78 63.74"/><polygon class="cls-15" points="177.99 74.02 196.23 77.36 194.86 82.59 176.98 77.16 177.99 74.02"/><polygon class="cls-15" points="186.1 100.44 181.34 106.04 167.39 92.86 170.17 89.3 186.1 100.44"/><path class="cls-15" d="M180.35,55.69c-.08,1.98-.2,3.87-.36,5.67h9.94l8.94-4.47s0,.57,.09-1.43l-18.61,.23Z"/><path class="cls-15" d="M179.99,61.36c-.1,1.13-.21,2.22-.33,3.28h3.72l6.55-3.28h-9.94Z"/><path class="cls-15" d="M198.28,64.64c.11-1.08,.21-2.17,.29-3.28l-4.8,2.38,4.5,.9Z"/><polygon class="cls-15" points="194.47 69.48 186.89 67.1 178.6 71.27 177.93 74.01 179.39 74.28 194.47 69.48"/><polygon class="cls-15" points="197.1 73.21 188.84 71.27 181.49 73.61 188.24 75.9 196.23 77.36 197.1 73.21"/><polygon class="cls-15" points="194.86 82.59 176.98 77.16 176.46 78.53 183.37 83.14 193.35 86.97 194.86 82.59"/><polygon class="cls-15" points="192.45 89.19 176.46 78.53 174.28 83.53 178.29 86.31 192.45 89.19 192.45 89.19"/><path class="cls-15" d="M192.45,89.19c-.32,.08-19.22-3.9-19.22-3.9l-.46,.67,2.12,2.77,5.54,3.13,9.56,2.58,2.46-5.24Z"/><polygon class="cls-15" points="186.1 100.44 188.74 96.55 174.89 88.73 181.28 97.07 186.1 100.44 186.1 100.44"/><polygon class="cls-15" points="172.77 85.96 170.17 89.3 181.28 97.07 172.77 85.96"/></g><g><line class="cls-16" x1="198.86" y1="56.89" x2="179.37" y2="66.64"/><line class="cls-16" x1="178.6" y1="71.27" x2="198.58" y2="61.36"/><line class="cls-16" x1="193.78" y1="63.74" x2="198.28" y2="64.64"/><line class="cls-16" x1="197.58" y1="70.46" x2="186.89" y2="67.1"/><line class="cls-16" x1="194.86" y1="82.59" x2="176.98" y2="77.16"/><line class="cls-16" x1="177.99" y1="74.02" x2="196.23" y2="77.36"/><line class="cls-16" x1="181.34" y1="106.04" x2="167.39" y2="92.86"/><line class="cls-16" x1="170.17" y1="89.3" x2="186.1" y2="100.44"/><path class="cls-16" d="M198.96,55.46l-18.61,.23"/><path class="cls-29" d="M179.99,61.36h9.94l8.94-4.47"/><path class="cls-16" d="M189.93,61.36h-9.94"/><path class="cls-16" d="M179.66,64.64h3.72"/><line class="cls-29" x1="186.89" y1="67.1" x2="178.6" y2="71.27"/><polyline class="cls-29" points="177.93 74.01 179.39 74.28 194.47 69.48"/><polyline class="cls-29" points="181.49 73.61 188.24 75.9 196.23 77.36"/><line class="cls-29" x1="197.1" y1="73.21" x2="188.84" y2="71.27"/><line class="cls-29" x1="194.86" y1="82.59" x2="176.98" y2="77.16"/><polyline class="cls-29" points="176.46 78.53 183.37 83.14 193.35 86.97"/><polyline class="cls-16" points="192.45 89.19 192.45 89.19 176.46 78.53"/><line class="cls-16" x1="174.28" y1="83.53" x2="178.29" y2="86.31"/><path class="cls-29" d="M192.45,89.19c-.32,.08-19.22-3.9-19.22-3.9"/><polyline class="cls-29" points="172.77 85.96 174.89 88.73 180.43 91.86 189.99 94.43"/><polyline class="cls-16" points="181.28 97.07 186.1 100.44 186.1 100.44"/><line class="cls-16" x1="188.74" y1="96.55" x2="174.89" y2="88.73"/><line class="cls-16" x1="181.28" y1="97.07" x2="172.77" y2="85.96"/></g><path class="cls-29" d="M178.98,69.36c-1.02,5.75-2.71,10.7-5.05,14.83-1.7,2.99-3.88,5.88-6.54,8.67l13.95,13.18c4.11-4.23,7.35-8.78,9.72-13.67,3.11-6.43,5.24-13.44,6.39-21.03,.76-5.04,1.25-10.35,1.51-15.88l-18.61,.23c-.22,5.18-.68,9.74-1.37,13.67Z"/></g></g><g><g><path class="cls-18" d="M189.58,137.47v14.15h0c.05,4.65,18.08,8.41,40.31,8.41s40.26-3.76,40.31-8.41h0v-14.15h-80.62Z"/><path class="cls-22" d="M229.89,158.56c-22.23,0-40.26-3.76-40.31-8.41h0v1.47h0c.05,4.65,18.08,8.41,40.31,8.41s40.26-3.76,40.31-8.41h0v-1.47h0c-.05,4.65-18.07,8.41-40.31,8.41Z"/><path class="cls-14" d="M189.58,126.47v14.15h0c.05,4.65,18.08,8.41,40.31,8.41s40.26-3.76,40.31-8.41h0v-14.15h-80.62Z"/><path class="cls-10" d="M189.58,120.31v10.95h0c.05,4.65,18.08,8.41,40.31,8.41s40.26-3.77,40.31-8.41h0v-10.95h-80.62Z"/><path class="cls-15" d="M272.29,141.14c-.63-1.08-.94-2.33-.95-3.58,0,0,.14-9.42-.03-14.82-.1-3.13-.87-6.5-5.78-8.45-7.22-2.75-20.48-4.59-35.64-4.59s-29.52,2-36.51,4.94c-4.37,1.95-4.91,5.3-4.9,6.63,0,4.71,0,15.3,0,15.3,0,1.65-.41,3.27-1.13,4.75-.38,.78-.32,1.49-.2,1.95,.61,2.51,2.56,2.63,2.56,2.63v-14.61c0-1.37,.8-2.69,2.1-3.11,.41-.13,.85-.17,1.31-.05,1.84,.49,3.71,1.65,3.95,3.86,.25,2.21-.72,5.65,.01,7.67,.54,1.5,2.65,.78,2.93,.17,.75-1.61-.37-4.54,.25-7.11,.61-2.57,3.92-2.33,4.41-.49,.29,1.1,.32,4.86,.3,7.68-.01,1.76-.59,2.49-1.1,4.58-.59,2.4,.87,3.6,1.78,3.68,1,.09,2.37-1.26,2.03-3.11-.31-1.73-.65-3.41-.64-5.16,0-2.03,.12-4.48,.57-5.82,.86-2.57,3.68-2.57,4.9-1.59,1.23,.98,1.29,5.58,4.78,5.21,3.49-.37,1.59-4.84,5.88-4.23,3.91,.56,3.37,7.54,6.5,8.09,3.13,.55,1.96-8.9,6.99-8.46,2.82,.25,2.89,10.19,2.46,11.72-.42,1.51-.86,4.41,1.46,4.22,1.87-.16,1.4-2.65,1.18-4.04-.24-1.53,.12-7.17,.54-8.96,.42-1.81,3-1.72,3.56,.12,.55,1.84,1.68,17.65,1.64,18.58-.12,2.51,3.94,2.13,3.02-.07-.92-2.21-1.11-3.42-1.1-4.53,.01-2.75,.9-8.53,1.16-13.73,.13-2.62,2.68-4.98,4.64-3.73,2.3,1.47,1.8,9.98,1.8,9.98,0,0-1.4,5.53,.62,6.02,2.99,.72,2.32-3.63,1.77-5.65-.55-2.02-.3-9.35,.55-9.75,3.56-1.65,2.04,6.81,5.52,5.7,1.88-.6,1.92-4.18,2.71-6.85,.61-2.08,1.92-.87,1.92-.25l.1,13.33s1.66-.03,2.33-1.87c.16-.45,.2-1.45-.24-2.2Z"/><path class="cls-15" d="M189.58,126.93v19.49c.42,.19,.74,.22,.74,.22v-14.61c0-1.37,.8-2.69,2.09-3.11,.41-.13,.85-.17,1.31-.05,1.84,.49,3.71,1.65,3.95,3.86,.24,2.21-.72,5.65,.01,7.67,.54,1.5,2.65,.78,2.93,.17,.75-1.61-.37-4.54,.25-7.11,.61-2.57,3.92-2.33,4.41-.49,.29,1.1,.32,4.86,.3,7.68-.01,1.76-.59,2.49-1.1,4.58-.59,2.4,.87,3.6,1.78,3.68,1,.09,2.37-1.26,2.03-3.11-.31-1.73-.65-3.41-.64-5.16,0-2.03,.12-4.47,.57-5.82,.86-2.57,3.68-2.57,4.9-1.59,1.23,.98,1.29,5.58,4.78,5.21,3.49-.37,1.59-4.84,5.88-4.23,3.91,.56,3.37,7.54,6.5,8.09,3.13,.55,1.96-8.9,6.99-8.46,2.82,.25,2.89,10.19,2.46,11.72-.42,1.51-.86,4.41,1.46,4.22,1.87-.16,1.4-2.65,1.18-4.04-.25-1.53,.12-7.17,.54-8.96,.42-1.81,3-1.72,3.55,.12,.55,1.84,1.68,17.65,1.63,18.58-.12,2.51,3.94,2.13,3.02-.07-.92-2.21-1.11-3.42-1.1-4.54,0-2.75,.9-8.53,1.16-13.73,.13-2.62,2.68-4.98,4.64-3.73,2.3,1.47,1.8,9.98,1.8,9.98,0,0-1.4,5.53,.62,6.02,2.99,.72,2.32-3.63,1.77-5.65-.55-2.02-.3-9.35,.55-9.75,3.55-1.65,2.04,6.81,5.52,5.7,1.88-.6,1.92-4.18,2.71-6.85,.37-1.25,.98-1.3,1.41-1.02v-11.53h-80.62v6.62Z"/><path class="cls-19" d="M213.19,142.24c0-.71-.58-1.29-1.29-1.29s-1.29,.58-1.29,1.29,.58,1.29,1.29,1.29,1.29-.58,1.29-1.29Z"/><path class="cls-19" d="M220.91,145.55c0-.61-.49-1.1-1.1-1.1s-1.1,.49-1.1,1.1,.49,1.1,1.1,1.1,1.1-.49,1.1-1.1Z"/><circle class="cls-19" cx="232.13" cy="143.89" r="1.84"/><path class="cls-19" d="M199.95,143.89c0-.51-.41-.92-.92-.92s-.92,.41-.92,.92,.41,.92,.92,.92,.92-.41,.92-.92Z"/><path class="cls-7" d="M210.07,154.37c0-.41-.33-.74-.74-.74s-.74,.33-.74,.74,.33,.74,.74,.74,.74-.33,.74-.74Z"/><path class="cls-7" d="M218.52,153.27c0-.61-.49-1.1-1.1-1.1s-1.1,.49-1.1,1.1,.49,1.1,1.1,1.1,1.1-.49,1.1-1.1Z"/><path class="cls-7" d="M228.64,157.5c0-.61-.49-1.1-1.1-1.1s-1.1,.49-1.1,1.1,.49,1.1,1.1,1.1,1.1-.49,1.1-1.1Z"/><path class="cls-7" d="M194.8,151.98c0-.41-.33-.74-.74-.74s-.74,.33-.74,.74,.33,.74,.74,.74,.74-.33,.74-.74Z"/><path class="cls-7" d="M244.08,153.64c0-.51-.41-.92-.92-.92s-.92,.41-.92,.92,.41,.92,.92,.92,.92-.41,.92-.92Z"/><path class="cls-7" d="M265.23,149.96c0-.61-.49-1.1-1.1-1.1s-1.1,.49-1.1,1.1,.49,1.1,1.1,1.1,1.1-.49,1.1-1.1Z"/><path class="cls-7" d="M261.46,154.37c0-.46-.37-.83-.83-.83s-.83,.37-.83,.83,.37,.83,.83,.83,.83-.37,.83-.83Z"/><path class="cls-7" d="M257.32,153.27c0-.71-.58-1.29-1.29-1.29s-1.29,.58-1.29,1.29,.58,1.29,1.29,1.29,1.29-.58,1.29-1.29Z"/><g><path class="cls-15" d="M272.29,141.14c-.63-1.08-.94-2.33-.95-3.58,0,0,.14-9.42-.03-14.82-.1-3.13-.87-6.5-5.78-8.45-7.22-2.75-20.48-4.59-35.64-4.59s-29.52,2-36.51,4.94c-4.37,1.95-4.91,5.3-4.9,6.63,0,4.71,0,15.3,0,15.3,0,1.65-.41,3.27-1.13,4.75-.38,.78-.32,1.49-.2,1.95,.61,2.51,2.56,2.63,2.56,2.63v-14.61c0-1.37,.8-2.69,2.1-3.11,.41-.13,4.38-1.02,5.26,3.81,.4,2.19-.72,5.65,.01,7.67,.54,1.5,2.65,.78,2.93,.17,.75-1.61-.37-4.54,.25-7.11,.61-2.57,3.92-2.33,4.41-.49,.29,1.1,.32,4.86,.3,7.68-.01,1.76-.59,2.49-1.1,4.58-.59,2.4,.87,3.6,1.78,3.68,1,.09,2.37-1.26,2.03-3.11-.31-1.73-.65-3.41-.64-5.16,0-2.03,.12-4.48,.57-5.82,.86-2.57,3.68-2.57,4.9-1.59,1.23,.98,1.29,5.58,4.78,5.21,3.49-.37,1.59-4.84,5.88-4.23,3.91,.56,3.37,7.54,6.5,8.09,3.13,.55,1.96-8.9,6.99-8.46,2.82,.25,2.89,10.19,2.46,11.72-.42,1.51-.86,4.41,1.46,4.22,1.87-.16,1.4-2.65,1.18-4.04-.24-1.53,.12-7.17,.54-8.96,.42-1.81,3-1.72,3.56,.12,.55,1.84,1.68,17.65,1.64,18.58-.12,2.51,3.94,2.13,3.02-.07-.92-2.21-1.11-3.42-1.1-4.53,.01-2.75,.9-8.53,1.16-13.73,.13-2.62,2.68-4.98,4.64-3.73,2.3,1.47,1.8,9.98,1.8,9.98,0,0-1.4,5.53,.62,6.02,2.99,.72,2.32-3.63,1.77-5.65-.55-2.02-.3-9.35,.55-9.75,3.56-1.65,2.04,6.81,5.52,5.7,1.88-.6,1.92-4.18,2.71-6.85,.61-2.08,1.92-.87,1.92-.25l.1,13.33s1.66-.03,2.33-1.87c.16-.45,.2-1.45-.24-2.2Z"/><path class="cls-10" d="M268.35,118.56c0,4.8-17.22,8.69-38.46,8.69s-38.46-3.89-38.46-8.69,17.22-8.69,38.46-8.69,38.46,3.89,38.46,8.69Z"/><g class="cls-2"><path class="cls-10" d="M228.19,127.42c-17.08-.06-31.33-2.22-35.71-6.05-.55-.49-1.32-1.23-1.65-2.27-.4-1.24-.55-1.75-1.01-.58-.16,.41-.07,1.24-.03,1.53,.8,5.61,16.95,8.42,37.95,7.91,2.24-.19,3.33-.54,.46-.54Z"/></g><path class="cls-10" d="M188.17,141.85c-.04-.34-.47-.18-.53,.06-.18,.71-.1,1.3,.34,1.9,.24,.33,1.11,.38,.78-.41-.21-.49-.53-1.02-.59-1.55Z"/><path class="cls-10" d="M198.53,131.11c-.27-1.25-.78-2.31-1.75-3.13-2.14-1.81-4.46-1.53-6.64,.09-.29,.21,.04,.42,.35,.23,3.03-1.92,6.34-.29,7.08,2.9,.44,1.89-.84,6.45,.4,8.09,.37,.49,1.3-.09,.75-1.33-.83-1.87,.24-4.84-.18-6.85Z"/><path class="cls-10" d="M205.4,144.27c-.04-.36-.33-.53-.54-.23-.5,.71-.92,2.5,.27,2.8,.24,.06,.51-.24,.53-.47,.05-.71-.19-1.49-.26-2.1Z"/><path class="cls-10" d="M217.89,135.12c-2.27-.59-2.25-3.12-4.16-4.2-1.15-.65-2.31-.68-3.63,0-.29,.15-.22,.45,.08,.33,1.12-.43,2.42-.11,3.26,.68,.69,.65,1.01,1.84,1.49,2.63,.61,.99,1.6,1.91,2.83,1.52,.4-.13,.68-.81,.13-.96Z"/><path class="cls-10" d="M202.26,129.71c-.19,.09-.13,.49,.13,.47,.76-.07,1.55,.01,2.11,.58,.51,.52,.73,1.17,.99,1.83,.14,.35,.68,.15,.71-.17,.15-1.92-1.76-3.69-3.93-2.7Z"/><path class="cls-10" d="M229.82,139.39c-.46-.26-1.64-2.99-1.86-3.47-.32-.72-.68-1.5-1.13-2.15-.79-1.13-1.79-1.61-3.13-1.41-.29,.04-.19,.22,.15,.24,3.13,.22,3.37,6.46,5.3,7.6,1.01,.6,1.29-.48,.67-.82Z"/><path class="cls-10" d="M237.1,132.15c-.31-.08-.57,.12-.24,.24,1.25,.49,2.09,1.73,2.33,3.01,.1,.52,.79,.45,.76,0-.11-1.69-1.27-2.83-2.85-3.25Z"/><path class="cls-10" d="M240.56,145.88c-.16-.45-.58-.49-.84-.11-.31,.47-.56,.98-.37,1.55,.17,.49,.64,.88,1.12,.64,.48-.24,.21-1.72,.09-2.08Z"/></g></g><path class="cls-18" d="M199.88,106.22v10.53h0c.04,3.46,13.45,6.26,30,6.26s29.96-2.8,30-6.26h0v-10.53h-60Z"/><path class="cls-14" d="M199.88,96.36v10.53h0c.04,3.46,13.45,6.26,30,6.26s29.96-2.8,30-6.26h0v-10.53h-60Z"/><path class="cls-10" d="M199.88,87.75v9.72h0c.04,3.46,13.45,6.26,30,6.26s29.96-2.8,30-6.26h0v-9.72h-60Z"/><path class="cls-15" d="M199.88,87.75v18.42h.37v-6.96c0-.39,.06-.76,.17-1.12,.45-1.42,2.38-1.67,3.27-.48,.64,.86,.8,1.29,1.03,2.68,.29,1.77,.44,3.82,.37,4.32-.12,.86-1.13,3.13,.41,3.49,1.38,.32,1.21-1.9,.97-3.13-.24-1.23,.83-4.99,2.21-5.01,2.71-.05,2.16,4.69,3.36,4.96,1.2,.28,2.19-4.47,4.21-4.38,2.02,.09,1.96,2.21,4.54,2.39,1.81,.13,2.55-3.74,5.27-1.59,1.87,1.47,3.31,7.29,2.94,8.89-.37,1.59-1.23,4.41,.61,4.47,1.84,.06,1.66-1.9,1.23-4.11-.43-2.21,.12-5.09,3.13-5.27,3.75-.23,4.11,7.97,3.74,9.93-.37,1.96,.49,3.55,1.84,2.57,1.35-.98,.09-2.01,0-2.94-.12-1.23-.49-12.63,2.33-12.5,2.82,.12,2.02,3.31,4.96,2.94,1.92-.24,3-8.7,5.33-6.99,2.33,1.72,2.66,10.28,2.33,11.15-.18,.49-1.04,3.62,.8,3.62,1.96,0,1.23-2.14,.8-3.74-.41-1.54,.51-12.04,1.96-13,1.01-.66,1.54,.04,1.83,.88v-9.51h-60Z"/><path class="cls-19" d="M224.04,108.58c0-.91-.74-1.65-1.65-1.65s-1.65,.74-1.65,1.65,.74,1.65,1.65,1.65,1.65-.74,1.65-1.65Z"/><path class="cls-19" d="M213.01,106.56c0-.41-.33-.74-.74-.74s-.74,.33-.74,.74,.33,.74,.74,.74,.74-.33,.74-.74Z"/><path class="cls-19" d="M216.32,110.06c0-.41-.33-.74-.74-.74s-.74,.33-.74,.74,.33,.74,.74,.74,.74-.33,.74-.74Z"/><path class="cls-19" d="M247.95,107.85c0-.61-.49-1.1-1.1-1.1s-1.1,.49-1.1,1.1,.49,1.1,1.1,1.1,1.1-.49,1.1-1.1Z"/><path class="cls-7" d="M245.56,115.76c0-.51-.41-.92-.92-.92s-.92,.41-.92,.92,.41,.92,.92,.92,.92-.41,.92-.92Z"/><path class="cls-7" d="M254.01,117.78c0-.51-.41-.92-.92-.92s-.92,.41-.92,.92,.41,.92,.92,.92,.92-.41,.92-.92Z"/><path class="cls-7" d="M249.23,118.7c0-.3-.25-.55-.55-.55s-.55,.25-.55,.55,.25,.55,.55,.55,.55-.25,.55-.55Z"/><path class="cls-7" d="M206.94,115.02c0-.51-.41-.92-.92-.92s-.92,.41-.92,.92,.41,.92,.92,.92,.92-.41,.92-.92Z"/><path class="cls-7" d="M210.99,118.33c0-.3-.25-.55-.55-.55s-.55,.25-.55,.55,.25,.55,.55,.55,.55-.25,.55-.55Z"/><path class="cls-7" d="M220,118.33c0-.51-.41-.92-.92-.92s-.92,.41-.92,.92,.41,.92,.92,.92,.92-.41,.92-.92Z"/><g><path class="cls-15" d="M262.66,106.62c-.06-.22-.25-.63-.47-1.06-.62-1.2-.95-2.52-.96-3.86l-.09-9.45h0s0-1.61-.02-2.15c-.05-1.47,.22-3.61-1.92-5.1-4.38-2.7-15.85-4.63-29.32-4.63s-25.3,1.99-29.52,4.76c-1.7,1.2-1.74,3.47-1.71,4.73,.01,.74-.02,2.39-.02,2.39h0s0,0,0,.01l-.04,7.69c0,1.04-.28,2.06-.75,2.99-.21,.42-.35,.83-.29,1.08,.64,2.97,2.33,1.98,2.33,1.98v-7.65c0-.39,.06-.76,.17-1.12,.45-1.42,2.38-1.67,3.27-.48,.64,.86,.8,1.29,1.03,2.68,.29,1.77,.44,3.82,.37,4.32-.12,.86-1.13,3.13,.41,3.49,1.38,.32,1.21-1.9,.97-3.13-.25-1.23,.83-4.99,2.21-5.01,2.71-.05,2.16,4.69,3.36,4.96,1.2,.28,2.19-4.48,4.21-4.38,2.02,.09,1.96,2.21,4.54,2.39,1.81,.13,2.55-3.73,5.27-1.59,1.87,1.47,3.31,7.29,2.94,8.89-.37,1.59-1.23,4.41,.61,4.47,1.84,.06,1.66-1.9,1.23-4.11-.43-2.21,.12-5.09,3.13-5.27,3.75-.23,4.11,7.97,3.74,9.93-.37,1.96,.49,3.56,1.84,2.57,1.35-.98,.09-2.01,0-2.94-.12-1.23-.49-12.63,2.33-12.5,2.82,.12,2.02,3.31,4.96,2.94,1.92-.24,3-8.7,5.33-6.99,2.33,1.72,2.66,10.28,2.33,11.16-.18,.49-1.04,3.62,.8,3.62,1.96,0,1.23-2.14,.8-3.74-.41-1.54,.51-12.04,1.96-12.99,1.95-1.29,2.15,2.57,2.15,2.57v9.19s.49,2.24,1.87,1.5c.62-.33,1.23-1.13,.95-2.17Z"/><g class="cls-31"><path class="cls-10" d="M230.22,93.49c-13.54-.04-25.18-2.13-28.3-5.01-.43-.4-.89-.95-.98-1.59-.14-1.02-.87-1.27-1.35-.21-.1,.23-.17,.76-.16,1,.16,4.52,13.78,6.65,30.42,6.25,1.78-.15,2.64-.43,.37-.43Z"/></g><path class="cls-10" d="M205.42,105.27c-.02-.27-.34-.26-.5-.14-.41,.29-.51,.87-.12,1.22,.28,.25,.73,.02,.69-.36-.03-.24-.06-.47-.07-.71Z"/><path class="cls-10" d="M198.78,103.32c-.02-.27-.34-.26-.5-.14-.41,.29-.51,.87-.12,1.22,.28,.24,.73,.02,.69-.36-.03-.24-.06-.47-.07-.71Z"/><path class="cls-10" d="M203.91,95.17c-1.16-.74-2.96-.77-3.8,.47-.18,.27,.07,.28,.3,.11,1.21-.89,2.77-.36,3.61,.74,.71,.92,1.13,2.32,1.1,3.95,0,.45,.42-.71,.44-1.47,.02-1.47-.22-2.89-1.65-3.8Z"/><path class="cls-10" d="M211.05,99.3c-.37-.55-1.07-1.24-2.13-1.24-.2,0-.37,.23-.11,.32,1.06,.39,1.39,.82,1.79,1.68,.4,.86,.45,1.66,.8,2.69,.15,.43,.66,.18,.66-.41,0-1.11-.39-2.1-1.01-3.03Z"/><path class="cls-10" d="M220.06,100.79c-1.02-.1-1.8-1.44-2.39-1.79-.54-.32-1.34-.4-1.93-.25-.32,.08-.21,.29,.14,.23,.54-.09,1.32,.58,1.66,.92,.36,.36,1.41,1.62,2.28,1.65,1.08,.05,.99-.69,.25-.76Z"/><path class="cls-10" d="M225.38,99.18c-.35-.05-.59,.13-.17,.26,2.26,.69,3.22,3.24,3.62,5.39,.1,.51,.21,.05,.21-.4,.02-2.51-1.01-4.85-3.65-5.24Z"/><path class="cls-10" d="M229.73,111.1c-.02-.26-.36-.23-.48-.07-.32,.46-.49,1-.18,1.51,.27,.42,.91,.16,.86-.33-.04-.38-.18-.73-.2-1.12Z"/><path class="cls-10" d="M238.74,115.39c-.07-.19-.21-.33-.36-.47-.17-.17-.46-.11-.58,.11-.18,.34-.21,.6-.05,1.03,.27,.72,1.34,.31,.98-.67Z"/></g><path class="cls-10" d="M258.18,86.79c0,3.53-12.67,6.39-28.3,6.39s-28.29-2.86-28.29-6.39,12.67-6.39,28.29-6.39,28.3,2.86,28.3,6.39Z"/><path class="cls-15" d="M189.75,117.87s.55,1.75,2.02,2.39c1.47,.64,2.3,.18,2.85,.64,.55,.46,2.67,1.29,2.67,1.29,1.39-.16,.18,.92,2.85,1.93,1.15,.44,3.59,.09,4.69,.37s3.86-.46,4.6-.37c.74,.09,1.56,1.93,3.59,2.57,2.02,.64,4.05-.92,5.79-.83,1.38,.07,3.13-.09,4.6,.09,1.47,.18,2.87,1.53,4.79,1.46,1.92-.08,7.34,.29,8.36-.26,1.01-.55,1.2-1.65,2.48-1.29,1.29,.37,4.14,.83,5.42,.74,1.29-.09,3.13-1.38,3.95-1.1,.83,.28,6.34,.37,7.82-.37,1.47-.74,1.93-3.49,3.03-3.22,1.1,.28,5.33,0,6.16-.83,.83-.83,2.21-.83,3.03-2.02,.83-1.2-.23-2.05-.23-2.05l-20.82,3.52-20.78,2.11-14.43-1.29-16.46-3.03-5.98-.46Z"/><path class="cls-15" d="M225.55,111.71s-.05-.03-.08-.05c.03,.01,.05,.03,.08,.05h0Z"/><g><polygon class="cls-13" points="229.27 73.65 228.33 73.65 228.33 89.57 229.27 89.57 229.79 89.57 231.94 89.57 231.94 73.65 229.27 73.65"/><g><path class="cls-15" d="M228.33,87.78c.95,.46,2.18,.91,3.61,1.13v-2c-1.44-.25-2.67-.73-3.61-1.19v2.07Z"/><path class="cls-13" d="M228.33,85.71c.93,.47,2.17,.95,3.61,1.19v-2.01c-1.46-.28-2.7-.79-3.61-1.27v2.08Z"/><path class="cls-13" d="M228.33,89.57h3.61v-.67c-1.42-.22-2.65-.67-3.61-1.13v1.79Z"/><path class="cls-15" d="M228.33,83.62c.91,.48,2.14,.99,3.61,1.27v-2.02c-1.48-.31-2.72-.85-3.61-1.33v2.08Z"/><path class="cls-13" d="M231.94,73.65h-2.78c.71,.39,1.66,.82,2.78,1.14v-1.14Z"/><path class="cls-15" d="M229.16,73.65h-.82v1.62c.77,.47,2.02,1.13,3.61,1.55v-2.03c-1.12-.32-2.07-.75-2.78-1.14Z"/><path class="cls-13" d="M228.33,77.36c.82,.48,2.06,1.1,3.61,1.48v-2.03c-1.58-.42-2.84-1.07-3.61-1.55v2.1Z"/><path class="cls-13" d="M228.33,81.54c.88,.48,2.13,1.02,3.61,1.33v-2.02c-1.51-.34-2.75-.92-3.61-1.4v2.09Z"/><path class="cls-15" d="M228.33,79.45c.85,.48,2.1,1.06,3.61,1.4v-2.02c-1.54-.38-2.79-1-3.61-1.48v2.09Z"/></g><path class="cls-12" d="M228.33,73.65c0,.13,.81,.23,1.8,.23s1.8-.1,1.8-.23-.81-.23-1.8-.23-1.8,.1-1.8,.23Z"/><path class="cls-13" d="M229.27,73.65c0,.06,.39,.11,.87,.11s.87-.05,.87-.11-.39-.11-.87-.11-.87,.05-.87,.11Z"/><g><path class="cls-17" d="M230.01,65.76c.07-.07,.19-.07,.26,0,2,2.17,2.5,6.65-.13,6.65s-2.13-4.49-.13-6.65Z"/><path class="cls-9" d="M230.04,68.19c.05-.06,.14-.06,.2,0,1.26,1.39,1.57,4.22-.1,4.22s-1.36-2.83-.1-4.22Z"/><path class="cls-15" d="M230.07,69.33s.1-.04,.14,0c.92,1.01,1.14,3.08-.07,3.08s-.99-2.07-.07-3.08Z"/><path class="cls-15" d="M230.03,71.72l-.06,1.8c0,.09,.07,.17,.16,.17,.09,0,.17-.07,.17-.16,0,0,0,0,0-.01l-.06-1.8c0-.06-.05-.1-.11-.1-.06,0-.1,.05-.1,.1Z"/></g></g><g><polygon class="cls-13" points="216.87 70.22 215.93 70.22 215.93 86.15 216.87 86.15 217.39 86.15 219.54 86.15 219.54 70.22 216.87 70.22"/><g><path class="cls-15" d="M215.93,84.35c.95,.46,2.18,.91,3.61,1.13v-2c-1.44-.25-2.67-.73-3.61-1.19v2.07Z"/><path class="cls-14" d="M215.93,82.28c.93,.47,2.17,.95,3.61,1.19v-2.01c-1.46-.28-2.7-.79-3.61-1.27v2.08Z"/><path class="cls-14" d="M215.93,86.15h3.61v-.67c-1.42-.22-2.65-.67-3.61-1.13v1.79Z"/><path class="cls-15" d="M215.93,80.2c.91,.48,2.14,.99,3.61,1.27v-2.02c-1.48-.31-2.72-.85-3.61-1.33v2.08Z"/><path class="cls-14" d="M219.54,70.22h-2.78c.71,.39,1.66,.82,2.78,1.14v-1.14Z"/><path class="cls-15" d="M216.75,70.22h-.82v1.62c.77,.47,2.02,1.13,3.61,1.55v-2.03c-1.12-.32-2.07-.75-2.78-1.14Z"/><path class="cls-14" d="M215.93,73.93c.82,.48,2.06,1.1,3.61,1.48v-2.03c-1.58-.42-2.84-1.07-3.61-1.55v2.1Z"/><path class="cls-14" d="M215.93,78.12c.88,.48,2.13,1.02,3.61,1.33v-2.02c-1.51-.34-2.75-.92-3.61-1.4v2.09Z"/><path class="cls-15" d="M215.93,76.03c.85,.48,2.1,1.06,3.61,1.4v-2.02c-1.54-.38-2.79-1-3.61-1.48v2.09Z"/></g><ellipse class="cls-19" cx="217.73" cy="70.22" rx="1.8" ry=".23"/><path class="cls-14" d="M216.87,70.22c0,.06,.39,.11,.87,.11s.87-.05,.87-.11-.39-.11-.87-.11-.87,.05-.87,.11Z"/><g><path class="cls-17" d="M217.6,62.34c.07-.07,.19-.07,.26,0,2,2.17,2.5,6.65-.13,6.65s-2.13-4.49-.13-6.65Z"/><path class="cls-9" d="M217.64,64.77c.05-.06,.14-.06,.2,0,1.26,1.39,1.57,4.22-.1,4.22s-1.36-2.83-.1-4.22Z"/><path class="cls-15" d="M217.66,65.91s.1-.04,.14,0c.92,1.01,1.14,3.08-.07,3.08s-.99-2.07-.07-3.08Z"/><path class="cls-15" d="M217.63,68.29l-.06,1.8c0,.09,.07,.17,.16,.17s.17-.07,.17-.16c0,0,0,0,0-.01l-.06-1.8c0-.06-.05-.1-.11-.1-.06,0-.1,.05-.1,.1Z"/></g></g><g><polygon class="cls-13" points="242.85 70.22 241.91 70.22 241.91 86.15 242.85 86.15 243.37 86.15 245.52 86.15 245.52 70.22 242.85 70.22"/><g><path class="cls-15" d="M241.91,84.35c.95,.46,2.18,.91,3.61,1.13v-2c-1.44-.25-2.67-.73-3.61-1.19v2.07Z"/><path class="cls-18" d="M241.91,82.28c.93,.47,2.17,.95,3.61,1.19v-2.01c-1.46-.28-2.7-.79-3.61-1.27v2.08Z"/><path class="cls-18" d="M241.91,86.15h3.61v-.67c-1.42-.22-2.65-.67-3.61-1.13v1.79Z"/><path class="cls-15" d="M241.91,80.2c.91,.48,2.14,.99,3.61,1.27v-2.02c-1.48-.31-2.72-.85-3.61-1.33v2.08Z"/><path class="cls-18" d="M245.52,70.22h-2.78c.71,.39,1.66,.82,2.78,1.14v-1.14Z"/><path class="cls-15" d="M242.74,70.22h-.82v1.62c.77,.47,2.02,1.13,3.61,1.55v-2.03c-1.12-.32-2.07-.75-2.78-1.14Z"/><path class="cls-18" d="M241.91,73.93c.82,.48,2.06,1.1,3.61,1.48v-2.03c-1.58-.42-2.84-1.07-3.61-1.55v2.1Z"/><path class="cls-18" d="M241.91,78.12c.88,.48,2.13,1.02,3.61,1.33v-2.02c-1.51-.34-2.75-.92-3.61-1.4v2.09Z"/><path class="cls-15" d="M241.91,76.03c.85,.48,2.1,1.06,3.61,1.4v-2.02c-1.54-.38-2.79-1-3.61-1.48v2.09Z"/></g><ellipse class="cls-7" cx="243.72" cy="70.22" rx="1.8" ry=".23"/><path class="cls-18" d="M242.85,70.22c0,.06,.39,.11,.87,.11s.87-.05,.87-.11-.39-.11-.87-.11-.87,.05-.87,.11Z"/><g><path class="cls-17" d="M243.59,62.34c.07-.07,.19-.07,.26,0,2,2.17,2.5,6.65-.13,6.65s-2.13-4.49-.13-6.65Z"/><path class="cls-9" d="M243.62,64.77c.05-.06,.14-.06,.2,0,1.26,1.39,1.57,4.22-.1,4.22s-1.36-2.83-.1-4.22Z"/><path class="cls-15" d="M243.64,65.91s.1-.04,.14,0c.92,1.01,1.14,3.08-.07,3.08s-.99-2.07-.07-3.08Z"/><path class="cls-15" d="M243.61,68.29l-.06,1.8c0,.09,.07,.17,.16,.17s.17-.07,.17-.16c0,0,0,0,0-.01l-.06-1.8c0-.06-.05-.1-.11-.1-.06,0-.1,.05-.1,.1Z"/></g></g></g><g><g id="Layer_9"><path class="cls-11" d="M8.51,137.98c-1.42,.35-3.69,2.03-4.76,4.45s-.88,4.84,.42,5.37,3.57-1.34,5.03-1.11,3.38,1.65,5.14,1.04,.5-5.37-.77-7.29c-1.34-1.92-2.8-2.99-5.07-2.46h0Z"/><path class="cls-11" d="M17.8,136.1c-.73-.61-2-.23-2.84,.88-.84,1.11-.92,2.53-.15,3.15,.73,.65,2.03,.27,2.88-.84,.81-1.11,.88-2.53,.12-3.19Z"/><path class="cls-11" d="M6.93,136.98c1.23-.35,1.8-2.07,1.27-3.84-.54-1.77-1.92-2.92-3.11-2.57s-1.77,2.07-1.23,3.84c.54,1.77,1.84,2.92,3.07,2.57h0Z"/><path class="cls-11" d="M3.36,136.94c-.84-1.07-2.19-1.42-2.88-.81-.69,.61-.65,2,.19,3.07,.84,1.07,2.11,1.46,2.88,.84,.73-.61,.65-2.03-.19-3.11Z"/><path class="cls-11" d="M14.38,134.29c.38-1.8-.31-3.53-1.54-3.84s-2.53,.88-2.92,2.69c-.35,1.8,.27,3.49,1.5,3.84,1.19,.31,2.53-.88,2.96-2.69h0Z"/></g><g id="Layer_9-2"><path class="cls-21" d="M34.47,144.33c-1.42,.35-3.69,2.03-4.76,4.45s-.88,4.84,.42,5.37,3.57-1.34,5.03-1.11,3.38,1.65,5.14,1.04,.5-5.37-.77-7.29c-1.34-1.92-2.8-2.99-5.07-2.46h0Z"/><path class="cls-21" d="M43.76,142.45c-.73-.61-2-.23-2.84,.88-.84,1.11-.92,2.53-.15,3.15,.73,.65,2.03,.27,2.88-.84,.81-1.11,.88-2.53,.12-3.19Z"/><path class="cls-21" d="M32.9,143.33c1.23-.35,1.8-2.07,1.27-3.84-.54-1.77-1.92-2.92-3.11-2.57s-1.77,2.07-1.23,3.84c.54,1.77,1.84,2.92,3.07,2.57h0Z"/><path class="cls-21" d="M29.33,143.29c-.84-1.07-2.19-1.42-2.88-.81-.69,.61-.65,2,.19,3.07,.84,1.07,2.11,1.46,2.88,.84,.73-.61,.65-2.03-.19-3.11Z"/><path class="cls-21" d="M40.35,140.64c.38-1.8-.31-3.53-1.54-3.84s-2.53,.88-2.92,2.69c-.35,1.8,.27,3.49,1.5,3.84,1.19,.31,2.53-.88,2.96-2.69h0Z"/></g><g id="Layer_9-3"><path class="cls-11" d="M60.44,137.98c-1.42,.35-3.69,2.03-4.76,4.45s-.88,4.84,.42,5.37,3.57-1.34,5.03-1.11,3.38,1.65,5.14,1.04,.5-5.37-.77-7.29c-1.34-1.92-2.8-2.99-5.07-2.46h0Z"/><path class="cls-11" d="M69.73,136.1c-.73-.61-2-.23-2.84,.88-.84,1.11-.92,2.53-.15,3.15,.73,.65,2.03,.27,2.88-.84,.81-1.11,.88-2.53,.12-3.19Z"/><path class="cls-11" d="M58.87,136.98c1.23-.35,1.8-2.07,1.27-3.84-.54-1.77-1.92-2.92-3.11-2.57s-1.77,2.07-1.23,3.84c.54,1.77,1.84,2.92,3.07,2.57h0Z"/><path class="cls-11" d="M55.3,136.94c-.84-1.07-2.19-1.42-2.88-.81-.69,.61-.65,2,.19,3.07,.84,1.07,2.11,1.46,2.88,.84,.73-.61,.65-2.03-.19-3.11Z"/><path class="cls-11" d="M66.31,134.29c.38-1.8-.31-3.53-1.54-3.84s-2.53,.88-2.92,2.69c-.35,1.8,.27,3.49,1.5,3.84,1.19,.31,2.53-.88,2.96-2.69h0Z"/></g><g id="Layer_9-4"><path class="cls-21" d="M86.41,144.33c-1.42,.35-3.69,2.03-4.76,4.45s-.88,4.84,.42,5.37,3.57-1.34,5.03-1.11,3.38,1.65,5.14,1.04,.5-5.37-.77-7.29c-1.34-1.92-2.8-2.99-5.07-2.46h0Z"/><path class="cls-21" d="M95.7,142.45c-.73-.61-2-.23-2.84,.88-.84,1.11-.92,2.53-.15,3.15,.73,.65,2.03,.27,2.88-.84,.81-1.11,.88-2.53,.12-3.19Z"/><path class="cls-21" d="M84.84,143.33c1.23-.35,1.8-2.07,1.27-3.84-.54-1.77-1.92-2.92-3.11-2.57s-1.77,2.07-1.23,3.84c.54,1.77,1.84,2.92,3.07,2.57h0Z"/><path class="cls-21" d="M81.27,143.29c-.84-1.07-2.19-1.42-2.88-.81-.69,.61-.65,2,.19,3.07,.84,1.07,2.11,1.46,2.88,.84,.73-.61,.65-2.03-.19-3.11Z"/><path class="cls-21" d="M92.28,140.64c.38-1.8-.31-3.53-1.54-3.84s-2.53,.88-2.92,2.69c-.35,1.8,.27,3.49,1.5,3.84,1.19,.31,2.53-.88,2.96-2.69h0Z"/></g><g id="Layer_9-5"><path class="cls-11" d="M112.38,137.98c-1.42,.35-3.69,2.03-4.76,4.45s-.88,4.84,.42,5.37,3.57-1.34,5.03-1.11,3.38,1.65,5.14,1.04,.5-5.37-.77-7.29c-1.34-1.92-2.8-2.99-5.07-2.46h0Z"/><path class="cls-11" d="M121.67,136.1c-.73-.61-2-.23-2.84,.88-.84,1.11-.92,2.53-.15,3.15,.73,.65,2.03,.27,2.88-.84,.81-1.11,.88-2.53,.12-3.19Z"/><path class="cls-11" d="M110.8,136.98c1.23-.35,1.8-2.07,1.27-3.84-.54-1.77-1.92-2.92-3.11-2.57s-1.77,2.07-1.23,3.84c.54,1.77,1.84,2.92,3.07,2.57h0Z"/><path class="cls-11" d="M107.23,136.94c-.84-1.07-2.19-1.42-2.88-.81-.69,.61-.65,2,.19,3.07,.84,1.07,2.11,1.46,2.88,.84,.73-.61,.65-2.03-.19-3.11Z"/><path class="cls-11" d="M118.25,134.29c.38-1.8-.31-3.53-1.54-3.84s-2.53,.88-2.92,2.69c-.35,1.8,.27,3.49,1.5,3.84,1.19,.31,2.53-.88,2.96-2.69h0Z"/></g><g id="Layer_9-6"><path class="cls-21" d="M138.34,144.33c-1.42,.35-3.69,2.03-4.76,4.45s-.88,4.84,.42,5.37,3.57-1.34,5.03-1.11,3.38,1.65,5.14,1.04,.5-5.37-.77-7.29c-1.34-1.92-2.8-2.99-5.07-2.46h0Z"/><path class="cls-21" d="M147.63,142.45c-.73-.61-2-.23-2.84,.88-.84,1.11-.92,2.53-.15,3.15,.73,.65,2.03,.27,2.88-.84,.81-1.11,.88-2.53,.12-3.19Z"/><path class="cls-21" d="M136.77,143.33c1.23-.35,1.8-2.07,1.27-3.84-.54-1.77-1.92-2.92-3.11-2.57s-1.77,2.07-1.23,3.84c.54,1.77,1.84,2.92,3.07,2.57h0Z"/><path class="cls-21" d="M133.2,143.29c-.84-1.07-2.19-1.42-2.88-.81-.69,.61-.65,2,.19,3.07,.84,1.07,2.11,1.46,2.88,.84,.73-.61,.65-2.03-.19-3.11Z"/><path class="cls-21" d="M144.22,140.64c.38-1.8-.31-3.53-1.54-3.84s-2.53,.88-2.92,2.69c-.35,1.8,.27,3.49,1.5,3.84,1.19,.31,2.53-.88,2.96-2.69h0Z"/></g><g id="Layer_9-7"><path class="cls-11" d="M164.31,137.98c-1.42,.35-3.69,2.03-4.76,4.45s-.88,4.84,.42,5.37,3.57-1.34,5.03-1.11,3.38,1.65,5.14,1.04,.5-5.37-.77-7.29c-1.34-1.92-2.8-2.99-5.07-2.46h0Z"/><path class="cls-11" d="M173.6,136.1c-.73-.61-2-.23-2.84,.88-.84,1.11-.92,2.53-.15,3.15,.73,.65,2.03,.27,2.88-.84,.81-1.11,.88-2.53,.12-3.19Z"/><path class="cls-11" d="M162.74,136.98c1.23-.35,1.8-2.07,1.27-3.84-.54-1.77-1.92-2.92-3.11-2.57s-1.77,2.07-1.23,3.84c.54,1.77,1.84,2.92,3.07,2.57h0Z"/><path class="cls-11" d="M159.17,136.94c-.84-1.07-2.19-1.42-2.88-.81-.69,.61-.65,2,.19,3.07,.84,1.07,2.11,1.46,2.88,.84,.73-.61,.65-2.03-.19-3.11Z"/><path class="cls-11" d="M170.19,134.29c.38-1.8-.31-3.53-1.54-3.84s-2.53,.88-2.92,2.69c-.35,1.8,.27,3.49,1.5,3.84,1.19,.31,2.53-.88,2.96-2.69h0Z"/></g></g><g><g id="Layer_9-8"><path class="cls-11" d="M294.06,137.98c-1.42,.35-3.69,2.03-4.76,4.45s-.88,4.84,.42,5.37,3.57-1.34,5.03-1.11,3.38,1.65,5.14,1.04,.5-5.37-.77-7.29c-1.34-1.92-2.8-2.99-5.07-2.46h0Z"/><path class="cls-11" d="M303.35,136.1c-.73-.61-2-.23-2.84,.88-.84,1.11-.92,2.53-.15,3.15,.73,.65,2.03,.27,2.88-.84,.81-1.11,.88-2.53,.12-3.19Z"/><path class="cls-11" d="M292.49,136.98c1.23-.35,1.8-2.07,1.27-3.84-.54-1.77-1.92-2.92-3.11-2.57s-1.77,2.07-1.23,3.84c.54,1.77,1.84,2.92,3.07,2.57h0Z"/><path class="cls-11" d="M288.92,136.94c-.84-1.07-2.19-1.42-2.88-.81-.69,.61-.65,2,.19,3.07,.84,1.07,2.11,1.46,2.88,.84,.73-.61,.65-2.03-.19-3.11Z"/><path class="cls-11" d="M299.93,134.29c.38-1.8-.31-3.53-1.54-3.84s-2.53,.88-2.92,2.69c-.35,1.8,.27,3.49,1.5,3.84,1.19,.31,2.53-.88,2.96-2.69h0Z"/></g><g id="Layer_9-9"><path class="cls-21" d="M320.03,144.33c-1.42,.35-3.69,2.03-4.76,4.45s-.88,4.84,.42,5.37,3.57-1.34,5.03-1.11,3.38,1.65,5.14,1.04,.5-5.37-.77-7.29c-1.34-1.92-2.8-2.99-5.07-2.46h0Z"/><path class="cls-21" d="M329.32,142.45c-.73-.61-2-.23-2.84,.88-.84,1.11-.92,2.53-.15,3.15,.73,.65,2.03,.27,2.88-.84,.81-1.11,.88-2.53,.12-3.19Z"/><path class="cls-21" d="M318.46,143.33c1.23-.35,1.8-2.07,1.27-3.84-.54-1.77-1.92-2.92-3.11-2.57s-1.77,2.07-1.23,3.84c.54,1.77,1.84,2.92,3.07,2.57h0Z"/><path class="cls-21" d="M314.89,143.29c-.84-1.07-2.19-1.42-2.88-.81-.69,.61-.65,2,.19,3.07,.84,1.07,2.11,1.46,2.88,.84,.73-.61,.65-2.03-.19-3.11Z"/><path class="cls-21" d="M325.9,140.64c.38-1.8-.31-3.53-1.54-3.84s-2.53,.88-2.92,2.69c-.35,1.8,.27,3.49,1.5,3.84,1.19,.31,2.53-.88,2.96-2.69h0Z"/></g><g id="Layer_9-10"><path class="cls-11" d="M346,137.98c-1.42,.35-3.69,2.03-4.76,4.45s-.88,4.84,.42,5.37,3.57-1.34,5.03-1.11,3.38,1.65,5.14,1.04,.5-5.37-.77-7.29c-1.34-1.92-2.8-2.99-5.07-2.46h0Z"/><path class="cls-11" d="M355.29,136.1c-.73-.61-2-.23-2.84,.88-.84,1.11-.92,2.53-.15,3.15,.73,.65,2.03,.27,2.88-.84,.81-1.11,.88-2.53,.12-3.19Z"/><path class="cls-11" d="M344.42,136.98c1.23-.35,1.8-2.07,1.27-3.84-.54-1.77-1.92-2.92-3.11-2.57s-1.77,2.07-1.23,3.84c.54,1.77,1.84,2.92,3.07,2.57h0Z"/><path class="cls-11" d="M340.85,136.94c-.84-1.07-2.19-1.42-2.88-.81-.69,.61-.65,2,.19,3.07,.84,1.07,2.11,1.46,2.88,.84,.73-.61,.65-2.03-.19-3.11Z"/><path class="cls-11" d="M351.87,134.29c.38-1.8-.31-3.53-1.54-3.84s-2.53,.88-2.92,2.69c-.35,1.8,.27,3.49,1.5,3.84,1.19,.31,2.53-.88,2.96-2.69h0Z"/></g><g id="Layer_9-11"><path class="cls-21" d="M371.97,144.33c-1.42,.35-3.69,2.03-4.76,4.45s-.88,4.84,.42,5.37,3.57-1.34,5.03-1.11,3.38,1.65,5.14,1.04,.5-5.37-.77-7.29c-1.34-1.92-2.8-2.99-5.07-2.46h0Z"/><path class="cls-21" d="M381.25,142.45c-.73-.61-2-.23-2.84,.88-.84,1.11-.92,2.53-.15,3.15,.73,.65,2.03,.27,2.88-.84,.81-1.11,.88-2.53,.12-3.19Z"/><path class="cls-21" d="M370.39,143.33c1.23-.35,1.8-2.07,1.27-3.84-.54-1.77-1.92-2.92-3.11-2.57s-1.77,2.07-1.23,3.84c.54,1.77,1.84,2.92,3.07,2.57h0Z"/><path class="cls-21" d="M366.82,143.29c-.84-1.07-2.19-1.42-2.88-.81-.69,.61-.65,2,.19,3.07,.84,1.07,2.11,1.46,2.88,.84,.73-.61,.65-2.03-.19-3.11Z"/><path class="cls-21" d="M377.84,140.64c.38-1.8-.31-3.53-1.54-3.84s-2.53,.88-2.92,2.69c-.35,1.8,.27,3.49,1.5,3.84,1.19,.31,2.53-.88,2.96-2.69h0Z"/></g><g id="Layer_9-12"><path class="cls-11" d="M397.93,137.98c-1.42,.35-3.69,2.03-4.76,4.45s-.88,4.84,.42,5.37,3.57-1.34,5.03-1.11,3.38,1.65,5.14,1.04,.5-5.37-.77-7.29c-1.34-1.92-2.8-2.99-5.07-2.46h0Z"/><path class="cls-11" d="M407.22,136.1c-.73-.61-2-.23-2.84,.88-.84,1.11-.92,2.53-.15,3.15,.73,.65,2.03,.27,2.88-.84,.81-1.11,.88-2.53,.12-3.19Z"/><path class="cls-11" d="M396.36,136.98c1.23-.35,1.8-2.07,1.27-3.84-.54-1.77-1.92-2.92-3.11-2.57s-1.77,2.07-1.23,3.84c.54,1.77,1.84,2.92,3.07,2.57h0Z"/><path class="cls-11" d="M392.79,136.94c-.84-1.07-2.19-1.42-2.88-.81-.69,.61-.65,2,.19,3.07,.84,1.07,2.11,1.46,2.88,.84,.73-.61,.65-2.03-.19-3.11Z"/><path class="cls-11" d="M403.81,134.29c.38-1.8-.31-3.53-1.54-3.84s-2.53,.88-2.92,2.69c-.35,1.8,.27,3.49,1.5,3.84,1.19,.31,2.53-.88,2.96-2.69h0Z"/></g><g id="Layer_9-13"><path class="cls-21" d="M423.9,144.33c-1.42,.35-3.69,2.03-4.76,4.45s-.88,4.84,.42,5.37,3.57-1.34,5.03-1.11,3.38,1.65,5.14,1.04,.5-5.37-.77-7.29c-1.34-1.92-2.8-2.99-5.07-2.46h0Z"/><path class="cls-21" d="M433.19,142.45c-.73-.61-2-.23-2.84,.88-.84,1.11-.92,2.53-.15,3.15,.73,.65,2.03,.27,2.88-.84,.81-1.11,.88-2.53,.12-3.19Z"/><path class="cls-21" d="M422.33,143.33c1.23-.35,1.8-2.07,1.27-3.84-.54-1.77-1.92-2.92-3.11-2.57s-1.77,2.07-1.23,3.84c.54,1.77,1.84,2.92,3.07,2.57h0Z"/><path class="cls-21" d="M418.76,143.29c-.84-1.07-2.19-1.42-2.88-.81-.69,.61-.65,2,.19,3.07,.84,1.07,2.11,1.46,2.88,.84,.73-.61,.65-2.03-.19-3.11Z"/><path class="cls-21" d="M429.77,140.64c.38-1.8-.31-3.53-1.54-3.84s-2.53,.88-2.92,2.69c-.35,1.8,.27,3.49,1.5,3.84,1.19,.31,2.53-.88,2.96-2.69h0Z"/></g><g id="Layer_9-14"><path class="cls-11" d="M449.87,137.98c-1.42,.35-3.69,2.03-4.76,4.45s-.88,4.84,.42,5.37,3.57-1.34,5.03-1.11,3.38,1.65,5.14,1.04,.5-5.37-.77-7.29c-1.34-1.92-2.8-2.99-5.07-2.46h0Z"/><path class="cls-11" d="M459.16,136.1c-.73-.61-2-.23-2.84,.88-.84,1.11-.92,2.53-.15,3.15,.73,.65,2.03,.27,2.88-.84,.81-1.11,.88-2.53,.12-3.19Z"/><path class="cls-11" d="M448.29,136.98c1.23-.35,1.8-2.07,1.27-3.84-.54-1.77-1.92-2.92-3.11-2.57s-1.77,2.07-1.23,3.84c.54,1.77,1.84,2.92,3.07,2.57h0Z"/><path class="cls-11" d="M444.72,136.94c-.84-1.07-2.19-1.42-2.88-.81-.69,.61-.65,2,.19,3.07,.84,1.07,2.11,1.46,2.88,.84,.73-.61,.65-2.03-.19-3.11Z"/><path class="cls-11" d="M455.74,134.29c.38-1.8-.31-3.53-1.54-3.84s-2.53,.88-2.92,2.69c-.35,1.8,.27,3.49,1.5,3.84,1.19,.31,2.53-.88,2.96-2.69h0Z"/></g></g></g></g></svg>