<?xml version="1.0" encoding="UTF-8"?><svg id="Layer_2" xmlns="http://www.w3.org/2000/svg" viewBox="0 0 280 280"><defs><style>.cls-1{fill:none;}.cls-2{fill:#fff;}</style></defs><g id="Layer_1-2"><g><path class="cls-2" d="M138.6,260c-4.25,0-7.22-1.23-8.92-3.69-1.7-2.46-2.55-5.57-2.55-9.3v-62.68H60.64c-9.51,0-16.78-1.87-21.78-5.61-5.01-3.73-7.52-10.78-7.52-21.15V93.12c0-17.66,8.57-26.5,25.73-26.5H127.13V32.99c0-3.91,.85-7.05,2.55-9.43,1.7-2.38,4.67-3.57,8.92-3.57s7.26,1.19,9.04,3.57c1.78,2.38,2.68,5.52,2.68,9.43v33.63h69.04c9.51,0,16.77,1.87,21.78,5.61,5.01,3.74,7.52,10.79,7.52,21.15v64.2c0,17.83-8.66,26.75-25.99,26.75h-72.36v62.68c0,3.91-.89,7.05-2.68,9.43-1.78,2.38-4.8,3.57-9.04,3.57Zm-69.81-98.09h58.34V89.04h-58.34c-9.51,0-14.27,4.76-14.27,14.27v44.33c0,9.51,4.75,14.27,14.27,14.27Zm81.53,0h60.89c9.51,0,14.27-4.75,14.27-14.27v-44.33c0-9.51-4.76-14.27-14.27-14.27h-60.89v72.87Z"/><rect class="cls-1" width="280" height="280"/></g></g></svg>