<?xml version="1.0" encoding="UTF-8"?><svg id="Layer_2" xmlns="http://www.w3.org/2000/svg" viewBox="0 0 417.8 417.8"><defs><style>.cls-1{fill:#f4f4f4;}.cls-2{fill:#eb423f;}.cls-3{fill:#bda2bc;}.cls-4{fill:#ccc;}.cls-5{fill:#d1b4d1;}</style></defs><g id="Layer_2-2"><g><path class="cls-5" d="m398.27,98.8L208.9,0,19.53,98.8C7.53,105.07,0,117.48,0,131.02v28.61c0,13.54,7.53,25.95,19.53,32.21l189.37,98.8,189.37-98.8c12-6.26,19.53-18.68,19.53-32.21v-28.61c0-13.54-7.53-25.95-19.53-32.21Z"/><g><rect class="cls-1" x="36.33" y="29.79" width="345.14" height="356.52" rx="4.99" ry="4.99"/><g><rect class="cls-4" x="63.9" y="66.6" width="290" height="21.14" rx="9.67" ry="9.67"/><rect class="cls-4" x="63.9" y="125.49" width="290" height="21.14" rx="9.67" ry="9.67"/><rect class="cls-4" x="63.9" y="184.39" width="290" height="21.14" rx="9.67" ry="9.67"/></g></g><path class="cls-3" d="m398.27,191.84l-189.37,98.8L19.53,191.84C7.53,185.58,0,173.16,0,159.63v258.17h417.8V159.63c0,13.54-7.53,25.95-19.53,32.21Z"/><path class="cls-2" d="m255.42,243.94c-10.75-10.39-27.79-10.39-38.54,0l-7.98,7.79-7.98-7.79c-10.75-10.39-27.79-10.39-38.54,0-10.39,10.05-10.67,26.62-.62,37.01.2.21.41.42.62.62l46.52,45.41,46.52-45.41c10.39-10.05,10.67-26.62.62-37.01-.2-.21-.41-.42-.62-.62Z"/></g></g></svg>