<?xml version="1.0" encoding="UTF-8"?><svg id="Layer_2" xmlns="http://www.w3.org/2000/svg" viewBox="0 0 268 268"><defs><style>.cls-1{fill:#fff;}.cls-2{fill:#bda2bc;}</style></defs><g id="catcircle"><circle class="cls-2" cx="134" cy="134" r="134"/><path class="cls-1" d="m159.56,190.13c22.55-8.11,37.61-26.44,37.61-46.99,0-7.81-2.12-15.31-6.3-22.34,2.57-27.23-8.67-54.58-9.15-55.75-.5-1.21-1.51-2.13-2.76-2.51-1.24-.39-2.6-.2-3.7.51-10.44,6.75-19.79,21.88-24.55,30.53-10.99-2.47-22.43-2.47-33.42,0-4.76-8.65-14.11-23.79-24.55-30.53-1.1-.71-2.45-.89-3.7-.51-1.25.39-2.26,1.31-2.76,2.51-.49,1.17-11.72,28.52-9.16,55.75-4.18,7.03-6.3,14.54-6.3,22.34,0,20.55,15.06,38.88,37.61,46.99-13.33,11.1-23.92,30.43-30.43,54.49,16.83,8.55,35.86,13.38,55.99,13.38s39.16-4.83,55.99-13.38c-6.5-24.05-17.09-43.38-30.43-54.49Z"/></g></svg>