<?xml version="1.0" encoding="utf-8"?>
<!-- Generator: Adobe Illustrator 27.1.0, SVG Export Plug-In . SVG Version: 6.00 Build 0)  -->
<svg version="1.1" id="Layer_1" xmlns="http://www.w3.org/2000/svg" xmlns:xlink="http://www.w3.org/1999/xlink" x="0px" y="0px"
	 viewBox="0 0 459.7 160" style="enable-background:new 0 0 459.7 160;" xml:space="preserve">
<style type="text/css">
	.st0{fill:#FEEEEE;}
	.st1{fill:#E697A9;}
	.st2{fill:#EFC2CE;}
	.st3{fill:#F2F2F3;}
	.st4{fill:#BDA2BC;}
	.st5{fill:#F4C3C8;}
	.st6{fill:#F9DEDE;}
	.st7{fill:#FFFFFF;stroke:#A3909A;stroke-width:0.5;stroke-linejoin:round;stroke-miterlimit:10;}
	.st8{fill:#FFFFFF;}
	.st9{display:none;fill:#FFFFFF;}
	.st10{fill:none;stroke:#A3909A;stroke-width:0.5;stroke-linejoin:round;stroke-miterlimit:10;}
	.st11{fill:#FCCCAD;}
	.st12{fill:#C0682B;}
	.st13{fill:#F48A8A;}
	.st14{fill:#F4F2E5;}
	.st15{fill:#E85E5D;}
	.st16{fill:#EFA379;}
	.st17{filter:url(#Adobe_OpacityMaskFilter);}
	.st18{filter:url(#Adobe_OpacityMaskFilter_00000108296072895487268750000002979751849990161809_);}
	.st19{mask:url(#SVGID_1_);fill:url(#SVGID_00000173842574788032044480000008770605896826077574_);}
	.st20{filter:url(#Adobe_OpacityMaskFilter_00000144322315475060479020000003768163474069035944_);}
	.st21{filter:url(#Adobe_OpacityMaskFilter_00000124876914848856582010000010396970196503547018_);}
	
		.st22{mask:url(#SVGID_00000142147208738671969510000008010864853541367205_);fill:url(#SVGID_00000130622414022191263090000016575215527570551713_);}
	.st23{fill:#FEE9E5;}
	.st24{fill:#E9C9C6;}
	.st25{fill:#FFD449;}
	.st26{fill:#F6C230;}
	.st27{fill:#F69CA4;}
</style>
<g>
	<g>
		<g>
			<path class="st0" d="M428.1,27.6l23.9,7c0,0,0.2-23-4.4-24.2C443,9.1,431.6,19.9,428.1,27.6z"/>
			<path class="st0" d="M435.4,29.7l14.9,4.4c0,0,0.1-22.3-2.8-22.6C445.1,11.4,437.3,20.9,435.4,29.7z"/>
			<path class="st0" d="M444,32.3l-0.8-1.5l3.1-0.8l-3.9-2.1l2.9,0.1l-2.5-2.3l1.3-0.6l-0.9-0.4l1.3-0.3l-2.6-0.9l2.8-1.9
				c0,0-3.2-0.1-2.9-0.1c0.3,0,2.6-4.4,2.6-4.4l-4.6,2.8c-1.8,3-3.5,6.5-4.2,9.9L444,32.3z"/>
			<path class="st0" d="M411.5,26.6l-23.9,7c0,0-0.2-23,4.4-24.2C396.6,8.1,408,18.9,411.5,26.6z"/>
			<path class="st0" d="M404.2,28.7l-14.9,4.4c0,0-0.1-22.3,2.8-22.6C394.4,10.4,402.3,19.9,404.2,28.7z"/>
			<path class="st0" d="M395.6,31.3l0.8-1.5l-3.1-0.8l3.9-2.1l-2.9,0.1l2.5-2.3l-1.3-0.6l0.9-0.4l-1.3-0.3l2.6-0.9l-2.8-1.9
				c0,0,3.2-0.1,2.9-0.1c-0.3,0-2.6-4.4-2.6-4.4l4.6,2.8c1.8,3,3.5,6.5,4.2,9.9L395.6,31.3z"/>
			<path class="st0" d="M452.3,112.2c-13,3.1-24.8,4.4-35.2,4c-10.4-0.4-19.1-2.5-26.1-6.2c-6.9-3.7-11.8-8.9-14.5-15.5
				c-1-2.5-1-4.9,0.1-7.4c1.1-2.4,2.8-4.1,5.2-5c2.5-1,4.9-1,7.3,0c2.4,1,4.1,2.8,5.1,5.2c1.2,2.8,4,5.2,8.3,7.1
				c4.3,1.9,10.3,2.9,17.9,3.1c7.6,0.1,16.8-1.1,27.6-3.6c2.6-0.7,4.9-0.3,7.2,1.1c2.2,1.4,3.6,3.4,4.2,5.9c0.7,2.6,0.3,4.9-1.1,7.2
				C456.9,110.2,454.9,111.6,452.3,112.2z"/>
			<path class="st0" d="M441.8,49c-4.8-1.2-9.8-2.1-15-2.7c-5.2-0.6-10.3-0.9-15.3-1c-5-0.1-9.6,0.1-13.7,0.5c-2.6,0.3-5-0.3-7-1.9
				c-2-1.6-3.2-3.7-3.6-6.4c-0.3-2.6,0.3-4.9,1.9-7c1.6-2.1,3.8-3.3,6.4-3.6c5.2-0.4,10.8-0.6,16.8-0.4c6,0.1,12,0.5,17.9,1.2
				c5.9,0.7,11.3,1.7,16,2.9c2.6,0.6,4.5,2,5.9,4.2c1.4,2.2,1.8,4.6,1.1,7.2c-0.6,2.6-2,4.5-4.3,5.9C446.8,49.2,444.4,49.6,441.8,49
				z"/>
		</g>
		<g>
			<g>
				<g>
					<g>
						<path class="st1" d="M428.1,22.6l23.9,7c0,0,0.2-23-4.4-24.2C443,4.1,431.6,14.9,428.1,22.6z"/>
						<path class="st2" d="M435.4,24.7l14.9,4.4c0,0,0.1-22.3-2.8-22.6C445.1,6.4,437.3,15.9,435.4,24.7z"/>
						<path class="st3" d="M444,27.3l-0.8-1.5l3.1-0.8l-3.9-2.1l2.9,0.1l-2.5-2.3l1.3-0.6l-0.9-0.4l1.3-0.3l-2.6-0.9l2.8-1.9
							c0,0-3.2-0.1-2.9-0.1c0.3,0,2.6-4.4,2.6-4.4l-4.6,2.8c-1.8,3-3.5,6.5-4.2,9.9L444,27.3z"/>
					</g>
					<g>
						<path class="st1" d="M411.5,21.6l-23.9,7c0,0-0.2-23,4.4-24.2C396.6,3.1,408,13.9,411.5,21.6z"/>
						<path class="st2" d="M404.2,23.7l-14.9,4.4c0,0-0.1-22.3,2.8-22.6C394.4,5.4,402.3,14.9,404.2,23.7z"/>
						<path class="st3" d="M395.6,26.3l0.8-1.5l-3.1-0.8l3.9-2.1l-2.9,0.1l2.5-2.3l-1.3-0.6l0.9-0.4l-1.3-0.3l2.6-0.9l-2.8-1.9
							c0,0,3.2-0.1,2.9-0.1c-0.3,0-2.6-4.4-2.6-4.4l4.6,2.8c1.8,3,3.5,6.5,4.2,9.9L395.6,26.3z"/>
					</g>
				</g>
				<path class="st4" d="M452.3,107.2c-13,3.1-24.8,4.4-35.2,4c-10.4-0.4-19.1-2.5-26.1-6.2c-6.9-3.7-11.8-8.9-14.5-15.5
					c-1-2.5-1-4.9,0.1-7.4c1.1-2.4,2.8-4.1,5.2-5c2.5-1,4.9-1,7.3,0c2.4,1,4.1,2.8,5.1,5.2c1.2,2.8,4,5.2,8.3,7.1
					c4.3,1.9,10.3,2.9,17.9,3.1c7.6,0.1,16.8-1.1,27.6-3.6c2.6-0.7,4.9-0.3,7.2,1.1c2.2,1.4,3.6,3.4,4.2,5.9
					c0.7,2.6,0.3,4.9-1.1,7.2C456.9,105.2,454.9,106.6,452.3,107.2z"/>
				<path class="st4" d="M441.8,44c-4.8-1.2-9.8-2.1-15-2.7c-5.2-0.6-10.3-0.9-15.3-1c-5-0.1-9.6,0.1-13.7,0.5c-2.6,0.3-5-0.3-7-1.9
					c-2-1.6-3.2-3.7-3.6-6.4c-0.3-2.6,0.3-4.9,1.9-7c1.6-2.1,3.8-3.3,6.4-3.6c5.2-0.4,10.8-0.6,16.8-0.4c6,0.1,12,0.5,17.9,1.2
					c5.9,0.7,11.3,1.7,16,2.9c2.6,0.6,4.5,2,5.9,4.2c1.4,2.2,1.8,4.6,1.1,7.2c-0.6,2.6-2,4.5-4.3,5.9
					C446.8,44.2,444.4,44.6,441.8,44z"/>
			</g>
		</g>
	</g>
	<g>
		<g>
			<path class="st0" d="M287.1,121c-2.6,0-4.7-0.9-6.5-2.7c-1.8-1.8-2.7-4-2.7-6.5V90.5c-1.2,1.7-2.3,3.4-3.5,5
				c-1.1,1.7-2.2,3.3-3.3,4.9c-1.4,2.1-3.4,3.4-6.1,3.9c-2.7,0.5-5.1-0.1-7.2-1.6c-2-1.5-3.2-3.6-3.5-6.1c-0.3-2.6,0.3-4.9,1.9-7
				c2.6-3.6,5.8-8,9.5-13.2c3.7-5.2,7.8-10.5,12.2-16V49.6c-1.6,0.6-3.4,1.3-5.4,2.2c-2,0.9-4,1.7-6,2.7c-2.4,1.1-4.8,1.2-7.2,0.3
				c-2.4-0.9-4.2-2.6-5.3-5c-1.1-2.5-1.2-4.9-0.3-7.4c0.9-2.4,2.6-4.2,5-5.3c1.6-0.8,3.6-1.5,5.9-2.3c2.3-0.8,4.6-1.5,7-2.2
				c2.3-0.7,4.5-1.3,6.3-1.9V14.2c0-2.6,0.9-4.7,2.7-6.5s4-2.7,6.5-2.7s4.7,0.9,6.5,2.7s2.7,4,2.7,6.5V31c1.4,0.9,2.5,1.9,3.3,3.1
				c0.3,0.4,0.7,0.9,1,1.3c0.3,0.5,0.5,1,0.7,1.5c4.3-3.3,8.8-6,13.4-8.1c4.6-2,9.1-3.1,13.7-3.1c11.3,0,20,3.6,26.3,10.8
				c6.3,7.2,9.5,17.4,9.5,30.6c0,7.3-1,14.1-3.1,20.2c1.5,1.6,3,3.3,4.5,5.1c1.4,1.8,2.8,3.7,4.1,5.6c1.4,2.1,2,4.5,1.7,7
				c-0.3,2.6-1.5,4.6-3.6,6.3c-2.1,1.6-4.5,2.2-7.2,1.9c-2.6-0.4-4.7-1.6-6.1-3.8c-0.6-0.9-1.2-1.8-1.7-2.6
				c-0.6-0.8-1.1-1.5-1.7-2.3c-2.8,2.8-6,5-9.7,6.6c-3.6,1.6-7.6,2.4-12,2.4c-4.3,0-8.3-0.8-11.8-2.5c-3.5-1.7-6.2-4-8.2-7.2
				c-2-3.1-3-6.8-3-11.2c0-4.1,1-7.7,3-10.8c2-3.1,4.7-5.5,8.2-7.2c3.5-1.7,7.4-2.6,11.8-2.6c5,0,10.2,1.2,15.5,3.6
				c0.3-1.4,0.4-2.8,0.5-4.2c0.1-1.4,0.1-2.9,0.1-4.3c0-5-0.5-9.1-1.5-12.2c-1-3.1-2.4-5.5-4.1-7.2c-1.7-1.7-3.5-2.8-5.5-3.4
				c-2-0.6-3.9-0.9-5.9-0.9c-3.2,0-6.6,1-10.2,3c-3.6,2-7.2,4.7-10.9,8.2c-3.7,3.5-7.4,7.3-11.1,11.6v45.5c0,2.6-0.9,4.7-2.7,6.5
				C291.9,120.1,289.7,121,287.1,121z"/>
			<path class="st0" d="M339.4,96.8l-3.2-2.1c-0.3-0.2-0.5-0.5-0.5-0.9v-0.5c0-2.7-2.5-4.9-5.7-4.9c-3.1,0-5.7,2.2-5.7,4.9v0.5
				c0,0.4-0.2,0.7-0.5,0.9l-3.2,2.1c-1.8,1.2-2.7,3.4-2,5.5c0.7,2,2.5,3.1,4.5,3.3c2.4,0.2,4.3-1.3,6.7-1.3c1.8,0,3.5,0.7,5.2,1
				c1.9,0.4,4.1,0,5.5-1.5C342.5,101.6,342,98.5,339.4,96.8L339.4,96.8z"/>
			<ellipse transform="matrix(0.618 -0.7862 0.7862 0.618 58.2558 303.8079)" class="st0" cx="341.8" cy="92" rx="3.8" ry="3.1"/>
			<ellipse transform="matrix(0.7862 -0.618 0.618 0.7862 11.2429 216.4071)" class="st0" cx="318.4" cy="92" rx="3.1" ry="3.8"/>
			
				<ellipse transform="matrix(0.9896 -0.1442 0.1442 0.9896 -8.6872 47.7426)" class="st0" cx="325.1" cy="83.8" rx="3.1" ry="3.9"/>
			
				<ellipse transform="matrix(0.1442 -0.9896 0.9896 0.1442 203.8168 403.2888)" class="st0" cx="335.1" cy="83.8" rx="3.9" ry="3.1"/>
			
				<ellipse transform="matrix(0.8117 -0.5841 0.5841 0.8117 3.0551 206.8557)" class="st0" cx="322.3" cy="98.7" rx="2.3" ry="1.4"/>
			<ellipse transform="matrix(0.8117 -0.5841 0.5841 0.8117 8.5429 208.7)" class="st0" cx="327.9" cy="91.1" rx="2.2" ry="1.4"/>
			
				<ellipse transform="matrix(0.1442 -0.9896 0.9896 0.1442 181.1855 390.8407)" class="st0" cx="316.6" cy="90.7" rx="1.3" ry="0.9"/>
			<ellipse transform="matrix(0.273 -0.962 0.962 0.273 156.4044 371.3119)" class="st0" cx="323.9" cy="82.2" rx="1.3" ry="1"/>
			<ellipse transform="matrix(0.6471 -0.7624 0.7624 0.6471 55.7102 283.7732)" class="st0" cx="334.4" cy="81.7" rx="1.3" ry="1"/>
			<ellipse transform="matrix(0.8845 -0.4665 0.4665 0.8845 -2.5088 169.8345)" class="st0" cx="341.8" cy="90" rx="1.3" ry="1"/>
		</g>
		<g>
			<g>
				<path class="st1" d="M287.1,116c-2.6,0-4.7-0.9-6.5-2.7c-1.8-1.8-2.7-4-2.7-6.5V85.5c-1.2,1.7-2.3,3.4-3.5,5
					c-1.1,1.7-2.2,3.3-3.3,4.9c-1.4,2.1-3.4,3.4-6.1,3.9c-2.7,0.5-5.1-0.1-7.2-1.6c-2-1.5-3.2-3.6-3.5-6.1c-0.3-2.6,0.3-4.9,1.9-7
					c2.6-3.6,5.8-8,9.5-13.2c3.7-5.2,7.8-10.5,12.2-16V44.6c-1.6,0.6-3.4,1.3-5.4,2.2c-2,0.9-4,1.7-6,2.7c-2.4,1.1-4.8,1.2-7.2,0.3
					c-2.4-0.9-4.2-2.6-5.3-5c-1.1-2.5-1.2-4.9-0.3-7.4c0.9-2.4,2.6-4.2,5-5.3c1.6-0.8,3.6-1.5,5.9-2.3c2.3-0.8,4.6-1.5,7-2.2
					c2.3-0.7,4.5-1.3,6.3-1.9V9.2c0-2.6,0.9-4.7,2.7-6.5s4-2.7,6.5-2.7s4.7,0.9,6.5,2.7s2.7,4,2.7,6.5V26c1.4,0.9,2.5,1.9,3.3,3.1
					c0.3,0.4,0.7,0.9,1,1.3c0.3,0.5,0.5,1,0.7,1.5c4.3-3.3,8.8-6,13.4-8.1c4.6-2,9.1-3.1,13.7-3.1c11.3,0,20,3.6,26.3,10.8
					c6.3,7.2,9.5,17.4,9.5,30.6c0,7.3-1,14.1-3.1,20.2c1.5,1.6,3,3.3,4.5,5.1c1.4,1.8,2.8,3.7,4.1,5.6c1.4,2.1,2,4.5,1.7,7
					c-0.3,2.6-1.5,4.6-3.6,6.3c-2.1,1.6-4.5,2.2-7.2,1.9c-2.6-0.4-4.7-1.6-6.1-3.8c-0.6-0.9-1.2-1.8-1.7-2.6
					c-0.6-0.8-1.1-1.5-1.7-2.3c-2.8,2.8-6,5-9.7,6.6c-3.6,1.6-7.6,2.4-12,2.4c-4.3,0-8.3-0.8-11.8-2.5c-3.5-1.7-6.2-4-8.2-7.2
					c-2-3.1-3-6.8-3-11.2c0-4.1,1-7.7,3-10.8c2-3.1,4.7-5.5,8.2-7.2c3.5-1.7,7.4-2.6,11.8-2.6c5,0,10.2,1.2,15.5,3.6
					c0.3-1.4,0.4-2.8,0.5-4.2c0.1-1.4,0.1-2.9,0.1-4.3c0-5-0.5-9.1-1.5-12.2c-1-3.1-2.4-5.5-4.1-7.2c-1.7-1.7-3.5-2.8-5.5-3.4
					c-2-0.6-3.9-0.9-5.9-0.9c-3.2,0-6.6,1-10.2,3c-3.6,2-7.2,4.7-10.9,8.2c-3.7,3.5-7.4,7.3-11.1,11.6v45.5c0,2.6-0.9,4.7-2.7,6.5
					C291.9,115.1,289.7,116,287.1,116z"/>
				<g>
					<path class="st5" d="M339.4,91.8l-3.2-2.1c-0.3-0.2-0.5-0.5-0.5-0.9v-0.5c0-2.7-2.5-4.9-5.7-4.9c-3.1,0-5.7,2.2-5.7,4.9v0.5
						c0,0.4-0.2,0.7-0.5,0.9l-3.2,2.1c-1.8,1.2-2.7,3.4-2,5.5c0.7,2,2.5,3.1,4.5,3.3c2.4,0.2,4.3-1.3,6.7-1.3c1.8,0,3.5,0.7,5.2,1
						c1.9,0.4,4.1,0,5.5-1.5C342.5,96.6,342,93.5,339.4,91.8L339.4,91.8z"/>
					<ellipse transform="matrix(0.618 -0.7862 0.7862 0.618 62.1868 301.8979)" class="st5" cx="341.8" cy="87" rx="3.8" ry="3.1"/>
					<ellipse transform="matrix(0.7862 -0.618 0.618 0.7862 14.3329 215.338)" class="st5" cx="318.4" cy="87" rx="3.1" ry="3.8"/>
					
						<ellipse transform="matrix(0.9896 -0.1442 0.1442 0.9896 -7.9663 47.6903)" class="st5" cx="325.1" cy="78.8" rx="3.1" ry="3.9"/>
					
						<ellipse transform="matrix(0.1442 -0.9896 0.9896 0.1442 208.7645 399.0097)" class="st5" cx="335.1" cy="78.8" rx="3.9" ry="3.1"/>
					
						<ellipse transform="matrix(0.8117 -0.5841 0.5841 0.8117 5.9757 205.9141)" class="st6" cx="322.3" cy="93.7" rx="2.3" ry="1.4"/>
					
						<ellipse transform="matrix(0.8117 -0.5841 0.5841 0.8117 11.4634 207.7584)" class="st6" cx="327.9" cy="86.1" rx="2.2" ry="1.4"/>
					
						<ellipse transform="matrix(0.1442 -0.9896 0.9896 0.1442 186.1332 386.5616)" class="st6" cx="316.6" cy="85.7" rx="1.3" ry="0.9"/>
					<ellipse transform="matrix(0.273 -0.962 0.962 0.273 161.2145 367.6766)" class="st6" cx="323.9" cy="77.2" rx="1.3" ry="1"/>
					
						<ellipse transform="matrix(0.6471 -0.7624 0.7624 0.6471 59.5225 282.0085)" class="st6" cx="334.4" cy="76.7" rx="1.3" ry="1"/>
					<ellipse transform="matrix(0.8845 -0.4665 0.4665 0.8845 -0.1761 169.257)" class="st6" cx="341.8" cy="85" rx="1.3" ry="1"/>
				</g>
			</g>
		</g>
	</g>
	<g>
		<g>
			<path class="st0" d="M133.2,112.5c-2.6,0.5-4.9,0-7-1.4c-2.1-1.4-3.5-3.5-4-6c-0.9-3.9-1.6-8.6-2.1-14.2
				c-0.6-5.5-0.9-11.5-1.2-17.9c-0.2-6.4-0.2-12.9-0.1-19.4c0.2-6.6,0.5-12.9,1.1-19c0.6-6.1,1.4-11.7,2.5-16.6c0.5-2.6,1.8-4.6,4-6
				c2.1-1.4,4.5-1.9,7.2-1.3c2.6,0.5,4.5,1.9,5.9,4.1c1.4,2.2,1.7,4.6,1.2,7.2c-1.3,6.1-2.2,12.8-2.8,19.9
				c-0.6,7.1-0.9,14.3-0.8,21.5c0,7.2,0.4,14.1,1,20.6c0.6,6.5,1.4,12.3,2.4,17.3c0.6,2.6,0.2,4.9-1.2,7.2
				C137.7,110.6,135.7,112,133.2,112.5z"/>
			<path class="st0" d="M177.1,115c-2,1.7-4.3,2.5-6.9,2.4c-2.6-0.1-4.9-1.1-6.8-2.9c-1.9-2-2.7-4.3-2.6-6.9
				c0.2-2.6,1.2-4.8,3.2-6.5c4.2-3.7,7.4-7.7,9.8-11.8c2.3-4.1,4-9.1,5.1-14.8c1-5.8,1.5-12.8,1.5-21.3c-3.8,0.3-7.4,0.7-10.9,1.1
				c-3.5,0.4-6.7,0.8-9.5,1.2c-2.6,0.3-5-0.2-7.2-1.5c-2.1-1.4-3.5-3.3-4-5.9c-0.5-2.6,0-5.1,1.4-7.2c1.4-2.2,3.5-3.4,6.1-3.8
				c3.1-0.4,6.7-0.8,10.9-1.2c4.2-0.3,8.6-0.7,13.2-1v-16c0-2.7,0.9-5,2.6-6.8c1.7-1.8,3.9-2.7,6.6-2.7c2.6,0,4.9,0.9,6.6,2.7
				c1.8,1.8,2.7,4.1,2.7,6.8v15c5.3-0.3,9.8-0.4,13.4-0.4c2.7,0,5,1,6.7,2.9c1.7,2,2.5,4.3,2.4,6.9c-0.1,2.6-1.1,4.8-3.1,6.5
				s-4.3,2.5-6.9,2.4c-1.9-0.2-3.9-0.3-5.9-0.3s-4.3,0-6.6,0.1c0,8.7-0.6,16.8-1.7,24.4c-1.2,7.6-3.3,14.6-6.4,21
				C187.9,103.8,183.3,109.7,177.1,115z"/>
		</g>
		<g>
			<g>
				<path class="st4" d="M133.2,107.5c-2.6,0.5-4.9,0-7-1.4c-2.1-1.4-3.5-3.5-4-6c-0.9-3.9-1.6-8.6-2.1-14.2
					c-0.6-5.5-0.9-11.5-1.2-17.9c-0.2-6.4-0.2-12.9-0.1-19.4c0.2-6.6,0.5-12.9,1.1-19c0.6-6.1,1.4-11.7,2.5-16.6
					c0.5-2.6,1.8-4.6,4-6c2.1-1.4,4.5-1.9,7.2-1.3c2.6,0.5,4.5,1.9,5.9,4.1c1.4,2.2,1.7,4.6,1.2,7.2c-1.3,6.1-2.2,12.8-2.8,19.9
					c-0.6,7.1-0.9,14.3-0.8,21.5c0,7.2,0.4,14.1,1,20.6c0.6,6.5,1.4,12.3,2.4,17.3c0.6,2.6,0.2,4.9-1.2,7.2
					C137.7,105.6,135.7,107,133.2,107.5z"/>
				<path class="st4" d="M177.1,110c-2,1.7-4.3,2.5-6.9,2.4c-2.6-0.1-4.9-1.1-6.8-2.9c-1.9-2-2.7-4.3-2.6-6.9
					c0.2-2.6,1.2-4.8,3.2-6.5c4.2-3.7,7.4-7.7,9.8-11.8c2.3-4.1,4-9.1,5.1-14.8c1-5.8,1.5-12.8,1.5-21.3c-3.8,0.3-7.4,0.7-10.9,1.1
					c-3.5,0.4-6.7,0.8-9.5,1.2c-2.6,0.3-5-0.2-7.2-1.5c-2.1-1.4-3.5-3.3-4-5.9c-0.5-2.6,0-5.1,1.4-7.2c1.4-2.2,3.5-3.4,6.1-3.8
					c3.1-0.4,6.7-0.8,10.9-1.2c4.2-0.3,8.6-0.7,13.2-1v-16c0-2.7,0.9-5,2.6-6.8c1.7-1.8,3.9-2.7,6.6-2.7c2.6,0,4.9,0.9,6.6,2.7
					c1.8,1.8,2.7,4.1,2.7,6.8v15c5.3-0.3,9.8-0.4,13.4-0.4c2.7,0,5,1,6.7,2.9c1.7,2,2.5,4.3,2.4,6.9c-0.1,2.6-1.1,4.8-3.1,6.5
					s-4.3,2.5-6.9,2.4c-1.9-0.2-3.9-0.3-5.9-0.3s-4.3,0-6.6,0.1c0,8.7-0.6,16.8-1.7,24.4c-1.2,7.6-3.3,14.6-6.4,21
					C187.9,98.8,183.3,104.7,177.1,110z"/>
			</g>
		</g>
	</g>
	<g>
		<g>
			<path class="st0" d="M54.2,115.2c-1.9-1.7-2.9-3.9-3.1-6.6c-0.2-2.7,0.6-5,2.5-6.8c3.2-3.3,6.3-7.2,9.1-11.8
				c2.8-4.5,5.3-9.2,7.4-14.2c-2.8-0.7-5.6-1.3-8.3-1.9c-2.7-0.6-5.4-1-8.1-1.3C47.8,85.3,40.6,93.9,32,98.5
				c-3.4,1.8-7,2.8-10.7,3.1c-3.7,0.3-7.2-0.2-10.4-1.5C7.6,98.8,5,96.8,3,93.9C1,91,0,87.2,0,82.6c0-5.2,1.5-9.9,4.4-14
				c2.9-4.1,7.4-7.4,13.5-9.9c6.1-2.5,13.8-3.8,23.1-4c0.8-2.4,1.5-4.9,2.3-7.7c0.8-2.7,1.5-5.7,2.2-8.8c0.9-3.7,0.7-6.2-0.7-7.5
				c-1.4-1.4-4-1.7-7.7-1.2c-1.6,0.3-3.6,0.6-6.1,0.9c-2.4,0.3-4.5,0.6-6.2,0.8c-2.6,0.2-4.9-0.6-6.9-2.3c-2-1.7-3-3.9-3.2-6.5
				c-0.2-2.6,0.6-5,2.2-7c1.7-2,3.8-3.1,6.5-3.3c1.4-0.1,3-0.2,4.8-0.4c1.8-0.2,3.6-0.3,5.4-0.5c1.8-0.2,3.2-0.3,4.2-0.3
				c10.4-0.7,17.8,1.2,22.2,5.6c4.4,4.4,5.8,11.6,4.1,21.5c-0.6,3.2-1.2,6.2-1.9,9.3c-0.7,3-1.4,5.9-2.2,8.6
				c2.6,0.3,5.1,0.7,7.7,1.2c2.6,0.5,5.2,1,7.9,1.7c0.6-2.5,1.1-4.9,1.4-7.4c0.3-2.4,0.6-4.8,0.6-7c0.2-2.6,1.1-4.9,2.7-6.7
				c1.7-1.8,3.8-2.8,6.5-2.9c2.7,0,5,0.9,6.9,2.7c1.9,1.8,2.7,4.1,2.6,6.7c-0.3,6.1-1.2,12.6-2.9,19.4c2.3,0.8,4.6,1.6,6.8,2.4
				c2.2,0.8,4.4,1.6,6.5,2.5c2.5,1,4.2,2.7,5.2,5.2c1,2.4,1,4.9,0.1,7.4c-1,2.4-2.7,4.1-5.2,5.2c-2.4,1.1-4.9,1-7.4-0.1
				c-1.9-0.9-3.8-1.8-5.8-2.6c-2-0.8-3.9-1.6-5.9-2.4c-2.6,6.8-5.7,13.1-9.3,19c-3.5,5.8-7.2,10.5-10.9,14.1
				c-1.9,1.9-4.1,2.9-6.6,3.1C58.4,117.8,56.2,117,54.2,115.2z"/>
			<path class="st0" d="M33.8,79.5l-3.7-1c-0.4-0.1-0.7-0.4-0.8-0.7l-0.2-0.5c-0.8-2.6-3.9-3.9-6.9-2.9c-3,1-4.7,3.8-3.9,6.4
				l0.2,0.5c0.1,0.3,0,0.7-0.2,1l-2.4,3c-1.3,1.7-1.5,4.1-0.2,5.8c1.3,1.7,3.4,2.2,5.4,1.8c2.3-0.5,3.7-2.6,6-3.3
				c1.7-0.5,3.5-0.4,5.3-0.7c1.9-0.3,3.9-1.3,4.7-3.1C38.2,83.1,36.7,80.3,33.8,79.5L33.8,79.5z"/>
			
				<ellipse transform="matrix(0.3428 -0.9394 0.9394 0.3428 -47.0092 81.1038)" class="st0" cx="34.5" cy="74.2" rx="3.8" ry="3.1"/>
			<ellipse transform="matrix(0.555 -0.8319 0.8319 0.555 -62.292 46.408)" class="st0" cx="12.2" cy="81.4" rx="3.1" ry="3.8"/>
			
				<ellipse transform="matrix(0.8956 -0.4448 0.4448 0.8956 -30.1713 14.6136)" class="st0" cx="16.1" cy="71.6" rx="3.1" ry="3.9"/>
			<ellipse transform="matrix(0.9853 -0.1707 0.1707 0.9853 -11.3172 5.371)" class="st0" cx="25.6" cy="68.5" rx="3.1" ry="3.9"/>
			
				<ellipse transform="matrix(0.5898 -0.8076 0.8076 0.5898 -62.5104 50.1316)" class="st0" cx="18.1" cy="86.6" rx="2.3" ry="1.4"/>
			
				<ellipse transform="matrix(0.5898 -0.8076 0.8076 0.5898 -54.0619 48.8534)" class="st0" cx="21.1" cy="77.6" rx="2.2" ry="1.4"/>
			<ellipse transform="matrix(0.9853 -0.1707 0.1707 0.9853 -13.6401 2.9118)" class="st0" cx="10.1" cy="80.8" rx="0.9" ry="1.3"/>
			
				<ellipse transform="matrix(0.9992 -3.977725e-02 3.977725e-02 0.9992 -2.7898 0.6292)" class="st0" cx="14.4" cy="70.4" rx="1" ry="1.3"/>
			<ellipse transform="matrix(0.3778 -0.9259 0.9259 0.3778 -46.6777 63.9622)" class="st0" cx="24.3" cy="66.7" rx="1.3" ry="1"/>
			<ellipse transform="matrix(0.6955 -0.7185 0.7185 0.6955 -41.6241 46.3251)" class="st0" cx="33.8" cy="72.3" rx="1.3" ry="1"/>
		</g>
		<g>
			<g>
				<path class="st1" d="M54.2,110.2c-1.9-1.7-2.9-3.9-3.1-6.6c-0.2-2.7,0.6-5,2.5-6.8c3.2-3.3,6.3-7.2,9.1-11.8
					c2.8-4.5,5.3-9.2,7.4-14.2c-2.8-0.7-5.6-1.3-8.3-1.9c-2.7-0.6-5.4-1-8.1-1.3C47.8,80.3,40.6,88.9,32,93.5
					c-3.4,1.8-7,2.8-10.7,3.1c-3.7,0.3-7.2-0.2-10.4-1.5C7.6,93.8,5,91.8,3,88.9C1,86,0,82.2,0,77.6c0-5.2,1.5-9.9,4.4-14
					c2.9-4.1,7.4-7.4,13.5-9.9c6.1-2.5,13.8-3.8,23.1-4c0.8-2.4,1.5-4.9,2.3-7.7c0.8-2.7,1.5-5.7,2.2-8.8c0.9-3.7,0.7-6.2-0.7-7.5
					c-1.4-1.4-4-1.7-7.7-1.2c-1.6,0.3-3.6,0.6-6.1,0.9c-2.4,0.3-4.5,0.6-6.2,0.8c-2.6,0.2-4.9-0.6-6.9-2.3c-2-1.7-3-3.9-3.2-6.5
					c-0.2-2.6,0.6-5,2.2-7c1.7-2,3.8-3.1,6.5-3.3c1.4-0.1,3-0.2,4.8-0.4c1.8-0.2,3.6-0.3,5.4-0.5C35.4,6.1,36.8,6,37.8,6
					c10.4-0.7,17.8,1.2,22.2,5.6c4.4,4.4,5.8,11.6,4.1,21.5c-0.6,3.2-1.2,6.2-1.9,9.3c-0.7,3-1.4,5.9-2.2,8.6
					c2.6,0.3,5.1,0.7,7.7,1.2c2.6,0.5,5.2,1,7.9,1.7c0.6-2.5,1.1-4.9,1.4-7.4c0.3-2.4,0.6-4.8,0.6-7c0.2-2.6,1.1-4.9,2.7-6.7
					c1.7-1.8,3.8-2.8,6.5-2.9c2.7,0,5,0.9,6.9,2.7c1.9,1.8,2.7,4.1,2.6,6.7c-0.3,6.1-1.2,12.6-2.9,19.4c2.3,0.8,4.6,1.6,6.8,2.4
					c2.2,0.8,4.4,1.6,6.5,2.5c2.5,1,4.2,2.7,5.2,5.2c1,2.4,1,4.9,0.1,7.4c-1,2.4-2.7,4.1-5.2,5.2c-2.4,1.1-4.9,1-7.4-0.1
					c-1.9-0.9-3.8-1.8-5.8-2.6c-2-0.8-3.9-1.6-5.9-2.4c-2.6,6.8-5.7,13.1-9.3,19c-3.5,5.8-7.2,10.5-10.9,14.1
					c-1.9,1.9-4.1,2.9-6.6,3.1C58.4,112.8,56.2,112,54.2,110.2z"/>
				<g>
					<path class="st5" d="M33.8,74.5l-3.7-1c-0.4-0.1-0.7-0.4-0.8-0.7l-0.2-0.5c-0.8-2.6-3.9-3.9-6.9-2.9c-3,1-4.7,3.8-3.9,6.4
						l0.2,0.5c0.1,0.3,0,0.7-0.2,1l-2.4,3c-1.3,1.7-1.5,4.1-0.2,5.8c1.3,1.7,3.4,2.2,5.4,1.8c2.3-0.5,3.7-2.6,6-3.3
						c1.7-0.5,3.5-0.4,5.3-0.7c1.9-0.3,3.9-1.3,4.7-3.1C38.2,78.1,36.7,75.3,33.8,74.5L33.8,74.5z"/>
					
						<ellipse transform="matrix(0.3428 -0.9394 0.9394 0.3428 -42.3122 77.818)" class="st5" cx="34.5" cy="69.2" rx="3.8" ry="3.1"/>
					<ellipse transform="matrix(0.555 -0.8319 0.8319 0.555 -58.1328 44.183)" class="st5" cx="12.2" cy="76.4" rx="3.1" ry="3.8"/>
					
						<ellipse transform="matrix(0.8956 -0.4448 0.4448 0.8956 -27.9474 14.0918)" class="st5" cx="16.1" cy="66.6" rx="3.1" ry="3.9"/>
					
						<ellipse transform="matrix(0.9853 -0.1707 0.1707 0.9853 -10.4636 5.2976)" class="st5" cx="25.6" cy="63.5" rx="3.1" ry="3.9"/>
					
						<ellipse transform="matrix(0.5898 -0.8076 0.8076 0.5898 -58.4726 48.0804)" class="st6" cx="18.1" cy="81.6" rx="2.3" ry="1.4"/>
					
						<ellipse transform="matrix(0.5898 -0.8076 0.8076 0.5898 -50.024 46.8022)" class="st6" cx="21.1" cy="72.6" rx="2.2" ry="1.4"/>
					
						<ellipse transform="matrix(0.9853 -0.1707 0.1707 0.9853 -12.7865 2.8384)" class="st6" cx="10.1" cy="75.8" rx="0.9" ry="1.3"/>
					
						<ellipse transform="matrix(0.9992 -3.977725e-02 3.977725e-02 0.9992 -2.5909 0.6253)" class="st6" cx="14.4" cy="65.4" rx="1" ry="1.3"/>
					
						<ellipse transform="matrix(0.3778 -0.9259 0.9259 0.3778 -42.0484 60.8515)" class="st6" cx="24.3" cy="61.7" rx="1.3" ry="1"/>
					
						<ellipse transform="matrix(0.6955 -0.7185 0.7185 0.6955 -38.0317 44.8028)" class="st6" cx="33.8" cy="67.3" rx="1.3" ry="1"/>
				</g>
			</g>
		</g>
	</g>
	<g>
		<path class="st7" d="M205.2,56c-1.1-2.2-2.5-2.5-2.5-2.5l-4,4.1c-0.1,1-0.1,2-0.2,3l7.4-0.8C206,59.8,206.3,58.2,205.2,56z"/>
		<path class="st7" d="M204.1,61.4l-5.6-1c-0.1,1.5-0.2,2.9-0.3,4.3l2.5,2.9c0,0,1.5-0.6,2.7-2.8C204.7,62.6,204.1,61.4,204.1,61.4z
			"/>
		<g>
			<g>
				<polygon class="st8" points="198.9,56.9 179.4,66.6 178.6,71.3 198.6,61.4 				"/>
				<polygon class="st8" points="193.8,63.7 198.3,64.6 197.6,70.5 186.9,67.1 				"/>
				<polygon class="st8" points="178,74 196.2,77.4 194.9,82.6 177,77.2 				"/>
				<polygon class="st8" points="186.1,100.4 181.3,106 167.4,92.9 170.2,89.3 				"/>
				<path class="st8" d="M180.3,55.7c-0.1,2-0.2,3.9-0.4,5.7h9.9l8.9-4.5c0,0,0,0.6,0.1-1.4L180.3,55.7z"/>
				<path class="st8" d="M180,61.4c-0.1,1.1-0.2,2.2-0.3,3.3h3.7l6.6-3.3H180z"/>
				<path class="st8" d="M198.3,64.6c0.1-1.1,0.2-2.2,0.3-3.3l-4.8,2.4L198.3,64.6z"/>
				<polygon class="st8" points="194.5,69.5 186.9,67.1 178.6,71.3 177.9,74 179.4,74.3 				"/>
				<polygon class="st8" points="197.1,73.2 188.8,71.3 181.5,73.6 188.2,75.9 196.2,77.4 				"/>
				<polygon class="st8" points="194.9,82.6 177,77.2 176.5,78.5 183.4,83.1 193.3,87 				"/>
				<polygon class="st8" points="192.5,89.2 176.5,78.5 174.3,83.5 178.3,86.3 192.5,89.2 				"/>
				<path class="st8" d="M192.5,89.2c-0.3,0.1-19.2-3.9-19.2-3.9l-0.5,0.7l2.1,2.8l5.5,3.1l9.6,2.6L192.5,89.2z"/>
				<polygon class="st8" points="186.1,100.4 188.7,96.5 174.9,88.7 181.3,97.1 186.1,100.4 				"/>
				<polygon class="st8" points="172.8,86 170.2,89.3 181.3,97.1 				"/>
				<path class="st9" d="M179,69.4c-1,5.8-2.7,10.7-5.1,14.8c-1.7,3-3.9,5.9-6.5,8.7l14,13.2c4.1-4.2,7.4-8.8,9.7-13.7
					c3.1-6.4,5.2-13.4,6.4-21c0.8-5,1.3-10.3,1.5-15.9l-18.6,0.2C180.1,60.9,179.7,65.4,179,69.4z"/>
			</g>
			<g>
				<line class="st7" x1="198.9" y1="56.9" x2="179.4" y2="66.6"/>
				<line class="st7" x1="178.6" y1="71.3" x2="198.6" y2="61.4"/>
				<line class="st7" x1="193.8" y1="63.7" x2="198.3" y2="64.6"/>
				<line class="st7" x1="197.6" y1="70.5" x2="186.9" y2="67.1"/>
				<line class="st7" x1="194.9" y1="82.6" x2="177" y2="77.2"/>
				<line class="st7" x1="178" y1="74" x2="196.2" y2="77.4"/>
				<line class="st7" x1="181.3" y1="106" x2="167.4" y2="92.9"/>
				<line class="st7" x1="170.2" y1="89.3" x2="186.1" y2="100.4"/>
				<path class="st7" d="M199,55.5l-18.6,0.2"/>
				<path class="st10" d="M180,61.4h9.9l8.9-4.5"/>
				<path class="st7" d="M189.9,61.4H180"/>
				<path class="st7" d="M179.7,64.6h3.7"/>
				<line class="st10" x1="186.9" y1="67.1" x2="178.6" y2="71.3"/>
				<polyline class="st10" points="177.9,74 179.4,74.3 194.5,69.5 				"/>
				<polyline class="st10" points="181.5,73.6 188.2,75.9 196.2,77.4 				"/>
				<line class="st10" x1="197.1" y1="73.2" x2="188.8" y2="71.3"/>
				<line class="st10" x1="194.9" y1="82.6" x2="177" y2="77.2"/>
				<polyline class="st10" points="176.5,78.5 183.4,83.1 193.3,87 				"/>
				<polyline class="st7" points="192.5,89.2 192.5,89.2 176.5,78.5 				"/>
				<line class="st7" x1="174.3" y1="83.5" x2="178.3" y2="86.3"/>
				<path class="st10" d="M192.5,89.2c-0.3,0.1-19.2-3.9-19.2-3.9"/>
				<polyline class="st10" points="172.8,86 174.9,88.7 180.4,91.9 190,94.4 				"/>
				<polyline class="st7" points="181.3,97.1 186.1,100.4 186.1,100.4 				"/>
				<line class="st7" x1="188.7" y1="96.5" x2="174.9" y2="88.7"/>
				<line class="st7" x1="181.3" y1="97.1" x2="172.8" y2="86"/>
				<path class="st7" d="M170.2,89.3"/>
			</g>
			<path class="st10" d="M179,69.4c-1,5.8-2.7,10.7-5.1,14.8c-1.7,3-3.9,5.9-6.5,8.7l14,13.2c4.1-4.2,7.4-8.8,9.7-13.7
				c3.1-6.4,5.2-13.4,6.4-21c0.8-5,1.3-10.3,1.5-15.9l-18.6,0.2C180.1,60.9,179.7,65.4,179,69.4z"/>
		</g>
	</g>
	<g>
		<g>
			<path class="st11" d="M189.6,137.5v14.2h0c0,4.6,18.1,8.4,40.3,8.4c22.2,0,40.3-3.8,40.3-8.4h0v-14.2H189.6z"/>
			<path class="st12" d="M229.9,158.6c-22.2,0-40.3-3.8-40.3-8.4h0v1.5h0c0,4.6,18.1,8.4,40.3,8.4c22.2,0,40.3-3.8,40.3-8.4h0v-1.5
				h0C270.1,154.8,252.1,158.6,229.9,158.6z"/>
			<path class="st13" d="M189.6,126.5v14.2h0c0,4.6,18.1,8.4,40.3,8.4c22.2,0,40.3-3.8,40.3-8.4h0v-14.2H189.6z"/>
			<path class="st14" d="M189.6,120.3v10.9h0c0,4.6,18.1,8.4,40.3,8.4c22.2,0,40.3-3.8,40.3-8.4h0v-10.9H189.6z"/>
			<path class="st8" d="M272.3,141.1c-0.6-1.1-0.9-2.3-0.9-3.6c0,0,0.1-9.4,0-14.8c-0.1-3.1-0.9-6.5-5.8-8.5
				c-7.2-2.7-20.5-4.6-35.6-4.6c-15.8,0-29.5,2-36.5,4.9c-4.4,1.9-4.9,5.3-4.9,6.6c0,4.7,0,15.3,0,15.3c0,1.6-0.4,3.3-1.1,4.7
				c-0.4,0.8-0.3,1.5-0.2,2c0.6,2.5,2.6,2.6,2.6,2.6v-14.6c0-1.4,0.8-2.7,2.1-3.1c0.4-0.1,0.8-0.2,1.3-0.1c1.8,0.5,3.7,1.7,4,3.9
				c0.2,2.2-0.7,5.7,0,7.7c0.5,1.5,2.6,0.8,2.9,0.2c0.8-1.6-0.4-4.5,0.2-7.1c0.6-2.6,3.9-2.3,4.4-0.5c0.3,1.1,0.3,4.9,0.3,7.7
				c0,1.8-0.6,2.5-1.1,4.6c-0.6,2.4,0.9,3.6,1.8,3.7c1,0.1,2.4-1.3,2-3.1c-0.3-1.7-0.6-3.4-0.6-5.2c0-2,0.1-4.5,0.6-5.8
				c0.9-2.6,3.7-2.6,4.9-1.6c1.2,1,1.3,5.6,4.8,5.2c3.5-0.4,1.6-4.8,5.9-4.2c3.9,0.6,3.4,7.5,6.5,8.1c3.1,0.6,2-8.9,7-8.5
				c2.8,0.2,2.9,10.2,2.5,11.7c-0.4,1.5-0.9,4.4,1.5,4.2c1.9-0.2,1.4-2.7,1.2-4c-0.2-1.5,0.1-7.2,0.5-9c0.4-1.8,3-1.7,3.6,0.1
				c0.6,1.8,1.7,17.6,1.6,18.6c-0.1,2.5,3.9,2.1,3-0.1c-0.9-2.2-1.1-3.4-1.1-4.5c0-2.7,0.9-8.5,1.2-13.7c0.1-2.6,2.7-5,4.6-3.7
				c2.3,1.5,1.8,10,1.8,10s-1.4,5.5,0.6,6c3,0.7,2.3-3.6,1.8-5.7c-0.6-2-0.3-9.3,0.6-9.7c3.6-1.7,2,6.8,5.5,5.7
				c1.9-0.6,1.9-4.2,2.7-6.9c0.6-2.1,1.9-0.9,1.9-0.2l0.1,13.3c0,0,1.7,0,2.3-1.9C272.7,142.9,272.7,141.9,272.3,141.1z"/>
			<path class="st8" d="M189.6,126.9v4.3v6.2v3.6v5.3c0.4,0.2,0.7,0.2,0.7,0.2V132c0-1.4,0.8-2.7,2.1-3.1c0.4-0.1,0.8-0.2,1.3-0.1
				c1.8,0.5,3.7,1.7,4,3.9c0.2,2.2-0.7,5.7,0,7.7c0.5,1.5,2.6,0.8,2.9,0.2c0.8-1.6-0.4-4.5,0.2-7.1c0.6-2.6,3.9-2.3,4.4-0.5
				c0.3,1.1,0.3,4.9,0.3,7.7c0,1.8-0.6,2.5-1.1,4.6c-0.6,2.4,0.9,3.6,1.8,3.7c1,0.1,2.4-1.3,2-3.1c-0.3-1.7-0.6-3.4-0.6-5.2
				c0-2,0.1-4.5,0.6-5.8c0.9-2.6,3.7-2.6,4.9-1.6c1.2,1,1.3,5.6,4.8,5.2c3.5-0.4,1.6-4.8,5.9-4.2c3.9,0.6,3.4,7.5,6.5,8.1
				c3.1,0.6,2-8.9,7-8.5c2.8,0.2,2.9,10.2,2.5,11.7c-0.4,1.5-0.9,4.4,1.5,4.2c1.9-0.2,1.4-2.7,1.2-4c-0.2-1.5,0.1-7.2,0.5-9
				c0.4-1.8,3-1.7,3.6,0.1c0.6,1.8,1.7,17.6,1.6,18.6c-0.1,2.5,3.9,2.1,3-0.1c-0.9-2.2-1.1-3.4-1.1-4.5c0-2.7,0.9-8.5,1.2-13.7
				c0.1-2.6,2.7-5,4.6-3.7c2.3,1.5,1.8,10,1.8,10s-1.4,5.5,0.6,6c3,0.7,2.3-3.6,1.8-5.6c-0.6-2-0.3-9.3,0.6-9.7
				c3.6-1.7,2,6.8,5.5,5.7c1.9-0.6,1.9-4.2,2.7-6.9c0.4-1.2,1-1.3,1.4-1v-0.6v-4.3v-6.6h-80.6V126.9z"/>
			<path class="st15" d="M213.2,142.2c0-0.7-0.6-1.3-1.3-1.3c-0.7,0-1.3,0.6-1.3,1.3c0,0.7,0.6,1.3,1.3,1.3
				C212.6,143.5,213.2,142.9,213.2,142.2z"/>
			<path class="st15" d="M220.9,145.5c0-0.6-0.5-1.1-1.1-1.1c-0.6,0-1.1,0.5-1.1,1.1c0,0.6,0.5,1.1,1.1,1.1
				C220.4,146.6,220.9,146.2,220.9,145.5z"/>
			<circle class="st15" cx="232.1" cy="143.9" r="1.8"/>
			<path class="st15" d="M200,143.9c0-0.5-0.4-0.9-0.9-0.9c-0.5,0-0.9,0.4-0.9,0.9c0,0.5,0.4,0.9,0.9,0.9
				C199.5,144.8,200,144.4,200,143.9z"/>
			<path class="st16" d="M210.1,154.4c0-0.4-0.3-0.7-0.7-0.7c-0.4,0-0.7,0.3-0.7,0.7c0,0.4,0.3,0.7,0.7,0.7
				C209.7,155.1,210.1,154.8,210.1,154.4z"/>
			<path class="st16" d="M218.5,153.3c0-0.6-0.5-1.1-1.1-1.1c-0.6,0-1.1,0.5-1.1,1.1c0,0.6,0.5,1.1,1.1,1.1
				C218,154.4,218.5,153.9,218.5,153.3z"/>
			<path class="st16" d="M228.6,157.5c0-0.6-0.5-1.1-1.1-1.1c-0.6,0-1.1,0.5-1.1,1.1c0,0.6,0.5,1.1,1.1,1.1
				C228.1,158.6,228.6,158.1,228.6,157.5z"/>
			<path class="st16" d="M194.8,152c0-0.4-0.3-0.7-0.7-0.7c-0.4,0-0.7,0.3-0.7,0.7c0,0.4,0.3,0.7,0.7,0.7
				C194.5,152.7,194.8,152.4,194.8,152z"/>
			<path class="st16" d="M244.1,153.6c0-0.5-0.4-0.9-0.9-0.9s-0.9,0.4-0.9,0.9c0,0.5,0.4,0.9,0.9,0.9S244.1,154.1,244.1,153.6z"/>
			<path class="st16" d="M265.2,150c0-0.6-0.5-1.1-1.1-1.1c-0.6,0-1.1,0.5-1.1,1.1c0,0.6,0.5,1.1,1.1,1.1
				C264.7,151.1,265.2,150.6,265.2,150z"/>
			<path class="st16" d="M261.5,154.4c0-0.5-0.4-0.8-0.8-0.8c-0.5,0-0.8,0.4-0.8,0.8c0,0.5,0.4,0.8,0.8,0.8
				C261.1,155.2,261.5,154.8,261.5,154.4z"/>
			<path class="st16" d="M257.3,153.3c0-0.7-0.6-1.3-1.3-1.3c-0.7,0-1.3,0.6-1.3,1.3c0,0.7,0.6,1.3,1.3,1.3
				C256.7,154.6,257.3,154,257.3,153.3z"/>
			<g>
				<path class="st8" d="M272.3,141.1c-0.6-1.1-0.9-2.3-0.9-3.6c0,0,0.1-9.4,0-14.8c-0.1-3.1-0.9-6.5-5.8-8.5
					c-7.2-2.7-20.5-4.6-35.6-4.6c-15.8,0-29.5,2-36.5,4.9c-4.4,1.9-4.9,5.3-4.9,6.6c0,4.7,0,15.3,0,15.3c0,1.6-0.4,3.3-1.1,4.7
					c-0.4,0.8-0.3,1.5-0.2,2c0.6,2.5,2.6,2.6,2.6,2.6v-14.6c0-1.4,0.8-2.7,2.1-3.1c0.4-0.1,4.4-1,5.3,3.8c0.4,2.2-0.7,5.7,0,7.7
					c0.5,1.5,2.6,0.8,2.9,0.2c0.8-1.6-0.4-4.5,0.2-7.1c0.6-2.6,3.9-2.3,4.4-0.5c0.3,1.1,0.3,4.9,0.3,7.7c0,1.8-0.6,2.5-1.1,4.6
					c-0.6,2.4,0.9,3.6,1.8,3.7c1,0.1,2.4-1.3,2-3.1c-0.3-1.7-0.6-3.4-0.6-5.2c0-2,0.1-4.5,0.6-5.8c0.9-2.6,3.7-2.6,4.9-1.6
					c1.2,1,1.3,5.6,4.8,5.2c3.5-0.4,1.6-4.8,5.9-4.2c3.9,0.6,3.4,7.5,6.5,8.1c3.1,0.6,2-8.9,7-8.5c2.8,0.2,2.9,10.2,2.5,11.7
					c-0.4,1.5-0.9,4.4,1.5,4.2c1.9-0.2,1.4-2.7,1.2-4c-0.2-1.5,0.1-7.2,0.5-9c0.4-1.8,3-1.7,3.6,0.1c0.6,1.8,1.7,17.6,1.6,18.6
					c-0.1,2.5,3.9,2.1,3-0.1c-0.9-2.2-1.1-3.4-1.1-4.5c0-2.7,0.9-8.5,1.2-13.7c0.1-2.6,2.7-5,4.6-3.7c2.3,1.5,1.8,10,1.8,10
					s-1.4,5.5,0.6,6c3,0.7,2.3-3.6,1.8-5.7c-0.6-2-0.3-9.3,0.6-9.7c3.6-1.7,2,6.8,5.5,5.7c1.9-0.6,1.9-4.2,2.7-6.9
					c0.6-2.1,1.9-0.9,1.9-0.2l0.1,13.3c0,0,1.7,0,2.3-1.9C272.7,142.9,272.7,141.9,272.3,141.1z"/>
				<path class="st14" d="M268.3,118.6c0,4.8-17.2,8.7-38.5,8.7c-21.2,0-38.5-3.9-38.5-8.7c0-4.8,17.2-8.7,38.5-8.7
					C251.1,109.9,268.3,113.8,268.3,118.6z"/>
				<defs>
					<filter id="Adobe_OpacityMaskFilter" filterUnits="userSpaceOnUse" x="189.7" y="117.9" width="40.2" height="10.2">
						<feFlood  style="flood-color:white;flood-opacity:1" result="back"/>
						<feBlend  in="SourceGraphic" in2="back" mode="normal"/>
					</filter>
				</defs>
				<mask maskUnits="userSpaceOnUse" x="189.7" y="117.9" width="40.2" height="10.2" id="SVGID_1_">
					<g class="st17">
						<defs>
							
								<filter id="Adobe_OpacityMaskFilter_00000094596704370538326620000001382208245309229711_" filterUnits="userSpaceOnUse" x="189.7" y="117.9" width="40.2" height="10.2">
								<feFlood  style="flood-color:white;flood-opacity:1" result="back"/>
								<feBlend  in="SourceGraphic" in2="back" mode="normal"/>
							</filter>
						</defs>
						<mask maskUnits="userSpaceOnUse" x="189.7" y="117.9" width="40.2" height="10.2" id="SVGID_1_">
							<g style="filter:url(#Adobe_OpacityMaskFilter_00000094596704370538326620000001382208245309229711_);">
							</g>
						</mask>
						
							<linearGradient id="SVGID_00000003095149018932187740000017891334630746327466_" gradientUnits="userSpaceOnUse" x1="189.7153" y1="122.9385" x2="229.9138" y2="122.9385">
							<stop  offset="0.4247" style="stop-color:#FFFFFF"/>
							<stop  offset="1" style="stop-color:#4D4D4D"/>
						</linearGradient>
						<path style="mask:url(#SVGID_1_);fill:url(#SVGID_00000003095149018932187740000017891334630746327466_);" d="M228.2,127.4
							c-17.1-0.1-31.3-2.2-35.7-6.1c-0.6-0.5-1.3-1.2-1.7-2.3c-0.4-1.2-0.6-1.7-1-0.6c-0.2,0.4-0.1,1.2,0,1.5
							c0.8,5.6,17,8.4,37.9,7.9C230,127.8,231.1,127.4,228.2,127.4z"/>
					</g>
				</mask>
				<path class="st14" d="M228.2,127.4c-17.1-0.1-31.3-2.2-35.7-6.1c-0.6-0.5-1.3-1.2-1.7-2.3c-0.4-1.2-0.6-1.7-1-0.6
					c-0.2,0.4-0.1,1.2,0,1.5c0.8,5.6,17,8.4,37.9,7.9C230,127.8,231.1,127.4,228.2,127.4z"/>
				<path class="st14" d="M188.2,141.8c0-0.3-0.5-0.2-0.5,0.1c-0.2,0.7-0.1,1.3,0.3,1.9c0.2,0.3,1.1,0.4,0.8-0.4
					C188.6,142.9,188.2,142.4,188.2,141.8z"/>
				<path class="st14" d="M198.5,131.1c-0.3-1.2-0.8-2.3-1.7-3.1c-2.1-1.8-4.5-1.5-6.6,0.1c-0.3,0.2,0,0.4,0.3,0.2
					c3-1.9,6.3-0.3,7.1,2.9c0.4,1.9-0.8,6.5,0.4,8.1c0.4,0.5,1.3-0.1,0.8-1.3C197.9,136.1,199,133.1,198.5,131.1z"/>
				<path class="st14" d="M205.4,144.3c0-0.4-0.3-0.5-0.5-0.2c-0.5,0.7-0.9,2.5,0.3,2.8c0.2,0.1,0.5-0.2,0.5-0.5
					C205.7,145.7,205.5,144.9,205.4,144.3z"/>
				<path class="st14" d="M217.9,135.1c-2.3-0.6-2.2-3.1-4.2-4.2c-1.1-0.6-2.3-0.7-3.6,0c-0.3,0.1-0.2,0.4,0.1,0.3
					c1.1-0.4,2.4-0.1,3.3,0.7c0.7,0.6,1,1.8,1.5,2.6c0.6,1,1.6,1.9,2.8,1.5C218.2,136,218.4,135.3,217.9,135.1z"/>
				<path class="st14" d="M202.3,129.7c-0.2,0.1-0.1,0.5,0.1,0.5c0.8-0.1,1.5,0,2.1,0.6c0.5,0.5,0.7,1.2,1,1.8
					c0.1,0.4,0.7,0.1,0.7-0.2C206.3,130.5,204.4,128.7,202.3,129.7z"/>
				<path class="st14" d="M229.8,139.4c-0.5-0.3-1.6-3-1.9-3.5c-0.3-0.7-0.7-1.5-1.1-2.1c-0.8-1.1-1.8-1.6-3.1-1.4
					c-0.3,0-0.2,0.2,0.2,0.2c3.1,0.2,3.4,6.5,5.3,7.6C230.2,140.8,230.4,139.7,229.8,139.4z"/>
				<path class="st14" d="M237.1,132.2c-0.3-0.1-0.6,0.1-0.2,0.2c1.3,0.5,2.1,1.7,2.3,3c0.1,0.5,0.8,0.5,0.8,0
					C239.8,133.7,238.7,132.6,237.1,132.2z"/>
				<path class="st14" d="M240.6,145.9c-0.2-0.5-0.6-0.5-0.8-0.1c-0.3,0.5-0.6,1-0.4,1.5c0.2,0.5,0.6,0.9,1.1,0.6
					C241,147.7,240.7,146.2,240.6,145.9z"/>
			</g>
		</g>
		<path class="st11" d="M199.9,106.2v10.5h0c0,3.5,13.5,6.3,30,6.3c16.5,0,30-2.8,30-6.3h0v-10.5H199.9z"/>
		<path class="st13" d="M199.9,96.4v10.5h0c0,3.5,13.5,6.3,30,6.3c16.5,0,30-2.8,30-6.3h0V96.4H199.9z"/>
		<path class="st14" d="M199.9,87.8v9.7h0c0,3.5,13.5,6.3,30,6.3c16.5,0,30-2.8,30-6.3h0v-9.7H199.9z"/>
		<path class="st8" d="M199.9,87.8v18.4h0.4v-7c0-0.4,0.1-0.8,0.2-1.1c0.4-1.4,2.4-1.7,3.3-0.5c0.6,0.9,0.8,1.3,1,2.7
			c0.3,1.8,0.4,3.8,0.4,4.3c-0.1,0.9-1.1,3.1,0.4,3.5c1.4,0.3,1.2-1.9,1-3.1c-0.2-1.2,0.8-5,2.2-5c2.7,0,2.2,4.7,3.4,5
			c1.2,0.3,2.2-4.5,4.2-4.4c2,0.1,2,2.2,4.5,2.4c1.8,0.1,2.5-3.7,5.3-1.6c1.9,1.5,3.3,7.3,2.9,8.9c-0.4,1.6-1.2,4.4,0.6,4.5
			c1.8,0.1,1.7-1.9,1.2-4.1c-0.4-2.2,0.1-5.1,3.1-5.3c3.8-0.2,4.1,8,3.7,9.9c-0.4,2,0.5,3.6,1.8,2.6c1.3-1,0.1-2,0-2.9
			c-0.1-1.2-0.5-12.6,2.3-12.5c2.8,0.1,2,3.3,5,2.9c1.9-0.2,3-8.7,5.3-7c2.3,1.7,2.7,10.3,2.3,11.2c-0.2,0.5-1,3.6,0.8,3.6
			c2,0,1.2-2.1,0.8-3.7c-0.4-1.5,0.5-12,2-13c1-0.7,1.5,0,1.8,0.9v-9.5H199.9z"/>
		<path class="st15" d="M224,108.6c0-0.9-0.7-1.7-1.7-1.7c-0.9,0-1.7,0.7-1.7,1.7c0,0.9,0.7,1.7,1.7,1.7
			C223.3,110.2,224,109.5,224,108.6z"/>
		<path class="st15" d="M213,106.6c0-0.4-0.3-0.7-0.7-0.7c-0.4,0-0.7,0.3-0.7,0.7c0,0.4,0.3,0.7,0.7,0.7
			C212.7,107.3,213,107,213,106.6z"/>
		<path class="st15" d="M216.3,110.1c0-0.4-0.3-0.7-0.7-0.7c-0.4,0-0.7,0.3-0.7,0.7c0,0.4,0.3,0.7,0.7,0.7
			C216,110.8,216.3,110.5,216.3,110.1z"/>
		<path class="st15" d="M247.9,107.8c0-0.6-0.5-1.1-1.1-1.1c-0.6,0-1.1,0.5-1.1,1.1c0,0.6,0.5,1.1,1.1,1.1
			C247.5,109,247.9,108.5,247.9,107.8z"/>
		<path class="st16" d="M245.6,115.8c0-0.5-0.4-0.9-0.9-0.9c-0.5,0-0.9,0.4-0.9,0.9c0,0.5,0.4,0.9,0.9,0.9
			C245.1,116.7,245.6,116.3,245.6,115.8z"/>
		<path class="st16" d="M254,117.8c0-0.5-0.4-0.9-0.9-0.9c-0.5,0-0.9,0.4-0.9,0.9c0,0.5,0.4,0.9,0.9,0.9
			C253.6,118.7,254,118.3,254,117.8z"/>
		<path class="st16" d="M249.2,118.7c0-0.3-0.2-0.6-0.6-0.6c-0.3,0-0.6,0.2-0.6,0.6c0,0.3,0.2,0.6,0.6,0.6
			C249,119.2,249.2,119,249.2,118.7z"/>
		<path class="st16" d="M206.9,115c0-0.5-0.4-0.9-0.9-0.9c-0.5,0-0.9,0.4-0.9,0.9c0,0.5,0.4,0.9,0.9,0.9
			C206.5,115.9,206.9,115.5,206.9,115z"/>
		<path class="st16" d="M211,118.3c0-0.3-0.2-0.6-0.6-0.6c-0.3,0-0.6,0.2-0.6,0.6c0,0.3,0.2,0.6,0.6,0.6
			C210.7,118.9,211,118.6,211,118.3z"/>
		<path class="st16" d="M220,118.3c0-0.5-0.4-0.9-0.9-0.9c-0.5,0-0.9,0.4-0.9,0.9c0,0.5,0.4,0.9,0.9,0.9
			C219.6,119.2,220,118.8,220,118.3z"/>
		<g>
			<path class="st8" d="M262.7,106.6c-0.1-0.2-0.2-0.6-0.5-1.1c-0.6-1.2-0.9-2.5-1-3.9l-0.1-9.4h0c0,0,0-1.6,0-2.1
				c-0.1-1.5,0.2-3.6-1.9-5.1c-4.4-2.7-15.8-4.6-29.3-4.6c-13.7,0-25.3,2-29.5,4.8c-1.7,1.2-1.7,3.5-1.7,4.7c0,0.7,0,2.4,0,2.4h0
				c0,0,0,0,0,0l0,7.7c0,1-0.3,2.1-0.7,3c-0.2,0.4-0.3,0.8-0.3,1.1c0.6,3,2.3,2,2.3,2v-7.7c0-0.4,0.1-0.8,0.2-1.1
				c0.4-1.4,2.4-1.7,3.3-0.5c0.6,0.9,0.8,1.3,1,2.7c0.3,1.8,0.4,3.8,0.4,4.3c-0.1,0.9-1.1,3.1,0.4,3.5c1.4,0.3,1.2-1.9,1-3.1
				c-0.2-1.2,0.8-5,2.2-5c2.7,0,2.2,4.7,3.4,5c1.2,0.3,2.2-4.5,4.2-4.4c2,0.1,2,2.2,4.5,2.4c1.8,0.1,2.5-3.7,5.3-1.6
				c1.9,1.5,3.3,7.3,2.9,8.9c-0.4,1.6-1.2,4.4,0.6,4.5c1.8,0.1,1.7-1.9,1.2-4.1c-0.4-2.2,0.1-5.1,3.1-5.3c3.8-0.2,4.1,8,3.7,9.9
				c-0.4,2,0.5,3.6,1.8,2.6c1.3-1,0.1-2,0-2.9c-0.1-1.2-0.5-12.6,2.3-12.5c2.8,0.1,2,3.3,5,2.9c1.9-0.2,3-8.7,5.3-7
				c2.3,1.7,2.7,10.3,2.3,11.2c-0.2,0.5-1,3.6,0.8,3.6c2,0,1.2-2.1,0.8-3.7c-0.4-1.5,0.5-12,2-13c2-1.3,2.1,2.6,2.1,2.6v9.2
				c0,0,0.5,2.2,1.9,1.5C262.3,108.5,262.9,107.7,262.7,106.6z"/>
			<defs>
				
					<filter id="Adobe_OpacityMaskFilter_00000029736285172117869560000012562401570413294234_" filterUnits="userSpaceOnUse" x="199.4" y="86" width="32.2" height="8">
					<feFlood  style="flood-color:white;flood-opacity:1" result="back"/>
					<feBlend  in="SourceGraphic" in2="back" mode="normal"/>
				</filter>
			</defs>
			
				<mask maskUnits="userSpaceOnUse" x="199.4" y="86" width="32.2" height="8" id="SVGID_00000111877884042936397000000003102605132944360082_">
				<g style="filter:url(#Adobe_OpacityMaskFilter_00000029736285172117869560000012562401570413294234_);">
					<defs>
						
							<filter id="Adobe_OpacityMaskFilter_00000182486644938637741020000018034281276031631020_" filterUnits="userSpaceOnUse" x="199.4" y="86" width="32.2" height="8">
							<feFlood  style="flood-color:white;flood-opacity:1" result="back"/>
							<feBlend  in="SourceGraphic" in2="back" mode="normal"/>
						</filter>
					</defs>
					
						<mask maskUnits="userSpaceOnUse" x="199.4" y="86" width="32.2" height="8" id="SVGID_00000111877884042936397000000003102605132944360082_">
						<g style="filter:url(#Adobe_OpacityMaskFilter_00000182486644938637741020000018034281276031631020_);">
						</g>
					</mask>
					
						<linearGradient id="SVGID_00000070805625306463457430000010402367839016678298_" gradientUnits="userSpaceOnUse" x1="199.4229" y1="89.979" x2="231.5833" y2="89.979">
						<stop  offset="0.4247" style="stop-color:#FFFFFF"/>
						<stop  offset="1" style="stop-color:#4D4D4D"/>
					</linearGradient>
					
						<path style="mask:url(#SVGID_00000111877884042936397000000003102605132944360082_);fill:url(#SVGID_00000070805625306463457430000010402367839016678298_);" d="
						M230.2,93.5c-13.5,0-25.2-2.1-28.3-5c-0.4-0.4-0.9-0.9-1-1.6c-0.1-1-0.9-1.3-1.3-0.2c-0.1,0.2-0.2,0.8-0.2,1
						c0.2,4.5,13.8,6.7,30.4,6.3C231.6,93.8,232.5,93.5,230.2,93.5z"/>
				</g>
			</mask>
			<path class="st14" d="M230.2,93.5c-13.5,0-25.2-2.1-28.3-5c-0.4-0.4-0.9-0.9-1-1.6c-0.1-1-0.9-1.3-1.3-0.2
				c-0.1,0.2-0.2,0.8-0.2,1c0.2,4.5,13.8,6.7,30.4,6.3C231.6,93.8,232.5,93.5,230.2,93.5z"/>
			<path class="st14" d="M205.4,105.3c0-0.3-0.3-0.3-0.5-0.1c-0.4,0.3-0.5,0.9-0.1,1.2c0.3,0.2,0.7,0,0.7-0.4
				C205.5,105.7,205.4,105.5,205.4,105.3z"/>
			<path class="st14" d="M198.8,103.3c0-0.3-0.3-0.3-0.5-0.1c-0.4,0.3-0.5,0.9-0.1,1.2c0.3,0.2,0.7,0,0.7-0.4
				C198.8,103.8,198.8,103.6,198.8,103.3z"/>
			<path class="st14" d="M203.9,95.2c-1.2-0.7-3-0.8-3.8,0.5c-0.2,0.3,0.1,0.3,0.3,0.1c1.2-0.9,2.8-0.4,3.6,0.7
				c0.7,0.9,1.1,2.3,1.1,4c0,0.4,0.4-0.7,0.4-1.5C205.6,97.5,205.3,96.1,203.9,95.2z"/>
			<path class="st14" d="M211,99.3c-0.4-0.6-1.1-1.2-2.1-1.2c-0.2,0-0.4,0.2-0.1,0.3c1.1,0.4,1.4,0.8,1.8,1.7
				c0.4,0.9,0.5,1.7,0.8,2.7c0.1,0.4,0.7,0.2,0.7-0.4C212.1,101.2,211.7,100.2,211,99.3z"/>
			<path class="st14" d="M220.1,100.8c-1-0.1-1.8-1.4-2.4-1.8c-0.5-0.3-1.3-0.4-1.9-0.3c-0.3,0.1-0.2,0.3,0.1,0.2
				c0.5-0.1,1.3,0.6,1.7,0.9c0.4,0.4,1.4,1.6,2.3,1.7C220.9,101.6,220.8,100.9,220.1,100.8z"/>
			<path class="st14" d="M225.4,99.2c-0.4-0.1-0.6,0.1-0.2,0.3c2.3,0.7,3.2,3.2,3.6,5.4c0.1,0.5,0.2,0,0.2-0.4
				C229,101.9,228,99.6,225.4,99.2z"/>
			<path class="st14" d="M229.7,111.1c0-0.3-0.4-0.2-0.5-0.1c-0.3,0.5-0.5,1-0.2,1.5c0.3,0.4,0.9,0.2,0.9-0.3
				C229.9,111.8,229.8,111.5,229.7,111.1z"/>
			<path class="st14" d="M238.7,115.4c-0.1-0.2-0.2-0.3-0.4-0.5c-0.2-0.2-0.5-0.1-0.6,0.1c-0.2,0.3-0.2,0.6,0,1
				C238,116.8,239.1,116.4,238.7,115.4z"/>
		</g>
		<path class="st14" d="M258.2,86.8c0,3.5-12.7,6.4-28.3,6.4c-15.6,0-28.3-2.9-28.3-6.4c0-3.5,12.7-6.4,28.3-6.4
			C245.5,80.4,258.2,83.3,258.2,86.8z"/>
		<path class="st8" d="M189.7,117.9c0,0,0.6,1.7,2,2.4c1.5,0.6,2.3,0.2,2.9,0.6c0.6,0.5,2.7,1.3,2.7,1.3c1.4-0.2,0.2,0.9,2.9,1.9
			c1.2,0.4,3.6,0.1,4.7,0.4c1.1,0.3,3.9-0.5,4.6-0.4c0.7,0.1,1.6,1.9,3.6,2.6c2,0.6,4-0.9,5.8-0.8c1.4,0.1,3.1-0.1,4.6,0.1
			c1.5,0.2,2.9,1.5,4.8,1.5c1.9-0.1,7.3,0.3,8.4-0.3c1-0.6,1.2-1.7,2.5-1.3c1.3,0.4,4.1,0.8,5.4,0.7c1.3-0.1,3.1-1.4,4-1.1
			c0.8,0.3,6.3,0.4,7.8-0.4c1.5-0.7,1.9-3.5,3-3.2c1.1,0.3,5.3,0,6.2-0.8c0.8-0.8,2.2-0.8,3-2c0.8-1.2-0.2-2.1-0.2-2.1l-20.8,3.5
			l-20.8,2.1l-14.4-1.3l-16.5-3L189.7,117.9z"/>
		<g>
			<path class="st8" d="M225.5,111.7C225.5,111.7,225.5,111.7,225.5,111.7C225.5,111.7,225.5,111.7,225.5,111.7L225.5,111.7
				L225.5,111.7z"/>
		</g>
		<g>
			<polygon class="st23" points="229.3,73.6 228.3,73.6 228.3,89.6 229.3,89.6 229.8,89.6 231.9,89.6 231.9,73.6 			"/>
			<g>
				<path class="st8" d="M228.3,87.8c1,0.5,2.2,0.9,3.6,1.1v-2c-1.4-0.2-2.7-0.7-3.6-1.2V87.8z"/>
				<path class="st23" d="M228.3,85.7c0.9,0.5,2.2,0.9,3.6,1.2v-2c-1.5-0.3-2.7-0.8-3.6-1.3V85.7z"/>
				<path class="st23" d="M228.3,89.6h0.9h0.5h2.1v-0.7c-1.4-0.2-2.7-0.7-3.6-1.1V89.6z"/>
				<path class="st8" d="M228.3,83.6c0.9,0.5,2.1,1,3.6,1.3v-2c-1.5-0.3-2.7-0.9-3.6-1.3V83.6z"/>
				<path class="st23" d="M231.9,73.6h-2.7h-0.1c0.7,0.4,1.7,0.8,2.8,1.1V73.6z"/>
				<path class="st8" d="M229.2,73.6h-0.8v1.6c0.8,0.5,2,1.1,3.6,1.5v-2C230.8,74.5,229.9,74,229.2,73.6z"/>
				<path class="st23" d="M228.3,77.4c0.8,0.5,2.1,1.1,3.6,1.5v-2c-1.6-0.4-2.8-1.1-3.6-1.5V77.4z"/>
				<path class="st23" d="M228.3,81.5c0.9,0.5,2.1,1,3.6,1.3v-2c-1.5-0.3-2.8-0.9-3.6-1.4V81.5z"/>
				<path class="st8" d="M228.3,79.5c0.9,0.5,2.1,1.1,3.6,1.4v-2c-1.5-0.4-2.8-1-3.6-1.5V79.5z"/>
			</g>
			<path id="XMLID_00000176727616972290926090000015027423330208317627_" class="st24" d="M228.3,73.6c0,0.1,0.8,0.2,1.8,0.2
				c1,0,1.8-0.1,1.8-0.2c0-0.1-0.8-0.2-1.8-0.2C229.1,73.4,228.3,73.5,228.3,73.6z"/>
			<path id="XMLID_00000066475061048503087770000006695638427941714342_" class="st23" d="M229.3,73.6c0,0.1,0.4,0.1,0.9,0.1
				s0.9-0.1,0.9-0.1c0-0.1-0.4-0.1-0.9-0.1S229.3,73.6,229.3,73.6z"/>
			<g id="XMLID_00000125567130209911875740000005583394342840538499_">
				<path id="XMLID_00000152957167975653942310000006998809065431419049_" class="st25" d="M230,65.8c0.1-0.1,0.2-0.1,0.3,0
					c2,2.2,2.5,6.7-0.1,6.7C227.5,72.4,228,67.9,230,65.8z"/>
				<path id="XMLID_00000113348939106229938440000012827894661000569275_" class="st26" d="M230,68.2c0.1-0.1,0.1-0.1,0.2,0
					c1.3,1.4,1.6,4.2-0.1,4.2C228.5,72.4,228.8,69.6,230,68.2z"/>
				<path id="XMLID_00000097460064799591435520000015710832863127995798_" class="st8" d="M230.1,69.3c0,0,0.1,0,0.1,0
					c0.9,1,1.1,3.1-0.1,3.1C228.9,72.4,229.1,70.3,230.1,69.3z"/>
				<path id="XMLID_00000070094909825487991520000014910988370704258998_" class="st8" d="M230,71.7l-0.1,1.8c0,0.1,0.1,0.2,0.2,0.2
					c0.1,0,0.2-0.1,0.2-0.2c0,0,0,0,0,0l-0.1-1.8c0-0.1-0.1-0.1-0.1-0.1C230.1,71.6,230,71.7,230,71.7z"/>
			</g>
		</g>
		<g>
			<polygon class="st23" points="216.9,70.2 215.9,70.2 215.9,86.1 216.9,86.1 217.4,86.1 219.5,86.1 219.5,70.2 			"/>
			<g>
				<path class="st8" d="M215.9,84.4c1,0.5,2.2,0.9,3.6,1.1v-2c-1.4-0.2-2.7-0.7-3.6-1.2V84.4z"/>
				<path class="st13" d="M215.9,82.3c0.9,0.5,2.2,0.9,3.6,1.2v-2c-1.5-0.3-2.7-0.8-3.6-1.3V82.3z"/>
				<path class="st13" d="M215.9,86.1h0.9h0.5h2.1v-0.7c-1.4-0.2-2.7-0.7-3.6-1.1V86.1z"/>
				<path class="st8" d="M215.9,80.2c0.9,0.5,2.1,1,3.6,1.3v-2c-1.5-0.3-2.7-0.9-3.6-1.3V80.2z"/>
				<path class="st13" d="M219.5,70.2h-2.7h-0.1c0.7,0.4,1.7,0.8,2.8,1.1V70.2z"/>
				<path class="st8" d="M216.8,70.2h-0.8v1.6c0.8,0.5,2,1.1,3.6,1.5v-2C218.4,71,217.5,70.6,216.8,70.2z"/>
				<path class="st13" d="M215.9,73.9c0.8,0.5,2.1,1.1,3.6,1.5v-2c-1.6-0.4-2.8-1.1-3.6-1.5V73.9z"/>
				<path class="st13" d="M215.9,78.1c0.9,0.5,2.1,1,3.6,1.3v-2c-1.5-0.3-2.8-0.9-3.6-1.4V78.1z"/>
				<path class="st8" d="M215.9,76c0.9,0.5,2.1,1.1,3.6,1.4v-2c-1.5-0.4-2.8-1-3.6-1.5V76z"/>
			</g>
			<ellipse id="XMLID_00000155836682778472903380000005826701979037339052_" class="st15" cx="217.7" cy="70.2" rx="1.8" ry="0.2"/>
			<path id="XMLID_00000048477487107703737930000002055861977132447390_" class="st13" d="M216.9,70.2c0,0.1,0.4,0.1,0.9,0.1
				s0.9-0.1,0.9-0.1c0-0.1-0.4-0.1-0.9-0.1S216.9,70.2,216.9,70.2z"/>
			<g id="XMLID_00000034801833135851973780000007973505362063770549_">
				<path id="XMLID_00000002377607388552606480000010585517120306021054_" class="st25" d="M217.6,62.3c0.1-0.1,0.2-0.1,0.3,0
					c2,2.2,2.5,6.7-0.1,6.7S215.6,64.5,217.6,62.3z"/>
				<path id="XMLID_00000140720395205153433450000007919521361161106831_" class="st26" d="M217.6,64.8c0.1-0.1,0.1-0.1,0.2,0
					c1.3,1.4,1.6,4.2-0.1,4.2C216.1,69,216.4,66.2,217.6,64.8z"/>
				<path id="XMLID_00000062161921891316155340000009740015028892346535_" class="st8" d="M217.7,65.9c0,0,0.1,0,0.1,0
					c0.9,1,1.1,3.1-0.1,3.1C216.5,69,216.7,66.9,217.7,65.9z"/>
				<path id="XMLID_00000110432974832118296110000013063560573976757388_" class="st8" d="M217.6,68.3l-0.1,1.8
					c0,0.1,0.1,0.2,0.2,0.2s0.2-0.1,0.2-0.2c0,0,0,0,0,0l-0.1-1.8c0-0.1-0.1-0.1-0.1-0.1C217.7,68.2,217.6,68.2,217.6,68.3z"/>
			</g>
		</g>
		<g>
			<polygon class="st23" points="242.9,70.2 241.9,70.2 241.9,86.1 242.9,86.1 243.4,86.1 245.5,86.1 245.5,70.2 			"/>
			<g>
				<path class="st8" d="M241.9,84.4c1,0.5,2.2,0.9,3.6,1.1v-2c-1.4-0.2-2.7-0.7-3.6-1.2V84.4z"/>
				<path class="st11" d="M241.9,82.3c0.9,0.5,2.2,0.9,3.6,1.2v-2c-1.5-0.3-2.7-0.8-3.6-1.3V82.3z"/>
				<path class="st11" d="M241.9,86.1h0.9h0.5h2.1v-0.7c-1.4-0.2-2.7-0.7-3.6-1.1V86.1z"/>
				<path class="st8" d="M241.9,80.2c0.9,0.5,2.1,1,3.6,1.3v-2c-1.5-0.3-2.7-0.9-3.6-1.3V80.2z"/>
				<path class="st11" d="M245.5,70.2h-2.7h-0.1c0.7,0.4,1.7,0.8,2.8,1.1V70.2z"/>
				<path class="st8" d="M242.7,70.2h-0.8v1.6c0.8,0.5,2,1.1,3.6,1.5v-2C244.4,71,243.4,70.6,242.7,70.2z"/>
				<path class="st11" d="M241.9,73.9c0.8,0.5,2.1,1.1,3.6,1.5v-2c-1.6-0.4-2.8-1.1-3.6-1.5V73.9z"/>
				<path class="st11" d="M241.9,78.1c0.9,0.5,2.1,1,3.6,1.3v-2c-1.5-0.3-2.8-0.9-3.6-1.4V78.1z"/>
				<path class="st8" d="M241.9,76c0.9,0.5,2.1,1.1,3.6,1.4v-2c-1.5-0.4-2.8-1-3.6-1.5V76z"/>
			</g>
			<ellipse id="XMLID_00000177467623525082311240000007853066368228096187_" class="st16" cx="243.7" cy="70.2" rx="1.8" ry="0.2"/>
			<path id="XMLID_00000068678903922809215250000018340712001891937700_" class="st11" d="M242.9,70.2c0,0.1,0.4,0.1,0.9,0.1
				s0.9-0.1,0.9-0.1c0-0.1-0.4-0.1-0.9-0.1S242.9,70.2,242.9,70.2z"/>
			<g id="XMLID_00000139292917738644097740000016531671324609724071_">
				<path id="XMLID_00000163045856196579631690000000052407342652496541_" class="st25" d="M243.6,62.3c0.1-0.1,0.2-0.1,0.3,0
					c2,2.2,2.5,6.7-0.1,6.7C241.1,69,241.6,64.5,243.6,62.3z"/>
				<path id="XMLID_00000044156758363022515660000010421041120759098258_" class="st26" d="M243.6,64.8c0.1-0.1,0.1-0.1,0.2,0
					c1.3,1.4,1.6,4.2-0.1,4.2C242.1,69,242.4,66.2,243.6,64.8z"/>
				<path id="XMLID_00000103978937009462726030000010293907422008103046_" class="st8" d="M243.6,65.9c0,0,0.1,0,0.1,0
					c0.9,1,1.1,3.1-0.1,3.1C242.5,69,242.7,66.9,243.6,65.9z"/>
				<path id="XMLID_00000139265566576170571690000016446430339573013695_" class="st8" d="M243.6,68.3l-0.1,1.8
					c0,0.1,0.1,0.2,0.2,0.2s0.2-0.1,0.2-0.2c0,0,0,0,0,0l-0.1-1.8c0-0.1-0.1-0.1-0.1-0.1C243.7,68.2,243.6,68.2,243.6,68.3z"/>
			</g>
		</g>
	</g>
	<g>
		<g id="Layer_9_00000061469965596217635250000014485720723241750174_">
			<path class="st27" d="M8.5,138c-1.4,0.3-3.7,2-4.8,4.5s-0.9,4.8,0.4,5.4c1.3,0.5,3.6-1.3,5-1.1s3.4,1.7,5.1,1
				c1.8-0.6,0.5-5.4-0.8-7.3C12.2,138.5,10.8,137.4,8.5,138L8.5,138z"/>
			<path class="st27" d="M17.8,136.1c-0.7-0.6-2-0.2-2.8,0.9c-0.8,1.1-0.9,2.5-0.2,3.1c0.7,0.7,2,0.3,2.9-0.8
				C18.5,138.2,18.6,136.8,17.8,136.1z"/>
			<path class="st27" d="M6.9,137c1.2-0.3,1.8-2.1,1.3-3.8s-1.9-2.9-3.1-2.6s-1.8,2.1-1.2,3.8S5.7,137.3,6.9,137L6.9,137z"/>
			<path class="st27" d="M3.4,136.9c-0.8-1.1-2.2-1.4-2.9-0.8s-0.7,2,0.2,3.1c0.8,1.1,2.1,1.5,2.9,0.8C4.3,139.4,4.2,138,3.4,136.9z
				"/>
			<path class="st27" d="M14.4,134.3c0.4-1.8-0.3-3.5-1.5-3.8s-2.5,0.9-2.9,2.7c-0.3,1.8,0.3,3.5,1.5,3.8
				C12.6,137.3,14,136.1,14.4,134.3L14.4,134.3z"/>
		</g>
		<g id="Layer_9_00000084508961583470078220000004108250059373752470_">
			<path class="st4" d="M34.5,144.3c-1.4,0.3-3.7,2-4.8,4.5s-0.9,4.8,0.4,5.4c1.3,0.5,3.6-1.3,5-1.1s3.4,1.7,5.1,1
				c1.8-0.6,0.5-5.4-0.8-7.3C38.2,144.9,36.7,143.8,34.5,144.3L34.5,144.3z"/>
			<path class="st4" d="M43.8,142.4c-0.7-0.6-2-0.2-2.8,0.9s-0.9,2.5-0.2,3.1c0.7,0.7,2,0.3,2.9-0.8
				C44.5,144.5,44.5,143.1,43.8,142.4z"/>
			<path class="st4" d="M32.9,143.3c1.2-0.3,1.8-2.1,1.3-3.8c-0.5-1.8-1.9-2.9-3.1-2.6c-1.2,0.3-1.8,2.1-1.2,3.8
				C30.4,142.5,31.7,143.7,32.9,143.3L32.9,143.3z"/>
			<path class="st4" d="M29.3,143.3c-0.8-1.1-2.2-1.4-2.9-0.8c-0.7,0.6-0.7,2,0.2,3.1s2.1,1.5,2.9,0.8
				C30.3,145.8,30.2,144.4,29.3,143.3z"/>
			<path class="st4" d="M40.3,140.6c0.4-1.8-0.3-3.5-1.5-3.8c-1.2-0.3-2.5,0.9-2.9,2.7c-0.3,1.8,0.3,3.5,1.5,3.8
				C38.6,143.6,39.9,142.4,40.3,140.6L40.3,140.6z"/>
		</g>
		<g id="Layer_9_00000123434314393041080700000015559822403713966728_">
			<path class="st27" d="M60.4,138c-1.4,0.3-3.7,2-4.8,4.5s-0.9,4.8,0.4,5.4c1.3,0.5,3.6-1.3,5-1.1s3.4,1.7,5.1,1
				c1.8-0.6,0.5-5.4-0.8-7.3C64.2,138.5,62.7,137.4,60.4,138L60.4,138z"/>
			<path class="st27" d="M69.7,136.1c-0.7-0.6-2-0.2-2.8,0.9c-0.8,1.1-0.9,2.5-0.2,3.1c0.7,0.7,2,0.3,2.9-0.8
				C70.4,138.2,70.5,136.8,69.7,136.1z"/>
			<path class="st27" d="M58.9,137c1.2-0.3,1.8-2.1,1.3-3.8c-0.5-1.8-1.9-2.9-3.1-2.6s-1.8,2.1-1.2,3.8
				C56.3,136.2,57.6,137.3,58.9,137L58.9,137z"/>
			<path class="st27" d="M55.3,136.9c-0.8-1.1-2.2-1.4-2.9-0.8s-0.7,2,0.2,3.1c0.8,1.1,2.1,1.5,2.9,0.8
				C56.2,139.4,56.1,138,55.3,136.9z"/>
			<path class="st27" d="M66.3,134.3c0.4-1.8-0.3-3.5-1.5-3.8s-2.5,0.9-2.9,2.7c-0.3,1.8,0.3,3.5,1.5,3.8
				C64.5,137.3,65.9,136.1,66.3,134.3L66.3,134.3z"/>
		</g>
		<g id="Layer_9_00000156546690115329152070000001376629546509985422_">
			<path class="st4" d="M86.4,144.3c-1.4,0.3-3.7,2-4.8,4.5c-1.1,2.4-0.9,4.8,0.4,5.4c1.3,0.5,3.6-1.3,5-1.1c1.5,0.2,3.4,1.7,5.1,1
				c1.8-0.6,0.5-5.4-0.8-7.3C90.1,144.9,88.7,143.8,86.4,144.3L86.4,144.3z"/>
			<path class="st4" d="M95.7,142.4c-0.7-0.6-2-0.2-2.8,0.9c-0.8,1.1-0.9,2.5-0.2,3.1c0.7,0.7,2,0.3,2.9-0.8
				C96.4,144.5,96.5,143.1,95.7,142.4z"/>
			<path class="st4" d="M84.8,143.3c1.2-0.3,1.8-2.1,1.3-3.8c-0.5-1.8-1.9-2.9-3.1-2.6c-1.2,0.3-1.8,2.1-1.2,3.8
				C82.3,142.5,83.6,143.7,84.8,143.3L84.8,143.3z"/>
			<path class="st4" d="M81.3,143.3c-0.8-1.1-2.2-1.4-2.9-0.8c-0.7,0.6-0.7,2,0.2,3.1c0.8,1.1,2.1,1.5,2.9,0.8
				C82.2,145.8,82.1,144.4,81.3,143.3z"/>
			<path class="st4" d="M92.3,140.6c0.4-1.8-0.3-3.5-1.5-3.8c-1.2-0.3-2.5,0.9-2.9,2.7c-0.3,1.8,0.3,3.5,1.5,3.8
				C90.5,143.6,91.9,142.4,92.3,140.6L92.3,140.6z"/>
		</g>
		<g id="Layer_9_00000039826497256180455880000013135799574841356684_">
			<path class="st27" d="M112.4,138c-1.4,0.3-3.7,2-4.8,4.5c-1.1,2.4-0.9,4.8,0.4,5.4c1.3,0.5,3.6-1.3,5-1.1c1.5,0.2,3.4,1.7,5.1,1
				c1.8-0.6,0.5-5.4-0.8-7.3C116.1,138.5,114.6,137.4,112.4,138L112.4,138z"/>
			<path class="st27" d="M121.7,136.1c-0.7-0.6-2-0.2-2.8,0.9c-0.8,1.1-0.9,2.5-0.2,3.1c0.7,0.7,2,0.3,2.9-0.8
				C122.4,138.2,122.4,136.8,121.7,136.1z"/>
			<path class="st27" d="M110.8,137c1.2-0.3,1.8-2.1,1.3-3.8s-1.9-2.9-3.1-2.6c-1.2,0.3-1.8,2.1-1.2,3.8S109.6,137.3,110.8,137
				L110.8,137z"/>
			<path class="st27" d="M107.2,136.9c-0.8-1.1-2.2-1.4-2.9-0.8s-0.7,2,0.2,3.1c0.8,1.1,2.1,1.5,2.9,0.8
				C108.2,139.4,108.1,138,107.2,136.9z"/>
			<path class="st27" d="M118.2,134.3c0.4-1.8-0.3-3.5-1.5-3.8c-1.2-0.3-2.5,0.9-2.9,2.7c-0.3,1.8,0.3,3.5,1.5,3.8
				C116.5,137.3,117.8,136.1,118.2,134.3L118.2,134.3z"/>
		</g>
		<g id="Layer_9_00000021091768692018443430000010959675350457974171_">
			<path class="st4" d="M138.3,144.3c-1.4,0.3-3.7,2-4.8,4.5c-1.1,2.4-0.9,4.8,0.4,5.4c1.3,0.5,3.6-1.3,5-1.1c1.5,0.2,3.4,1.7,5.1,1
				c1.8-0.6,0.5-5.4-0.8-7.3C142.1,144.9,140.6,143.8,138.3,144.3L138.3,144.3z"/>
			<path class="st4" d="M147.6,142.4c-0.7-0.6-2-0.2-2.8,0.9c-0.8,1.1-0.9,2.5-0.2,3.1c0.7,0.7,2,0.3,2.9-0.8
				C148.3,144.5,148.4,143.1,147.6,142.4z"/>
			<path class="st4" d="M136.8,143.3c1.2-0.3,1.8-2.1,1.3-3.8c-0.5-1.8-1.9-2.9-3.1-2.6c-1.2,0.3-1.8,2.1-1.2,3.8
				C134.2,142.5,135.5,143.7,136.8,143.3L136.8,143.3z"/>
			<path class="st4" d="M133.2,143.3c-0.8-1.1-2.2-1.4-2.9-0.8c-0.7,0.6-0.7,2,0.2,3.1s2.1,1.5,2.9,0.8
				C134.1,145.8,134,144.4,133.2,143.3z"/>
			<path class="st4" d="M144.2,140.6c0.4-1.8-0.3-3.5-1.5-3.8c-1.2-0.3-2.5,0.9-2.9,2.7c-0.3,1.8,0.3,3.5,1.5,3.8
				C142.5,143.6,143.8,142.4,144.2,140.6L144.2,140.6z"/>
		</g>
		<g id="Layer_9_00000011710622229672241330000006913116572756131483_">
			<path class="st27" d="M164.3,138c-1.4,0.3-3.7,2-4.8,4.5s-0.9,4.8,0.4,5.4c1.3,0.5,3.6-1.3,5-1.1c1.5,0.2,3.4,1.7,5.1,1
				c1.8-0.6,0.5-5.4-0.8-7.3C168,138.5,166.6,137.4,164.3,138L164.3,138z"/>
			<path class="st27" d="M173.6,136.1c-0.7-0.6-2-0.2-2.8,0.9c-0.8,1.1-0.9,2.5-0.2,3.1c0.7,0.7,2,0.3,2.9-0.8
				C174.3,138.2,174.4,136.8,173.6,136.1z"/>
			<path class="st27" d="M162.7,137c1.2-0.3,1.8-2.1,1.3-3.8c-0.5-1.8-1.9-2.9-3.1-2.6s-1.8,2.1-1.2,3.8
				C160.2,136.2,161.5,137.3,162.7,137L162.7,137z"/>
			<path class="st27" d="M159.2,136.9c-0.8-1.1-2.2-1.4-2.9-0.8s-0.7,2,0.2,3.1c0.8,1.1,2.1,1.5,2.9,0.8
				C160.1,139.4,160,138,159.2,136.9z"/>
			<path class="st27" d="M170.2,134.3c0.4-1.8-0.3-3.5-1.5-3.8c-1.2-0.3-2.5,0.9-2.9,2.7c-0.3,1.8,0.3,3.5,1.5,3.8
				C168.4,137.3,169.8,136.1,170.2,134.3L170.2,134.3z"/>
		</g>
	</g>
	<g>
		<g id="Layer_9_00000176756849247212984590000009755980548017254555_">
			<path class="st27" d="M294.1,138c-1.4,0.3-3.7,2-4.8,4.5s-0.9,4.8,0.4,5.4c1.3,0.5,3.6-1.3,5-1.1c1.5,0.2,3.4,1.7,5.1,1
				c1.8-0.6,0.5-5.4-0.8-7.3C297.8,138.5,296.3,137.4,294.1,138L294.1,138z"/>
			<path class="st27" d="M303.4,136.1c-0.7-0.6-2-0.2-2.8,0.9c-0.8,1.1-0.9,2.5-0.2,3.1c0.7,0.7,2,0.3,2.9-0.8
				C304,138.2,304.1,136.8,303.4,136.1z"/>
			<path class="st27" d="M292.5,137c1.2-0.3,1.8-2.1,1.3-3.8c-0.5-1.8-1.9-2.9-3.1-2.6s-1.8,2.1-1.2,3.8
				C290,136.2,291.3,137.3,292.5,137L292.5,137z"/>
			<path class="st27" d="M288.9,136.9c-0.8-1.1-2.2-1.4-2.9-0.8s-0.7,2,0.2,3.1c0.8,1.1,2.1,1.5,2.9,0.8
				C289.8,139.4,289.8,138,288.9,136.9z"/>
			<path class="st27" d="M299.9,134.3c0.4-1.8-0.3-3.5-1.5-3.8c-1.2-0.3-2.5,0.9-2.9,2.7c-0.3,1.8,0.3,3.5,1.5,3.8
				C298.2,137.3,299.5,136.1,299.9,134.3L299.9,134.3z"/>
		</g>
		<g id="Layer_9_00000116225697319073543840000006173344659718627736_">
			<path class="st4" d="M320,144.3c-1.4,0.3-3.7,2-4.8,4.5c-1.1,2.4-0.9,4.8,0.4,5.4c1.3,0.5,3.6-1.3,5-1.1s3.4,1.7,5.1,1
				c1.8-0.6,0.5-5.4-0.8-7.3C323.8,144.9,322.3,143.8,320,144.3L320,144.3z"/>
			<path class="st4" d="M329.3,142.4c-0.7-0.6-2-0.2-2.8,0.9c-0.8,1.1-0.9,2.5-0.2,3.1c0.7,0.7,2,0.3,2.9-0.8
				C330,144.5,330.1,143.1,329.3,142.4z"/>
			<path class="st4" d="M318.5,143.3c1.2-0.3,1.8-2.1,1.3-3.8c-0.5-1.8-1.9-2.9-3.1-2.6s-1.8,2.1-1.2,3.8
				C315.9,142.5,317.2,143.7,318.5,143.3L318.5,143.3z"/>
			<path class="st4" d="M314.9,143.3c-0.8-1.1-2.2-1.4-2.9-0.8c-0.7,0.6-0.7,2,0.2,3.1c0.8,1.1,2.1,1.5,2.9,0.8
				C315.8,145.8,315.7,144.4,314.9,143.3z"/>
			<path class="st4" d="M325.9,140.6c0.4-1.8-0.3-3.5-1.5-3.8c-1.2-0.3-2.5,0.9-2.9,2.7c-0.3,1.8,0.3,3.5,1.5,3.8
				C324.1,143.6,325.5,142.4,325.9,140.6L325.9,140.6z"/>
		</g>
		<g id="Layer_9_00000083805769509637277030000008462860226210622367_">
			<path class="st27" d="M346,138c-1.4,0.3-3.7,2-4.8,4.5c-1.1,2.4-0.9,4.8,0.4,5.4c1.3,0.5,3.6-1.3,5-1.1s3.4,1.7,5.1,1
				c1.8-0.6,0.5-5.4-0.8-7.3C349.7,138.5,348.3,137.4,346,138L346,138z"/>
			<path class="st27" d="M355.3,136.1c-0.7-0.6-2-0.2-2.8,0.9c-0.8,1.1-0.9,2.5-0.2,3.1c0.7,0.7,2,0.3,2.9-0.8
				C356,138.2,356.1,136.8,355.3,136.1z"/>
			<path class="st27" d="M344.4,137c1.2-0.3,1.8-2.1,1.3-3.8s-1.9-2.9-3.1-2.6c-1.2,0.3-1.8,2.1-1.2,3.8S343.2,137.3,344.4,137
				L344.4,137z"/>
			<path class="st27" d="M340.9,136.9c-0.8-1.1-2.2-1.4-2.9-0.8s-0.7,2,0.2,3.1c0.8,1.1,2.1,1.5,2.9,0.8
				C341.8,139.4,341.7,138,340.9,136.9z"/>
			<path class="st27" d="M351.9,134.3c0.4-1.8-0.3-3.5-1.5-3.8s-2.5,0.9-2.9,2.7c-0.3,1.8,0.3,3.5,1.5,3.8
				C350.1,137.3,351.4,136.1,351.9,134.3L351.9,134.3z"/>
		</g>
		<g id="Layer_9_00000109715939404323555210000015648147428520318861_">
			<path class="st4" d="M372,144.3c-1.4,0.3-3.7,2-4.8,4.5c-1.1,2.4-0.9,4.8,0.4,5.4c1.3,0.5,3.6-1.3,5-1.1c1.5,0.2,3.4,1.7,5.1,1
				c1.8-0.6,0.5-5.4-0.8-7.3C375.7,144.9,374.2,143.8,372,144.3L372,144.3z"/>
			<path class="st4" d="M381.3,142.4c-0.7-0.6-2-0.2-2.8,0.9c-0.8,1.1-0.9,2.5-0.2,3.1c0.7,0.7,2,0.3,2.9-0.8
				C381.9,144.5,382,143.1,381.3,142.4z"/>
			<path class="st4" d="M370.4,143.3c1.2-0.3,1.8-2.1,1.3-3.8c-0.5-1.8-1.9-2.9-3.1-2.6s-1.8,2.1-1.2,3.8
				C367.9,142.5,369.2,143.7,370.4,143.3L370.4,143.3z"/>
			<path class="st4" d="M366.8,143.3c-0.8-1.1-2.2-1.4-2.9-0.8c-0.7,0.6-0.7,2,0.2,3.1s2.1,1.5,2.9,0.8
				C367.7,145.8,367.7,144.4,366.8,143.3z"/>
			<path class="st4" d="M377.8,140.6c0.4-1.8-0.3-3.5-1.5-3.8c-1.2-0.3-2.5,0.9-2.9,2.7c-0.3,1.8,0.3,3.5,1.5,3.8
				C376.1,143.6,377.4,142.4,377.8,140.6L377.8,140.6z"/>
		</g>
		<g id="Layer_9_00000095321176811714442500000000185630258093630387_">
			<path class="st27" d="M397.9,138c-1.4,0.3-3.7,2-4.8,4.5s-0.9,4.8,0.4,5.4c1.3,0.5,3.6-1.3,5-1.1c1.5,0.2,3.4,1.7,5.1,1
				c1.8-0.6,0.5-5.4-0.8-7.3C401.7,138.5,400.2,137.4,397.9,138L397.9,138z"/>
			<path class="st27" d="M407.2,136.1c-0.7-0.6-2-0.2-2.8,0.9c-0.8,1.1-0.9,2.5-0.2,3.1c0.7,0.7,2,0.3,2.9-0.8
				C407.9,138.2,408,136.8,407.2,136.1z"/>
			<path class="st27" d="M396.4,137c1.2-0.3,1.8-2.1,1.3-3.8c-0.5-1.8-1.9-2.9-3.1-2.6s-1.8,2.1-1.2,3.8
				C393.8,136.2,395.1,137.3,396.4,137L396.4,137z"/>
			<path class="st27" d="M392.8,136.9c-0.8-1.1-2.2-1.4-2.9-0.8s-0.7,2,0.2,3.1c0.8,1.1,2.1,1.5,2.9,0.8
				C393.7,139.4,393.6,138,392.8,136.9z"/>
			<path class="st27" d="M403.8,134.3c0.4-1.8-0.3-3.5-1.5-3.8c-1.2-0.3-2.5,0.9-2.9,2.7c-0.3,1.8,0.3,3.5,1.5,3.8
				C402,137.3,403.4,136.1,403.8,134.3L403.8,134.3z"/>
		</g>
		<g id="Layer_9_00000059273837579567842220000013578304600446625455_">
			<path class="st4" d="M423.9,144.3c-1.4,0.3-3.7,2-4.8,4.5c-1.1,2.4-0.9,4.8,0.4,5.4c1.3,0.5,3.6-1.3,5-1.1c1.5,0.2,3.4,1.7,5.1,1
				c1.8-0.6,0.5-5.4-0.8-7.3C427.6,144.9,426.2,143.8,423.9,144.3L423.9,144.3z"/>
			<path class="st4" d="M433.2,142.4c-0.7-0.6-2-0.2-2.8,0.9c-0.8,1.1-0.9,2.5-0.2,3.1c0.7,0.7,2,0.3,2.9-0.8
				C433.9,144.5,434,143.1,433.2,142.4z"/>
			<path class="st4" d="M422.3,143.3c1.2-0.3,1.8-2.1,1.3-3.8c-0.5-1.8-1.9-2.9-3.1-2.6s-1.8,2.1-1.2,3.8
				C419.8,142.5,421.1,143.7,422.3,143.3L422.3,143.3z"/>
			<path class="st4" d="M418.8,143.3c-0.8-1.1-2.2-1.4-2.9-0.8c-0.7,0.6-0.7,2,0.2,3.1c0.8,1.1,2.1,1.5,2.9,0.8
				C419.7,145.8,419.6,144.4,418.8,143.3z"/>
			<path class="st4" d="M429.8,140.6c0.4-1.8-0.3-3.5-1.5-3.8c-1.2-0.3-2.5,0.9-2.9,2.7c-0.3,1.8,0.3,3.5,1.5,3.8
				C428,143.6,429.4,142.4,429.8,140.6L429.8,140.6z"/>
		</g>
		<g id="Layer_9_00000088818055548394624490000007412654657133332150_">
			<path class="st27" d="M449.9,138c-1.4,0.3-3.7,2-4.8,4.5c-1.1,2.4-0.9,4.8,0.4,5.4c1.3,0.5,3.6-1.3,5-1.1s3.4,1.7,5.1,1
				c1.8-0.6,0.5-5.4-0.8-7.3C453.6,138.5,452.1,137.4,449.9,138L449.9,138z"/>
			<path class="st27" d="M459.2,136.1c-0.7-0.6-2-0.2-2.8,0.9c-0.8,1.1-0.9,2.5-0.2,3.1c0.7,0.7,2,0.3,2.9-0.8
				C459.8,138.2,459.9,136.8,459.2,136.1z"/>
			<path class="st27" d="M448.3,137c1.2-0.3,1.8-2.1,1.3-3.8s-1.9-2.9-3.1-2.6c-1.2,0.3-1.8,2.1-1.2,3.8S447.1,137.3,448.3,137
				L448.3,137z"/>
			<path class="st27" d="M444.7,136.9c-0.8-1.1-2.2-1.4-2.9-0.8s-0.7,2,0.2,3.1c0.8,1.1,2.1,1.5,2.9,0.8
				C445.6,139.4,445.6,138,444.7,136.9z"/>
			<path class="st27" d="M455.7,134.3c0.4-1.8-0.3-3.5-1.5-3.8s-2.5,0.9-2.9,2.7c-0.3,1.8,0.3,3.5,1.5,3.8
				C454,137.3,455.3,136.1,455.7,134.3L455.7,134.3z"/>
		</g>
	</g>
</g>
</svg>
