<?xml version="1.0" encoding="UTF-8"?><svg id="Layer_2" xmlns="http://www.w3.org/2000/svg" viewBox="0 0 296.28 359.97" width="35px" height="43px"><defs><style>.cls-1{fill:#fff;}.cls-2{fill:#ffc66d;}.cls-3{fill:#ffc5c5;}.cls-4{fill:#ffb3b3;}.cls-5{fill:#7e7074;}.cls-6{fill:#daeaef;}.cls-7{fill:#231f20;}</style></defs><g id="Layer_4"><path class="cls-7" d="M295.59,252.49c-1.54-12.94-5.65-25.26-12.2-36.62l-64.49-111.7c-6.41-11.11-11.3-23.97-14.52-38.23-.05-.22-.11-.44-.17-.66-3.1-12.91-10.99-23.52-21.7-29.52-.73-8.28-3.01-15.96-9.97-18.87-3.39-1.42-7.16-1.18-10.33,.64-3.92,2.26-6.39,6.33-8.07,13.75-2.35,.48-4.67,1.16-6.93,2.04-8.68-12.86-22.58-20.9-37.14-21.33C107.1,5.94,102.88,.66,96.31,.05c-3.66-.34-7.19,1.01-9.68,3.71-3.27,3.55-4.34,8.61-3.43,17.19-5.75,4.6-10.21,10.72-13.03,17.8-7.52-1.1-15.04-.29-21.9,2.37-6.97-5.09-11.89-6.69-16.6-5.63-3.58,.8-6.52,3.18-8.05,6.52-2.75,5.98-.29,12.28,3.47,17.87-6.91,12.82-6.91,28.9-.1,42.86-1.88,1.51-3.62,3.17-5.2,4.97-7.28-2.26-12.04-2.16-15.96,.11-3.17,1.84-5.26,4.98-5.73,8.63-.96,7.47,4.54,13.28,11.33,18.05-.17,12.5,5.25,24.86,15.22,34.06,10.74,9.91,19.43,20.57,25.85,31.68l64.48,111.69c8.81,15.25,21.58,27.76,36.94,36.18,14.27,7.82,30.27,11.86,46.35,11.86,5.82,0,11.65-.53,17.42-1.6,10.71-1.97,20.98-5.76,30.51-11.27,22.21-12.82,38.11-33.54,44.76-58.33,3.2-11.9,4.07-24.1,2.61-36.28Zm-12.27,33.69c-5.71,21.27-19.52,40.38-40.1,52.26-8.72,5.04-17.96,8.37-27.32,10.09-19.65,3.66-39.88,.27-57.15-9.19-13.34-7.31-24.92-18.26-33.09-32.41L61.17,195.24c-7.36-12.76-16.91-24.05-27.73-34.03-9.09-8.4-13.58-20.38-11.49-31.82-5.67-3.42-12.36-8.22-11.92-11.67,.44-3.47,8.67-.8,15.43,2,2.79-4.95,6.86-9.08,11.98-12.04,1.07-.62,2.2-1.18,3.34-1.67t-.02-.03c-11.49-14.55-11.69-34.11-1.38-46.5-4.03-4.73-7.98-10.42-6.67-13.28,1.48-3.21,8.68,1.94,14.32,6.68,.22-.13,.42-.28,.64-.4,8.92-5.15,19.75-5.42,29.53-1.54,1.54-10.41,7.18-19.66,16.1-24.81,.23-.13,.47-.24,.7-.37-1.29-7.25-2.14-16.07,1.37-15.75,3.14,.29,6.09,6.57,8.17,12.42,15.88-2.72,32.7,7.24,39.55,24.45t.02,.03c1-.74,2.05-1.44,3.13-2.06,5.13-2.96,10.75-4.45,16.44-4.38,.95-7.25,2.76-15.69,5.98-14.35,3.21,1.34,4.02,9.56,4.14,16.18,10.95,3.92,19.06,13.79,21.79,25.85h.02c3.25,14.35,8.25,28.26,15.62,41.02l64.49,111.7c6.02,10.42,9.6,21.56,10.93,32.8,1.32,10.96,.48,22-2.34,32.51Z"/><g><g><path class="cls-6" d="M10.03,117.72c-.76,5.92,19.55,15.86,19.55,15.86l4.72-9.81s-23.5-11.97-24.26-6.05Z"/><path class="cls-6" d="M32.71,46.19c-2.49,5.42,13.92,20.97,13.92,20.97l7.43-7.95s-18.86-18.44-21.35-13.02Z"/><path class="cls-6" d="M168.67,26.12c5.51,2.3,3.96,24.86,3.96,24.86l-10.86-.82s1.38-26.34,6.89-24.04Z"/><path class="cls-6" d="M95.39,10.01c5.94,.55,11.2,22.54,11.2,22.54l-10.6,2.46s-6.54-25.55-.6-25Z"/></g><path class="cls-1" d="M194.62,68.15c3.25,14.36,8.25,28.27,15.62,41.03l64.49,111.7c6.01,10.42,9.6,21.56,10.93,32.8,1.32,10.96,.48,22-2.34,32.51-5.71,21.27-19.52,40.38-40.1,52.26-8.72,5.03-17.96,8.37-27.32,10.09-19.65,3.66-39.88,.27-57.15-9.19-13.34-7.31-24.92-18.26-33.09-32.41L61.17,195.24c-7.36-12.76-16.91-24.05-27.73-34.03-10.69-9.87-15.05-24.68-9.8-37.77,2.66-6.63,7.43-12.09,13.8-15.76,1.07-.62,2.2-1.18,3.34-1.67l-.02-.03c-12.99-16.46-11.55-39.33,3.2-50.97,1.17-.93,2.42-1.78,3.71-2.53,8.92-5.15,19.75-5.42,29.53-1.54,1.54-10.41,7.18-19.66,16.1-24.81,1.29-.74,2.66-1.41,4.04-1.95,17.47-6.97,38,3.23,45.74,22.71l.02,.03c1-.74,2.05-1.44,3.13-2.06,6.37-3.68,13.47-5.09,20.54-4.06,13.96,2,24.61,13.18,27.81,27.37h.02Z"/><g><path class="cls-2" d="M167.12,121.28c-30.29,17.49-42.9,52.38-28.15,77.92,14.75,25.54,51.26,32.07,81.56,14.58,14.55-8.4,25-20.81,30.32-34.28l-38.88-67.35c-14.32-2.13-30.3,.72-44.84,9.12Z"/><path class="cls-5" d="M223.89,280.63c-13.46-23.31-46.78-29.27-74.43-13.31-13.63,7.87-23.32,19.59-28.05,32.25l4.25,7.36c8.17,14.15,19.75,25.1,33.09,32.41,12.95,7.1,27.56,10.78,42.35,10.63,25.54-16.46,35.78-46.86,22.8-69.34Z"/><path class="cls-5" d="M71.65,107.39c-7.97-13.81-22.92-21.53-39.53-22.21,.8,7.21,3.65,14.47,8.64,20.79t.02,.03c-1.14,.5-2.27,1.05-3.34,1.67-6.37,3.67-11.14,9.13-13.8,15.76-5.25,13.09-.89,27.9,9.8,37.77,5.35,4.94,10.39,10.2,15,15.79,25.84-16.39,36.26-47.01,23.21-69.61Z"/></g><g><path class="cls-4" d="M163.6,105.41l-19.26-1.05c-1.97-.11-3.64-1.07-4.53-2.61l-1.28-2.23c-6.83-11.84-23.53-15-37.3-7.05-13.77,7.95-19.38,23.99-12.54,35.83l1.28,2.23c.89,1.54,.89,3.48,0,5.23l-8.72,17.21c-4.89,9.66-3.22,21.78,5.01,29.09,7.97,7.09,18.96,7.45,28.38,3.13,11.09-5.09,15.76-16.7,26.12-22.46,7.9-4.39,16.99-5.85,25.44-8.83,9.32-3.29,18.11-10.31,20.17-20.47,2.95-14.63-7.24-27.17-22.75-28.02h0Z"/><ellipse class="cls-4" cx="161.45" cy="78.27" rx="19.42" ry="15.65" transform="translate(61.03 226.96) rotate(-81.83)"/><ellipse class="cls-4" cx="58.81" cy="137.52" rx="15.65" ry="19.42" transform="translate(-90.72 140.97) rotate(-68.17)"/><ellipse class="cls-4" cx="67.53" cy="84.82" rx="15.65" ry="19.58" transform="translate(-38.03 60.09) rotate(-38.29)"/><ellipse class="cls-4" cx="111.46" cy="59.48" rx="15.65" ry="19.58" transform="translate(-14.09 45.45) rotate(-21.71)"/><ellipse class="cls-3" cx="93.24" cy="157.03" rx="11.8" ry="7.22" transform="translate(-88.23 177.52) rotate(-65.74)"/><ellipse class="cls-3" cx="98.61" cy="109.54" rx="10.99" ry="7.25" transform="translate(-41.78 154.44) rotate(-65.74)"/><ellipse class="cls-3" cx="47.62" cy="136.47" rx="4.44" ry="6.73" transform="translate(-47.1 27.29) rotate(-21.71)"/><ellipse class="cls-3" cx="58.18" cy="80.69" rx="4.97" ry="6.73" transform="translate(-17.97 16.68) rotate(-14.16)"/><ellipse class="cls-3" cx="103.08" cy="52.04" rx="6.73" ry="4.97" transform="translate(33.41 144.13) rotate(-79.68)"/><ellipse class="cls-3" cx="156.45" cy="69.61" rx="6.73" ry="4.97" transform="translate(14.19 164.93) rotate(-57.81)"/></g></g></g></svg>