<?xml version="1.0" encoding="UTF-8"?><svg id="Layer_2" xmlns="http://www.w3.org/2000/svg" viewBox="0 0 296.28 359.98" width="35px" height="43px"><defs><style>.cls-1{fill:#fff;}.cls-2{fill:#ffc66d;}.cls-3{fill:#ffc5c5;}.cls-4{fill:#ffb3b3;}.cls-5{fill:#7e7074;}.cls-6{fill:#daeaef;}.cls-7{fill:#231f20;}</style></defs><g id="Layer_3"><path class="cls-7" d="M295.59,252.49c-1.54-12.94-5.65-25.26-12.2-36.61l-64.49-111.7c-6.41-11.11-11.3-23.97-14.52-38.23-.05-.22-.11-.44-.17-.65-3.13-13.06-11.11-23.62-21.72-29.56-.69-7.66-2.76-15.82-9.96-18.83,0,0,0,0,0,0-3.56-1.49-7.47-1.16-10.73,.89-1.8,1.13-5.28,3.33-7.69,13.52-2.34,.48-4.64,1.14-6.9,2.02-4.8-7.14-11.27-12.89-18.88-16.67-5.9-2.93-12.1-4.48-18.26-4.67C107.14,6.01,102.95,.67,96.31,.05c-3.83-.36-7.48,1.12-9.98,4.05-1.45,1.7-4.32,5.08-3.16,16.89-5.73,4.6-10.19,10.7-12.99,17.76-7.51-1.1-15.01-.29-21.85,2.37-9.64-6.91-14.01-6.12-16.21-5.71-3.79,.7-6.89,3.11-8.5,6.62h0c-2.78,6.06-.26,12.35,3.45,17.86-2.93,5.44-4.69,11.59-5.11,18.17-.53,8.48,1.22,16.97,5,24.7-1.88,1.51-3.6,3.17-5.18,4.95-10.03-3-13.67-1.09-15.55-.1-3.41,1.8-5.65,5.03-6.14,8.85-.99,7.72,5.03,13.59,11.31,18.02-.17,12.38,5.17,24.79,15.24,34.09,10.74,9.91,19.43,20.57,25.85,31.68l64.49,111.69c8.81,15.25,21.58,27.76,36.94,36.18,14.27,7.82,30.27,11.86,46.35,11.86,5.82,0,11.65-.53,17.42-1.6,10.71-1.97,20.97-5.76,30.51-11.27,22.21-12.82,38.11-33.54,44.76-58.33,3.2-11.9,4.08-24.11,2.61-36.28Zm-12.27,33.69c-5.71,21.27-19.52,40.38-40.1,52.26-8.72,5.03-17.96,8.37-27.32,10.09-19.65,3.66-39.88,.27-57.15-9.19-13.34-7.31-24.92-18.26-33.09-32.41L61.17,195.24c-7.37-12.76-16.91-24.05-27.73-34.03-9.09-8.4-13.58-20.38-11.49-31.82-5.67-3.42-12.36-8.22-11.92-11.67,.44-3.47,8.67-.8,15.43,2,2.79-4.95,6.86-9.08,11.98-12.04,1.07-.62,2.2-1.18,3.34-1.67t-.02-.03c-11.49-14.55-11.69-34.11-1.38-46.5-4.03-4.73-7.98-10.42-6.67-13.28,1.48-3.21,8.68,1.94,14.32,6.68,.22-.13,.42-.28,.64-.4,8.92-5.15,19.75-5.42,29.53-1.54,1.54-10.41,7.18-19.66,16.1-24.81,.23-.13,.47-.24,.7-.37-1.29-7.25-2.14-16.07,1.37-15.75,3.14,.29,6.09,6.57,8.17,12.42,15.88-2.72,32.7,7.24,39.55,24.45l.02,.03c1-.74,2.05-1.44,3.13-2.06,5.13-2.96,10.75-4.45,16.44-4.38,.95-7.25,2.76-15.69,5.98-14.35,3.21,1.34,4.02,9.56,4.14,16.18,10.95,3.92,19.06,13.79,21.79,25.85h.02c3.25,14.35,8.25,28.26,15.62,41.02l64.49,111.7c6.02,10.42,9.6,21.56,10.93,32.8,1.32,10.96,.48,22-2.34,32.51Z"/><g><g><path class="cls-6" d="M10.03,117.72c-.76,5.92,19.55,15.86,19.55,15.86l4.72-9.81s-23.5-11.97-24.26-6.05Z"/><path class="cls-6" d="M32.71,46.19c-2.49,5.42,13.92,20.97,13.92,20.97l7.43-7.95s-18.86-18.44-21.35-13.02Z"/><path class="cls-6" d="M168.67,26.13c5.51,2.3,3.96,24.86,3.96,24.86l-10.86-.82s1.38-26.34,6.89-24.04Z"/><path class="cls-6" d="M95.39,10.01c5.94,.55,11.2,22.54,11.2,22.54l-10.6,2.46s-6.54-25.55-.6-25Z"/></g><path class="cls-1" d="M194.62,68.15c3.25,14.36,8.25,28.27,15.62,41.03l64.49,111.7c6.01,10.42,9.6,21.56,10.93,32.8,1.32,10.96,.48,22-2.34,32.51-5.71,21.27-19.52,40.38-40.1,52.26-8.72,5.03-17.96,8.37-27.32,10.09-19.65,3.66-39.88,.27-57.15-9.19-13.34-7.31-24.92-18.26-33.09-32.41L61.17,195.24c-7.36-12.76-16.91-24.05-27.73-34.03-10.69-9.87-15.05-24.68-9.8-37.77,2.66-6.63,7.43-12.09,13.8-15.76,1.07-.62,2.2-1.18,3.34-1.67l-.02-.03c-12.99-16.46-11.55-39.33,3.2-50.97,1.17-.93,2.42-1.78,3.71-2.53,8.92-5.15,19.75-5.42,29.53-1.54,1.54-10.41,7.18-19.66,16.1-24.81,1.29-.74,2.66-1.41,4.04-1.95,17.47-6.97,38,3.23,45.74,22.71l.02,.03c1-.74,2.05-1.44,3.13-2.06,6.37-3.68,13.47-5.09,20.54-4.06,13.96,2,24.61,13.18,27.81,27.37h.02Z"/><g><path class="cls-5" d="M117.87,194.81c-13.07-22.63-43.21-30.32-70.98-19.62,5.33,6.25,10.16,12.92,14.28,20.06l40.03,69.33c21.76-18.78,29.39-47.74,16.68-69.76Z"/><path class="cls-5" d="M204.66,213.82c13.75,23.81,46.41,31.09,75.32,17.8-1.48-3.65-3.22-7.24-5.25-10.74l-47.15-81.66c-26.47,18.31-36.79,50.59-22.92,74.61Z"/><path class="cls-2" d="M241.52,304.01c-13.46-23.31-46.78-29.27-74.43-13.31-14.03,8.1-23.89,20.29-28.45,33.38,5.99,6.14,12.78,11.26,20.11,15.27,17.28,9.47,37.5,12.85,57.15,9.19,9.36-1.72,18.6-5.06,27.32-10.09,.85-.49,1.67-1.01,2.5-1.53,2.76-11.25,1.6-22.87-4.2-32.91Z"/><path class="cls-2" d="M84.74,73.81c13.46,23.31,46.78,29.27,74.43,13.31,14.16-8.18,24.07-20.52,28.58-33.74-5.12-6.69-12.41-11.37-20.96-12.59-7.07-1.02-14.17,.39-20.54,4.06-1.08,.62-2.13,1.32-3.13,2.06l-.02-.03c-7.75-19.48-28.28-29.68-45.74-22.71-1.38,.54-2.75,1.21-4.04,1.95-5.33,3.08-9.49,7.63-12.3,13.01-3.33,11.8-2.38,24.11,3.72,34.68Z"/></g><g><path class="cls-4" d="M163.59,105.41l-19.26-1.05c-1.97-.11-3.64-1.07-4.53-2.61l-1.28-2.23c-6.83-11.84-23.53-15-37.3-7.05-13.77,7.95-19.38,23.99-12.54,35.83l1.28,2.23c.89,1.54,.89,3.48,0,5.23l-8.72,17.21c-4.89,9.66-3.22,21.78,5.01,29.09,7.97,7.09,18.96,7.45,28.38,3.13,11.09-5.09,15.76-16.7,26.12-22.46,7.9-4.39,16.99-5.85,25.44-8.83,9.32-3.29,18.11-10.31,20.17-20.47,2.95-14.63-7.24-27.17-22.75-28.02h0Z"/><ellipse class="cls-4" cx="161.45" cy="78.27" rx="19.42" ry="15.65" transform="translate(61.03 226.96) rotate(-81.83)"/><ellipse class="cls-4" cx="58.81" cy="137.52" rx="15.65" ry="19.42" transform="translate(-90.72 140.97) rotate(-68.17)"/><ellipse class="cls-4" cx="67.53" cy="84.82" rx="15.65" ry="19.58" transform="translate(-38.03 60.09) rotate(-38.29)"/><ellipse class="cls-4" cx="111.46" cy="59.48" rx="15.65" ry="19.58" transform="translate(-14.1 45.45) rotate(-21.71)"/><ellipse class="cls-3" cx="93.24" cy="157.03" rx="11.8" ry="7.22" transform="translate(-88.23 177.52) rotate(-65.74)"/><ellipse class="cls-3" cx="98.61" cy="109.54" rx="10.99" ry="7.25" transform="translate(-41.78 154.44) rotate(-65.74)"/><ellipse class="cls-3" cx="47.61" cy="136.47" rx="4.44" ry="6.73" transform="translate(-47.1 27.29) rotate(-21.71)"/><ellipse class="cls-3" cx="58.18" cy="80.69" rx="4.97" ry="6.73" transform="translate(-17.97 16.68) rotate(-14.16)"/><ellipse class="cls-3" cx="103.08" cy="52.04" rx="6.73" ry="4.97" transform="translate(33.41 144.13) rotate(-79.68)"/><ellipse class="cls-3" cx="156.44" cy="69.62" rx="6.73" ry="4.97" transform="translate(14.19 164.93) rotate(-57.81)"/></g></g></g></svg>