<?xml version="1.0" encoding="UTF-8"?><svg id="Layer_2" xmlns="http://www.w3.org/2000/svg" viewBox="0 0 152.89 130.08"><defs><style>.cls-1{fill:#ffc5c5;}.cls-2{fill:#ffb3b3;}</style></defs><g id="Layer_5"><g><path class="cls-2" d="M123.99,85.37l-16.16-10.54c-1.65-1.08-2.62-2.75-2.62-4.53v-2.57c0-13.67-12.88-24.76-28.78-24.76s-28.78,11.08-28.78,24.76v2.57c0,1.78-.97,3.46-2.62,4.53l-16.16,10.54c-9.07,5.92-13.68,17.25-10.21,27.7,3.36,10.13,12.7,15.93,23.01,16.9,12.15,1.14,22-6.58,33.85-6.39,9.04,.15,17.64,3.43,26.45,5.07,9.72,1.81,20.84,.13,27.7-7.64,9.87-11.19,7.32-27.15-5.69-35.64h.01Z"/><ellipse class="cls-2" cx="135.7" cy="60.79" rx="19.42" ry="15.65" transform="translate(4.04 129.91) rotate(-51.83)"/><ellipse class="cls-2" cx="17.19" cy="60.79" rx="15.65" ry="19.42" transform="translate(-33.89 23.62) rotate(-38.17)"/><ellipse class="cls-2" cx="51.09" cy="19.51" rx="15.65" ry="19.58" transform="translate(-2.28 7.57) rotate(-8.29)"/><ellipse class="cls-2" cx="101.81" cy="19.53" rx="19.58" ry="15.65" transform="translate(67.81 117.46) rotate(-81.71)"/><ellipse class="cls-1" cx="37.26" cy="94.9" rx="11.8" ry="7.22" transform="translate(-48.42 39.63) rotate(-35.74)"/><ellipse class="cls-1" cx="65.65" cy="56.46" rx="10.99" ry="7.25" transform="translate(-20.62 48.98) rotate(-35.74)"/><ellipse class="cls-1" cx="8.02" cy="54.28" rx="6.73" ry="4.44" transform="translate(-46.85 54.39) rotate(-81.71)"/><ellipse class="cls-1" cx="45.06" cy="11.26" rx="6.73" ry="4.97" transform="translate(21.93 51.53) rotate(-74.16)"/><ellipse class="cls-1" cx="98.27" cy="8.9" rx="6.73" ry="4.97" transform="translate(27.9 78.06) rotate(-49.68)"/><ellipse class="cls-1" cx="135.7" cy="50.8" rx="6.73" ry="4.97" transform="translate(-8.03 69.18) rotate(-27.81)"/></g></g></svg>