<?xml version="1.0" encoding="UTF-8"?><svg id="Layer_2" xmlns="http://www.w3.org/2000/svg" viewBox="0 0 280 280"><defs><style>.cls-1{fill:none;}.cls-2{fill:#fff;}</style></defs><g id="Layer_1-2"><g><g><path class="cls-2" d="M8.68,226.03c-3.65,0-6.18-1.12-7.59-3.36-1.41-2.24-1.45-5.26-.12-9.08L60.65,60.4c2.15-5.63,6.3-8.46,12.43-8.46h1.74c6.13,0,10.28,2.82,12.43,8.46l59.69,153.19c1.32,3.82,1.32,6.84,0,9.08-1.33,2.24-3.9,3.36-7.71,3.36h-3.73c-6.3,0-10.44-2.9-12.43-8.7l-13.43-35.81H37.77l-13.68,35.81c-1.99,5.81-6.05,8.7-12.19,8.7h-3.23Zm36.81-65.9h56.45l-27.85-75.6-28.6,75.6Z"/><path class="cls-2" d="M207.88,228.02c-12.1,.33-22.1-2.44-29.97-8.33-7.88-5.88-11.81-14.38-11.81-25.49,0-8.12,2.61-15.17,7.83-21.14,5.22-5.97,11.94-10.65,20.14-14.05,8.21-3.4,16.7-5.1,25.49-5.1,5.14-.33,9.86,.12,14.18,1.37,4.31,1.24,8.04,3.03,11.19,5.35v-14.92c0-9.28-1.95-15.33-5.84-18.15-3.9-2.82-9.91-4.23-18.03-4.23-5.14,0-10.57,.71-16.29,2.11-5.72,1.41-11.07,3.28-16.04,5.6-3.48,1.33-6.47,1.78-8.95,1.37-2.49-.41-4.56-1.95-6.22-4.6-1.66-2.82-2.03-5.51-1.12-8.08,.91-2.57,3.11-4.6,6.59-6.09,6.13-2.98,12.89-5.39,20.27-7.21,7.38-1.82,14.63-2.74,21.76-2.74,15.25,0,26.61,3.03,34.07,9.08,7.46,6.05,11.19,17.04,11.19,32.95v59.94c0,2.65,.21,4.35,.62,5.1,.41,.75,1.45,1.37,3.11,1.87,1.99,.66,4.14,1.2,6.47,1.62,2.32,.42,3.48,1.29,3.48,2.61,0,5.47-2.82,8.79-8.46,9.95-3.65,.83-6.96,1.24-9.95,1.24-5.31,0-9.12-1-11.44-2.98-2.32-1.99-3.9-5.55-4.73-10.69-4.48,4.48-10.11,7.79-16.91,9.95-6.8,2.15-13.68,3.4-20.64,3.73Zm.25-19.65c6.96-.16,13.31-1.2,19.03-3.11,5.72-1.9,10.23-4.64,13.55-8.21,3.31-3.56,4.81-7.83,4.48-12.81-.33-4.64-2.7-7.96-7.09-9.95-4.39-1.99-9.99-2.82-16.79-2.49-6.14,.17-11.77,1.29-16.91,3.36-5.14,2.07-9.24,4.77-12.31,8.08-3.07,3.32-4.6,7.05-4.6,11.19,.16,4.64,2.07,8.17,5.72,10.57,3.64,2.4,8.62,3.52,14.92,3.36Z"/></g><rect class="cls-1" width="280" height="280"/></g></g></svg>