<svg xmlns="http://www.w3.org/2000/svg" data-name="Layer 1" viewBox="0 0 32 32"><path fill="#e0e0e2" d="M16.481,31.451A10.94,10.94,0,0,1,11.2,30.365C4.5,27.333-.891,20.586.82,12.806A16.038,16.038,0,0,1,9.134,2.147,16.26,16.26,0,0,1,26.463,4.1c2.852,2.362,5.188,5.942,5.029,9.8a8.924,8.924,0,0,1-7.065,8.318c-1.875.311-6.162-.612-6.763,2-.421,1.832,1.458,3.311,1.111,5.127A2.475,2.475,0,0,1,16.481,31.451Z"/><circle cx="26" cy="13" r="2.5" fill="#ed4569"/><circle cx="20" cy="6" r="2.5" fill="#55bb8c"/><circle cx="11" cy="7" r="2.5" fill="#497fbd"/><circle cx="6" cy="14" r="2.5" fill="#fddd56"/><path fill="#bc9a7e" d="M10.23,24.23C9.6,25,8.87,25.8,8.06,26.61,4.75,29.92,1.45,32,.7,31.24s1.32-4.04,4.63-7.36c.81-.8,1.61-1.53,2.38-2.17,2.39-1.98,4.41-3.03,4.99-2.46S12.22,21.84,10.23,24.23Z"/><path fill="#afaeb3" d="M10.23,24.23l-.02.01a3.492,3.492,0,0,1-2.5-2.51v-.02c2.39-1.98,4.41-3.03,4.99-2.46S12.22,21.84,10.23,24.23Z"/><path fill="#f8a839" d="M19.454,13.755a8.941,8.941,0,0,0-4.391.28A5.559,5.559,0,0,0,11.3,18.944a1.5,1.5,0,0,0,.411,1.092,1.942,1.942,0,0,0,1.072.391,4.9,4.9,0,0,0,.844.06,3.458,3.458,0,0,0,3.5-3.076,16.052,16.052,0,0,1,.117-1.859C17.462,14.611,18.4,13.543,19.454,13.755Z"/></svg>